<svg width="150" height="135" viewBox="0 0 150 135" fill="none" xmlns="http://www.w3.org/2000/svg">
<g clip-path="url(#clip0_41_41)">
<path d="M44.9885 47.0474C44.9885 45.0227 46.764 43.4074 48.4935 41.8376C50.2229 40.2679 51.7448 38.9256 51.7448 37.2876C51.7448 32.8968 46.6026 32.4418 44.3889 32.4418C38.4858 32.4418 32.2367 35.2628 32.2367 37.9701C32.2367 39.9039 33.5972 40.8139 35.834 42.0651C37.6556 43.0889 39.7079 44.2264 39.7079 46.6152C39.7079 50.5737 35.5111 54.8053 26.3105 54.8053H0C0.0459095 58.3209 1.40003 61.6973 3.80476 64.2921C4.63531 65.2263 5.65098 65.9828 6.78918 66.5149C7.92737 67.0471 9.16397 67.3436 10.4228 67.3862C11.9222 67.358 13.3929 66.9757 14.7118 66.2714L17.8478 64.6334L15.9339 67.5909C15.1989 68.5619 14.7587 69.7191 14.6648 70.9275C14.5709 72.1359 14.8271 73.3458 15.4035 74.416C16.4069 76.0257 17.8157 77.3516 19.4927 78.2646C21.1697 79.1776 23.0578 79.6465 24.9731 79.6258C26.6764 79.6599 28.3581 79.2458 29.8455 78.4261C31.3328 77.6064 32.5721 76.4108 33.4358 74.962L35.7417 71.1627L35.1422 75.5535C34.9354 77.78 35.6134 79.9988 37.033 81.7416C38.1244 82.7923 39.4339 83.5967 40.8711 84.0995C42.3083 84.6023 43.839 84.7913 45.3574 84.6536H65.442L65.0961 85.8366C64.9399 86.4778 64.9187 87.1437 65.0338 87.7933C65.1488 88.4428 65.3976 89.0622 65.7648 89.6132C66.6171 90.4611 67.6538 91.1066 68.7964 91.5007C69.939 91.8949 71.1575 92.0274 72.3597 91.8882H78.4012C78.4012 82.4013 76.5334 76.5318 73.7894 76.5318C72.4044 76.523 71.0594 76.9895 69.9846 77.8513C68.5449 78.9638 66.7632 79.5577 64.9347 79.5348C60.3228 79.5348 57.8094 74.5525 57.8094 69.6612C57.7591 67.4205 58.3334 65.2091 59.4696 63.2684C60.0211 62.3212 60.8177 61.5357 61.778 60.992C62.7382 60.4484 63.8276 60.1662 64.9347 60.1743C67.2406 60.1743 67.9324 62.5631 68.4858 64.7244C69.2467 67.5454 69.8693 69.2744 72.083 69.2744H72.3136C73.6644 69.2761 74.9837 68.8714 76.0953 68.1142C76.9555 67.3367 77.614 66.3667 78.0152 65.2859C78.4165 64.2052 78.5489 63.0451 78.4012 61.9033V54.8735H58.3858C45.957 54.8735 44.9885 48.8902 44.9885 47.0474Z" fill="#383838" fill-opacity="0.7"/>
<path d="M88.0631 28.6197C90.1384 28.6197 90.6457 30.5535 91.0377 32.1233C91.5911 34.3983 92.0293 35.6496 94.243 35.6496C96.4566 35.6496 99.1546 29.5752 99.1546 23.1597C99.2384 21.2097 98.8261 19.2701 97.9555 17.5176C97.6218 16.8231 97.0915 16.2388 96.4287 15.8351C95.7658 15.4314 94.9987 15.2256 94.2199 15.2426C91.1991 15.2426 90.0231 17.5176 88.7779 20.1339C87.5327 22.7502 86.472 24.6839 83.9355 24.6839C78.4013 24.7977 78.4013 20.9074 78.4013 14.4463V0.52316C77.2187 0.176715 75.9916 0.000479402 74.7579 -9.55518e-05C72.4485 -0.105341 70.176 0.600216 68.3439 1.99131C66.5117 3.38241 65.2385 5.36903 64.7503 7.59849L64.3582 9.30476L63.1592 8.00799C61.7729 6.70637 60.1305 5.69954 58.3336 5.04991C56.5368 4.40028 54.6238 4.12171 52.7134 4.23145C50.1928 4.15762 47.6833 4.58936 45.3368 5.50051C42.9903 6.41167 40.8557 7.78328 39.0623 9.53226C38.1812 10.4818 37.5287 11.6152 37.1534 12.8482C36.7781 14.0811 36.6897 15.3817 36.8948 16.6531L37.2868 19.2011L35.3498 17.4721C33.9617 16.1924 32.1304 15.4843 30.2306 15.4928C28.8006 15.5284 27.3965 15.8776 26.1202 16.5151C24.8439 17.1525 23.7274 18.0623 22.8517 19.1784C22.0566 20.1369 21.5006 21.266 21.2282 22.4751C20.9559 23.6842 20.9749 24.9394 21.2837 26.1399L21.6757 27.6415L20.1538 27.3002C18.1086 26.8495 15.9714 27.0466 14.0463 27.8635C12.1212 28.6804 10.5063 30.0755 9.43127 31.8503C8.67218 33.0609 8.25294 34.4489 8.21647 35.8721C8.18 37.2952 8.52763 38.7024 9.22373 39.9493C9.74312 40.871 10.4043 41.7076 11.1838 42.4291L12.5673 43.7486L10.6534 44.0216C4.6119 44.8179 0.830191 48.0939 0.115356 53.0307H26.3106C33.874 53.0307 37.8402 49.8457 37.8402 46.6834C37.8402 45.4549 36.7333 44.7724 34.9117 43.7486C33.09 42.7249 30.2998 41.2234 30.2998 38.0611C30.2998 33.8978 37.8402 30.69 44.3198 30.69C50.0846 30.69 53.5435 33.1698 53.5435 37.3786C53.5435 39.6536 51.4912 41.5874 49.6926 43.2026C48.2629 44.4994 46.7872 45.8417 46.7872 47.0474C46.7872 50.8012 51.0992 53.0307 58.3167 53.0307H78.4013V46.6834C78.4013 34.694 81.6296 28.6197 88.0631 28.6197Z" fill="#383838" fill-opacity="0.7"/>
<path d="M149.654 53.281H133.928C127.979 53.281 122.398 58.8093 122.398 62.1081C122.398 63.4959 123.182 64.1556 124.566 65.2249C125.609 65.8606 126.472 66.7472 127.073 67.8017C127.673 68.8562 127.993 70.044 128.002 71.2537C127.89 72.462 127.443 73.6166 126.711 74.5916C125.979 75.5665 124.99 76.3243 123.851 76.782C121.365 78.0572 118.605 78.728 115.803 78.7385C110.661 78.7385 107.456 76.4635 107.456 72.505C107.554 71.157 107.932 69.8433 108.567 68.6456C109.201 67.448 110.079 66.392 111.145 65.5434C112.344 64.3376 113.451 63.2684 113.451 62.1081V61.8124C113.564 61.0476 113.513 60.2681 113.303 59.5238C113.092 58.7795 112.727 58.0867 112.229 57.4898C110.477 55.7608 106.418 54.8735 100.192 54.8735H80.2229V61.9033C80.391 63.3426 80.1946 64.8005 79.6513 66.1465C79.108 67.4925 78.2348 68.6845 77.1099 69.6157C75.655 70.5096 73.9558 70.9387 72.2445 70.8442L72.0139 69.9114V70.8442C68.2091 70.8442 67.2867 67.4317 66.618 64.9519C66.0876 63.0181 65.7187 61.8351 64.8655 61.8351C64.0714 61.8323 63.2915 62.0426 62.6092 62.4433C61.9268 62.844 61.3677 63.4202 60.9916 64.1101C60.0296 65.7532 59.5505 67.6281 59.608 69.5247C59.608 73.506 61.4066 77.5555 64.8655 77.5555C66.3231 77.5743 67.7418 77.0917 68.8778 76.1905C70.2554 75.1157 71.964 74.5378 73.7202 74.5525C79.093 74.5525 80.2229 84.4034 80.2229 92.7527H90.8302C90.1153 100.351 98.9931 105.402 106.972 100.511C105.565 117.391 129.523 116.003 126.572 102.353C142.921 111.112 152.121 91.9109 142.713 82.2193C150.461 81.4458 151.015 69.0242 142.298 67.5682C145.088 66.4932 147.38 64.4429 148.737 61.8081C150.093 59.1733 150.42 56.1381 149.654 53.281Z" fill="#383838" fill-opacity="0.7"/>
<path d="M113.474 56.1931C114.167 56.9469 114.688 57.8385 115.003 58.8078C115.317 59.7772 115.417 60.8017 115.296 61.8124V62.1081C115.045 63.9849 114.05 65.6868 112.529 66.8402C111.636 67.5197 110.895 68.3735 110.351 69.3481C109.808 70.3227 109.474 71.3973 109.37 72.505C109.37 76.4635 113.982 76.8958 115.849 76.8958C118.337 76.882 120.786 76.2896 122.998 75.1668C124.197 74.5298 126.18 73.1875 126.18 71.2537C126.167 70.3245 125.906 69.4151 125.425 68.6165C124.943 67.8179 124.257 67.1582 123.436 66.7037C122.616 66.2366 121.926 65.5768 121.427 64.7829C120.928 63.9891 120.636 63.0858 120.576 62.1536C120.576 57.6036 127.194 51.4837 133.974 51.4837H148.04C147.047 49.7363 145.586 48.2921 143.817 47.309C142.048 46.3259 140.039 45.8419 138.009 45.9099H136.118L137.34 44.4539C138.461 43.2434 139.187 41.7289 139.426 40.1065C139.664 38.4841 139.404 36.8285 138.678 35.3538C136.972 31.7365 132.913 29.5753 129.823 30.8038L127.725 31.6228L128.624 29.5753C129.231 28.0764 129.467 26.4561 129.31 24.8493C129.154 23.2426 128.61 21.696 127.725 20.3387C125.419 16.7669 121.176 16.1071 116.749 18.7689L115.296 19.5879V17.9044C115.547 15.4529 115.285 12.9767 114.528 10.6289C113.77 8.28108 112.533 6.11148 110.892 4.25423C109.509 2.9236 107.871 1.87971 106.073 1.18419C104.274 0.488666 102.353 0.15561 100.423 0.204683C94.8885 0.204683 89.5849 2.86646 87.8324 6.48375L87.0715 8.05352L86.1952 6.57475C84.8084 4.22414 82.7238 2.35008 80.2229 1.20569V14.4463C80.2229 21.9994 80.638 22.9549 83.9585 22.9549C85.319 22.9549 86.0569 21.6127 87.1176 19.4514C88.432 16.8124 90.0692 13.6501 94.2429 13.6501C95.3245 13.6072 96.3971 13.8608 97.3414 14.3829C98.2858 14.905 99.065 15.675 99.5926 16.6076C100.644 18.6307 101.144 20.8884 101.045 23.1597C101.045 29.0065 98.3935 37.4696 94.1276 37.4696C90.3689 37.4696 89.5157 34.5348 89.1007 32.5783C88.6856 30.6218 88.4781 30.4625 87.9477 30.4625C82.7363 30.4625 80.1076 35.9226 80.1076 46.6834V53.0308H100.008C107.064 53.0308 111.307 54.0318 113.474 56.1931Z" fill="#383838" fill-opacity="0.7"/>
<path d="M106.879 102.376L106.072 100.806C98.3474 104.947 90.0692 99.9874 90.7379 92.639H85.9416L106.257 135H122.513L110.846 110.612C109.599 109.622 108.595 108.367 107.908 106.941C107.221 105.515 106.87 103.955 106.879 102.376Z" fill="#383838" fill-opacity="0.7"/>
<path d="M97.9785 17.5176C97.6449 16.8231 97.1146 16.2388 96.4517 15.8351C95.7889 15.4314 95.0217 15.2256 94.2429 15.2426C91.2222 15.2426 90.0462 17.5176 88.801 20.1339C87.5558 22.7502 86.495 24.6839 83.9585 24.6839C78.4013 24.7977 78.4013 20.9074 78.4013 14.4463V0.52316C77.2187 0.176715 75.9916 0.000479402 74.7579 -9.55509e-05C72.4485 -0.105341 70.176 0.600216 68.3439 1.99131C66.5117 3.38241 65.2385 5.36903 64.7502 7.59849L64.3582 9.30476L63.1592 8.00799C61.7729 6.70637 60.1305 5.69954 58.3336 5.04991C56.5368 4.40028 54.6238 4.12171 52.7133 4.23145C50.1928 4.15762 47.6833 4.58936 45.3368 5.50051C42.9903 6.41167 40.8557 7.78328 39.0623 9.53226C38.1812 10.4818 37.5287 11.6152 37.1534 12.8482C36.7781 14.0811 36.6897 15.3817 36.8947 16.6531L37.2868 19.2011L35.3498 17.4721C33.9617 16.1924 32.1304 15.4843 30.2306 15.4928C28.8006 15.5284 27.3964 15.8776 26.1201 16.5151C24.8438 17.1525 23.7274 18.0623 22.8517 19.1784C22.0566 20.1369 21.5006 21.266 21.2282 22.4751C20.9559 23.6842 20.9749 24.9394 21.2837 26.1399L21.6757 27.6415L20.1538 27.3002C18.1086 26.8495 15.9714 27.0466 14.0463 27.8635C12.1212 28.6804 10.5063 30.0755 9.43126 31.8503C8.67218 33.0609 8.25293 34.4489 8.21647 35.8721C8.18 37.2952 8.52762 38.7024 9.22373 39.9493C9.74312 40.871 10.4043 41.7076 11.1838 42.4291L12.5673 43.7486L10.6534 44.0216C4.6119 44.8179 0.830191 48.0939 0.115356 53.0307H26.3106C33.874 53.0307 37.8402 49.8457 37.8402 46.6834C37.8402 45.4549 36.7333 44.7724 34.9117 43.7486C33.09 42.7249 30.2998 41.2234 30.2998 38.0611C30.2998 33.8978 37.8402 30.69 44.3198 30.69C50.0846 30.69 53.5435 33.1698 53.5435 37.3786C53.5435 39.6536 51.4912 41.5874 49.6926 43.2026C48.2629 44.4994 46.7871 45.8417 46.7871 47.0474C46.7871 50.8012 51.0992 53.0307 58.3167 53.0307H78.4013V46.6834C78.4013 34.694 81.6757 28.6197 88.1092 28.6197C90.1845 28.6197 90.6918 30.5535 91.0838 32.1233C91.6372 34.3983 92.0754 35.6496 94.289 35.6496C96.5027 35.6496 99.1545 29.5752 99.1545 23.1597C99.2455 21.2117 98.8412 19.2721 97.9785 17.5176Z" fill="#383838" fill-opacity="0.2"/>
<path d="M148.04 51.4383C147.047 49.6908 145.586 48.2466 143.817 47.2635C142.048 46.2804 140.039 45.7964 138.009 45.8644H136.118L137.34 44.4084C138.461 43.1979 139.187 41.6834 139.426 40.061C139.664 38.4386 139.404 36.783 138.678 35.3083C136.972 31.691 132.913 29.5298 129.823 30.7583L127.725 31.5773L128.624 29.5298C129.231 28.0309 129.467 26.4106 129.31 24.8038C129.154 23.1971 128.61 21.6505 127.725 20.2932C125.419 16.7214 121.176 16.0616 116.749 18.7234L115.296 19.5879V17.9044C115.547 15.4529 115.285 12.9767 114.528 10.6289C113.77 8.28108 112.533 6.11148 110.892 4.25423C109.509 2.9236 107.871 1.87971 106.073 1.18419C104.274 0.488666 102.353 0.15561 100.423 0.204683C94.8885 0.204683 89.5849 2.86646 87.8324 6.48375L87.0715 8.05352L86.1952 6.57475C84.8084 4.22414 82.7238 2.35008 80.2229 1.20569V14.4463C80.2229 21.9994 80.638 22.9549 83.9585 22.9549C85.319 22.9549 86.0569 21.6127 87.1176 19.4514C88.432 16.8124 90.0692 13.6501 94.2429 13.6501C95.3245 13.6072 96.3971 13.8608 97.3414 14.3829C98.2858 14.905 99.065 15.675 99.5926 16.6076C100.644 18.6307 101.144 20.8884 101.045 23.1597C101.045 29.0065 98.3935 37.4696 94.1276 37.4696C90.3689 37.4696 89.5157 34.5348 89.1007 32.5783C88.6856 30.6218 88.4781 30.4625 87.9477 30.4625C82.7363 30.4625 80.1076 35.9226 80.1076 46.6834V53.0308H100.008C106.925 53.0308 111.191 54.0318 113.359 56.1931C114.072 56.9371 114.615 57.8243 114.949 58.7941C115.283 59.7639 115.402 60.7934 115.296 61.8124V62.1081C115.045 63.9849 114.05 65.6868 112.529 66.8402C111.636 67.5197 110.895 68.3735 110.351 69.3481C109.808 70.3227 109.474 71.3973 109.37 72.505C109.37 76.4635 113.982 76.8958 115.849 76.8958C118.337 76.882 120.786 76.2896 122.998 75.1668C124.197 74.5298 126.18 73.1875 126.18 71.2537C126.167 70.3245 125.906 69.4151 125.425 68.6165C124.943 67.8179 124.257 67.1582 123.436 66.7037C122.616 66.2366 121.926 65.5768 121.427 64.7829C120.928 63.9891 120.636 63.0858 120.576 62.1536C120.576 57.6036 127.194 51.4837 133.974 51.4837L148.04 51.4383Z" fill="#383838" fill-opacity="0.7"/>
<path d="M73.7894 76.3498C72.4044 76.341 71.0594 76.8075 69.9846 77.6693C68.5449 78.7818 66.7632 79.3757 64.9347 79.3528C60.3228 79.3528 57.8094 74.3705 57.8094 69.4792C57.7591 67.2385 58.3334 65.0271 59.4696 63.0864C60.0211 62.1392 60.8177 61.3537 61.778 60.81C62.7382 60.2664 63.8276 59.9842 64.9347 59.9923C67.2406 59.9923 67.9324 62.3811 68.4858 64.5424C69.2467 67.3634 69.8693 69.0924 72.083 69.0924H72.3136C73.6451 69.1481 74.9628 68.8072 76.0953 68.1142C76.9555 67.3367 77.614 66.3667 78.0152 65.2859C78.4165 64.2052 78.5489 63.0451 78.4012 61.9033V54.8735H58.3858C45.957 54.8735 44.9885 48.8902 44.9885 47.0474C44.9885 45.2047 46.764 43.4074 48.4935 41.8376C50.2229 40.2679 51.7448 38.9256 51.7448 37.2876C51.7448 32.8968 46.6026 32.4418 44.3889 32.4418C38.4858 32.4418 32.2367 35.2628 32.2367 37.9701C32.2367 39.9039 33.5972 40.8139 35.834 42.0651C37.6556 43.0889 39.7079 44.2264 39.7079 46.6152C39.7079 50.5737 35.5111 54.8053 26.3105 54.8053H0C0.0459095 58.3209 1.40003 61.6973 3.80476 64.2921C4.63531 65.2263 5.65098 65.9828 6.78918 66.5149C7.92737 67.0471 9.16397 67.3436 10.4228 67.3862C11.9222 67.358 13.3929 66.9757 14.7118 66.2714L17.8478 64.6334L15.9339 67.5909C15.1989 68.5619 14.7587 69.7191 14.6648 70.9275C14.5709 72.1359 14.8271 73.3458 15.4035 74.416C16.4069 76.0257 17.8157 77.3516 19.4927 78.2646C21.1697 79.1776 23.0578 79.6465 24.9731 79.6258C26.6764 79.6599 28.3581 79.2458 29.8455 78.4261C31.3328 77.6064 32.5721 76.4108 33.4358 74.962L35.7417 71.1627L35.1422 75.5535C34.9354 77.78 35.6134 79.9988 37.033 81.7416C38.1244 82.7923 39.4339 83.5967 40.8711 84.0995C42.3083 84.6023 43.839 84.7913 45.3574 84.6536H65.442L65.0961 85.8366C64.9399 86.4778 64.9187 87.1437 65.0338 87.7933C65.1488 88.4428 65.3976 89.0622 65.7648 89.6132C66.6171 90.4611 67.6538 91.1066 68.7964 91.5007C69.939 91.8949 71.1575 92.0274 72.3597 91.8882H78.4012C78.2398 82.2193 76.4873 76.3498 73.7894 76.3498Z" fill="#383838" fill-opacity="0.7"/>
</g>
<defs>
<clipPath id="clip0_41_41">
<rect width="150" height="135" fill="white"/>
</clipPath>
</defs>
</svg>
