<svg width="592" height="72" viewBox="0 0 592 72" fill="none" xmlns="http://www.w3.org/2000/svg">
<g clip-path="url(#clip0_40_23)">
<path d="M532.254 40.1777C531.801 39.1504 531.026 38.1971 529.98 37.3793C528.759 36.4193 527.196 35.6741 525.43 35.2105C523.055 34.5723 520.467 34.3552 517.924 34.5808C514.793 34.813 511.834 35.6472 509.417 36.9795C506.686 38.5538 504.768 40.6498 503.928 42.9762C503.483 44.2677 503.204 45.5816 503.094 46.904C502.995 48.2897 503.262 49.6761 503.882 51.0017C505.275 53.887 508.087 56.384 511.874 58.0978C516.005 60.002 520.891 61.0685 525.931 61.1661C531.311 61.2937 536.593 60.1921 540.882 58.0478C545.356 55.6757 548.616 52.4557 550.223 48.8229C552.077 45.0843 551.943 41.0412 549.844 37.3593C547.492 33.5472 543.646 30.2153 538.699 27.7047C536.205 26.4028 533.54 25.249 530.738 24.2566C530.025 24.0067 529.312 23.7469 528.584 23.517L527.553 23.1872L526.401 22.8773L524.081 22.2577L521.776 21.708C509.115 18.8322 495.714 17.6431 482.35 18.2099C468.966 18.7696 455.767 20.5593 443.136 23.527C436.941 24.961 430.866 26.6124 424.939 28.4742C419.055 30.3032 413.43 32.3821 407.804 34.3909C396.613 38.3887 385.74 42.3165 374.959 45.4548C369.727 46.9984 364.371 48.353 358.915 49.5125C353.783 50.634 348.511 51.4567 343.16 51.9712C340.582 52.201 338.065 52.351 335.578 52.4209C334.986 52.4209 334.304 52.4209 333.713 52.4209H331.908C330.665 52.4209 329.436 52.361 328.254 52.271C323.735 51.993 319.329 51.184 315.243 49.8823C311.683 48.7151 308.468 47.1378 305.75 45.2249C303.472 43.6128 301.552 41.7956 300.049 39.8279C297.981 37.0812 296.677 34.1126 296.197 31.0628C296.045 30.0134 296 29.2038 296 28.6641V27.8346C296 27.8346 296 28.1144 296 28.6541C296 29.1938 296.152 30.0034 296.379 31.0428C297.074 34.0278 298.568 36.9077 300.792 39.5481C304.193 43.6363 309.513 46.8872 315.956 48.8129C319.889 49.9354 324.095 50.5852 328.375 50.7319C329.512 50.7918 330.65 50.7319 331.787 50.7818L333.576 50.7219C334.198 50.7219 334.714 50.7219 335.35 50.6419C337.731 50.512 340.173 50.2921 342.644 50.0023C347.775 49.4156 352.841 48.6042 357.808 47.5736C363.161 46.4292 368.415 45.0947 373.548 43.5758C384.163 40.4876 394.975 36.5797 406.181 32.5819C411.761 30.5831 417.463 28.4842 423.453 26.5853C429.493 24.7001 435.684 23.0319 441.998 21.5881C454.956 18.5679 468.493 16.7612 482.213 16.221C495.963 15.641 509.752 16.8674 522.777 19.829L525.188 20.3987L527.508 21.0284L528.675 21.3382L529.889 21.728C530.662 21.9678 531.405 22.2377 532.148 22.4976C535.136 23.5602 537.973 24.7978 540.625 26.1955C546.016 28.9179 550.204 32.5411 552.756 36.6897C555.105 40.8078 555.255 45.3307 553.18 49.5125C551.373 53.5174 547.754 57.0634 542.808 59.6769C537.96 62.0976 531.994 63.3435 525.916 63.2049C520.25 63.1081 514.754 61.9122 510.115 59.7668C505.799 57.7939 502.599 54.9324 501.016 51.6314C499.685 48.6398 499.717 45.4563 501.107 42.4765C502.341 39.8524 504.791 37.549 508.113 35.8901C510.919 34.5236 514.273 33.7311 517.757 33.6114C520.513 33.4816 523.272 33.826 525.764 34.6108C527.575 35.2015 529.137 36.0768 530.313 37.1594C531.269 38.0664 531.93 39.0941 532.254 40.1777Z" fill="#894E2E"/>
<path d="M59.7914 40.1777C60.0965 39.0982 60.7536 38.0751 61.7172 37.1794C62.8952 36.0978 64.4571 35.2228 66.2664 34.6308C68.7538 33.8468 71.5076 33.5024 74.2578 33.6313C77.7421 33.7511 81.096 34.5435 83.9021 35.9101C87.2517 37.5534 89.7298 39.8512 90.9836 42.4764C92.3444 45.4622 92.3444 48.6456 90.9836 51.6313C89.4013 54.9324 86.2012 57.7938 81.8852 59.7668C77.2645 61.8991 71.7985 63.0942 66.1602 63.2049C60.0863 63.3428 54.1259 62.0968 49.2828 59.6769C44.3279 57.0686 40.7074 53.5207 38.9107 49.5125C36.8289 45.3314 36.9787 40.8069 39.3352 36.6896C41.8853 32.5406 46.074 28.9171 51.4664 26.1955C54.118 24.7978 56.9549 23.5601 59.943 22.4975C60.7012 22.2377 61.4594 21.9678 62.2025 21.7279L63.4307 21.3382L64.5832 21.0283L66.9033 20.3987L69.3295 19.829C82.3543 16.8666 96.1427 15.6401 109.893 16.221C123.56 16.7876 137.04 18.6109 149.941 21.638C156.257 23.0783 162.448 24.7466 168.486 26.6352C174.552 28.4942 180.178 30.633 185.773 32.6319C196.964 36.6297 207.761 40.5375 218.391 43.6258C223.524 45.1446 228.779 46.4792 234.131 47.6236C239.099 48.653 244.165 49.4644 249.295 50.0522C251.767 50.342 254.208 50.5619 256.604 50.6918C257.226 50.6918 257.757 50.7618 258.363 50.7718L260.152 50.8318C261.305 50.8318 262.427 50.8318 263.564 50.7818C267.849 50.634 272.06 49.9842 275.999 48.8629C282.438 46.9341 287.758 43.684 291.163 39.598C293.38 36.9557 294.874 34.0766 295.575 31.0927C295.759 30.3012 295.88 29.5039 295.939 28.7041C295.939 28.1644 295.939 27.8845 295.939 27.8845V28.7141C295.939 29.2538 295.939 30.0633 295.742 31.1127C295.262 34.1612 293.963 37.1291 291.906 39.8779C290.396 41.8458 288.472 43.6628 286.189 45.2749C283.471 47.1878 280.256 48.7651 276.696 49.9323C272.611 51.2339 268.204 52.0429 263.686 52.3209C262.503 52.4109 261.275 52.4309 260.046 52.4709H258.242C257.65 52.4709 256.953 52.4709 256.361 52.4709C253.89 52.4009 251.357 52.251 248.78 52.0211C243.45 51.5065 238.199 50.6872 233.085 49.5725C227.629 48.4129 222.273 47.0583 217.041 45.5147C206.26 42.3765 195.387 38.5186 184.196 34.4509C178.586 32.452 172.945 30.3631 167.061 28.5342C161.136 26.6689 155.062 25.0173 148.864 23.5869C136.233 20.6192 123.034 18.8296 109.65 18.2699C96.2865 17.7036 82.8851 18.8926 70.2242 21.7679L67.9344 22.3176L65.6143 22.9373L64.4619 23.2471L63.4307 23.5769C62.7029 23.8068 61.9902 24.0666 61.2775 24.3165C58.4471 25.3149 55.762 26.4824 53.2557 27.8046C48.3085 30.3152 44.4621 33.6471 42.1102 37.4592C40.0067 41.1399 39.8676 45.1831 41.716 48.9228C43.3282 52.5566 46.594 55.7766 51.0721 58.1477C55.3605 60.2935 60.6432 61.3952 66.0238 61.266C71.0622 61.1649 75.9468 60.0987 80.0807 58.1977C83.8637 56.4834 86.6707 53.9862 88.057 51.1016C88.6825 49.7766 88.9544 48.3902 88.8607 47.0039C88.7755 45.6488 88.5117 44.3011 88.0721 42.9761C87.2382 40.6483 85.3184 38.5511 82.5828 36.9795C80.1884 35.654 77.2573 34.8201 74.1516 34.5808C71.6141 34.3551 69.0311 34.5722 66.6607 35.2104C64.8943 35.6729 63.3308 36.4183 62.1115 37.3792C61.0353 38.1883 60.2431 39.1438 59.7914 40.1777Z" fill="#894E2E"/>
<path d="M592 45.5947C590.479 41.8221 587.969 38.2538 584.585 35.0505C583.751 34.241 582.902 33.4614 582.007 32.6918C581.112 31.9222 580.187 31.1727 579.232 30.4431C578.277 29.7135 577.276 29.0039 576.199 28.3043C575.123 27.6046 574.137 26.925 573.075 26.3054C568.841 23.6592 564.195 21.3143 559.216 19.3093C556.759 18.3098 554.318 17.3104 551.74 16.4508C550.451 16.0211 549.147 15.6313 547.827 15.2615C546.508 14.8917 545.159 14.5719 543.809 14.2621H543.718H543.566C540.895 13.5155 538.155 12.8812 535.363 12.3631C532.527 11.8234 529.646 11.3637 526.75 10.9639C520.931 10.1759 515.039 9.64171 509.114 9.36478C497.23 8.80629 485.289 9.08438 473.494 10.1943C467.595 10.774 461.727 11.4836 455.919 12.3931C450.111 13.3026 444.364 14.392 438.693 15.6213L434.447 16.5608L430.246 17.5602C427.426 18.2199 424.666 18.9794 421.906 19.739C416.386 21.2382 410.958 22.9173 405.62 24.6763C400.282 26.4353 394.687 28.2243 389.046 29.7435C383.387 31.2809 377.606 32.6154 371.729 33.7412C365.842 34.8764 359.85 35.7578 353.79 36.3798C347.709 36.9995 341.564 37.3102 335.411 37.3093C329.231 37.3095 323.064 36.9382 316.987 36.1999C310.87 35.5489 304.917 34.3519 299.291 32.6418C293.689 30.923 288.428 28.758 283.626 26.1954C281.265 24.9252 279.083 23.5169 277.106 21.9878C276.138 21.204 275.256 20.3757 274.467 19.5091C273.604 18.6729 273.034 17.7203 272.799 16.7207C273.212 17.6745 273.942 18.5555 274.937 19.2993C275.869 20.0592 276.883 20.774 277.97 21.4381C280.155 22.771 282.509 23.9781 285.006 25.0461C289.973 27.173 295.321 28.8851 300.928 30.1432C306.482 31.425 312.161 32.4568 317.927 33.2315C323.735 33.9345 329.627 34.2891 335.532 34.2909C341.452 34.2904 347.364 33.9897 353.214 33.3914C359.079 32.7915 364.879 31.9401 370.576 30.8428C376.289 29.7428 381.907 28.4416 387.408 26.945C392.958 25.4558 398.266 23.7568 403.679 21.9478C409.093 20.1388 414.627 18.4497 420.268 16.9506C423.074 16.181 425.894 15.4114 428.76 14.7318L433.052 13.7324L437.373 12.7329C443.166 11.4536 449.05 10.3842 454.979 9.44474C460.908 8.50526 466.928 7.77566 472.963 7.18599C485.065 6.04991 497.314 5.75846 509.508 6.31647C515.623 6.612 521.702 7.17291 527.705 7.99554C530.738 8.39532 533.725 8.87838 536.667 9.44474C539.683 10.0047 542.641 10.6924 545.523 11.5036L545.28 11.4436C546.796 11.7734 548.191 12.1232 549.617 12.513C551.042 12.9028 552.422 13.3326 553.802 13.7823C556.571 14.6483 559.238 15.6506 561.778 16.7807C563.037 17.3503 564.25 17.97 565.433 18.5997C566.616 19.2293 567.798 19.8789 568.936 20.5486C571.209 21.8755 573.371 23.2835 575.411 24.7662C576.427 25.5058 577.427 26.2654 578.443 27.035C579.459 27.8045 580.324 28.6041 581.218 29.4136C582.113 30.2232 582.947 31.0427 583.751 31.8823C584.555 32.7218 585.343 33.5813 586.071 34.4508C589.052 37.899 591.061 41.6746 592 45.5947Z" fill="#894E2E"/>
<path d="M591.045 42.9761C589.488 38.9299 587.014 35.0618 583.705 31.5025C580.489 27.9413 576.757 24.5941 572.56 21.508C571.514 20.7385 570.452 19.9789 569.345 19.2393C568.238 18.4997 567.131 17.7901 565.964 17.0905C564.796 16.3909 563.628 15.7212 562.43 15.0916C561.232 14.4619 559.989 13.8223 558.746 13.2026C557.502 12.583 556.228 11.9933 555 11.3936C553.772 10.794 552.392 10.2843 551.057 9.76455C549.723 9.24483 548.328 8.81507 546.933 8.38531L544.81 7.79564L542.657 7.27593H542.566H542.475C539.81 6.5163 537.075 5.86869 534.286 5.33701C531.466 4.78398 528.61 4.31424 525.718 3.92779C519.942 3.13496 514.09 2.60071 508.204 2.32868C496.393 1.78007 484.525 2.07832 472.811 3.21818C466.958 3.77787 461.135 4.52746 455.373 5.42696C449.611 6.32646 443.909 7.42585 438.298 8.66516L434.083 9.59464L429.913 10.5941C427.123 11.2537 424.393 12.0133 421.648 12.7529C416.174 14.262 410.791 15.9111 405.484 17.6602C400.176 19.4092 394.748 21.1882 389.243 22.7573C383.739 24.3265 378.128 25.7557 372.441 27.0549C361.05 29.6769 349.242 31.4339 337.246 32.292C331.2 32.6922 325.115 32.7757 319.049 32.5419C312.976 32.3759 306.958 31.7043 301.141 30.543C295.334 29.3632 289.807 27.6543 284.718 25.4658C282.19 24.3709 279.846 23.1011 277.727 21.6779C275.558 20.2905 273.853 18.6188 272.723 16.7707C274.063 18.5231 275.943 20.0719 278.243 21.3181C280.474 22.59 282.892 23.7117 285.461 24.6663C290.606 26.5524 296.13 27.9488 301.868 28.814C307.579 29.7128 313.391 30.3044 319.246 30.583C325.126 30.8045 331.022 30.721 336.882 30.3331C348.644 29.4864 360.222 27.763 371.395 25.196C377.006 23.9367 382.53 22.5208 387.969 20.9483C393.413 19.3992 398.705 17.6801 404.058 15.9511C409.411 14.2221 414.87 12.503 420.42 10.9539C423.195 10.1943 425.955 9.42474 428.791 8.7651L433.006 7.76566L437.282 6.76621C442.969 5.49692 448.762 4.43751 454.6 3.48803C460.438 2.53856 466.367 1.80897 472.326 1.23928C484.254 0.0647815 496.339 -0.256908 508.371 0.279816C514.394 0.560943 520.383 1.10854 526.295 1.91891C529.252 2.32868 532.193 2.80841 535.105 3.37809C538.054 3.93033 540.941 4.61488 543.748 5.42696H543.582L545.886 5.98664L548.146 6.6163C549.662 7.06605 551.073 7.55577 552.498 8.07548C553.923 8.59519 555.303 9.15488 556.668 9.74456C558.033 10.3342 559.337 10.9539 560.611 11.6235C565.602 14.296 570.146 17.3113 574.167 20.6185C578.191 23.9047 581.715 27.443 584.691 31.1826C585.434 32.1221 586.132 33.0616 586.784 34.0211C587.436 34.9805 588.027 35.96 588.573 36.9494C589.684 38.9023 590.512 40.9202 591.045 42.9761Z" fill="#894E2E"/>
<path d="M0 45.5947C0.951031 41.6769 2.97005 37.9048 5.95943 34.4609C6.68729 33.5914 7.47582 32.7319 8.26434 31.8923C9.05287 31.0528 9.93238 30.2333 10.8119 29.4237C11.6914 28.6142 12.6164 27.8146 13.6475 27.045C14.6787 26.2755 15.6037 25.5159 16.6803 24.7763C18.7275 23.2971 20.8959 21.8879 23.1553 20.5486C24.2926 19.889 25.4602 19.2294 26.6582 18.6097C27.8561 17.9901 29.0541 17.3604 30.3279 16.7907C32.8634 15.6607 35.5246 14.6585 38.2889 13.7924C39.6689 13.3426 41.0639 12.9229 42.4893 12.5231C43.9148 12.1233 45.3553 11.7835 46.8111 11.4537L46.5684 11.5137C49.4551 10.7023 52.4182 10.0145 55.4393 9.45481C58.3104 8.86846 61.2522 8.38207 64.2648 7.99562C70.2679 7.17571 76.3467 6.61814 82.4615 6.32654C94.6702 5.76235 106.935 6.05046 119.052 7.18607C125.118 7.77574 131.183 8.50533 137.052 9.44481C142.92 10.3843 148.864 11.4437 154.642 12.733L158.979 13.7324L163.27 14.7319C166.136 15.4115 168.941 16.1811 171.762 16.9506C177.388 18.4798 182.907 20.1888 188.351 21.9479C193.795 23.7069 199.072 25.4359 204.607 26.9451C210.112 28.4432 215.736 29.7444 221.454 30.8429C227.151 31.9402 232.951 32.7915 238.817 33.3915C244.667 33.9905 250.578 34.2912 256.498 34.291C262.398 34.2891 268.285 33.9345 274.088 33.2316C279.875 32.4612 285.575 31.4294 291.148 30.1433C296.758 28.8832 302.111 27.1712 307.085 25.0461C309.582 23.9782 311.936 22.7711 314.121 21.4381C315.201 20.769 316.214 20.0545 317.154 19.2993C318.139 18.5525 318.864 17.6723 319.277 16.7208C319.047 17.7198 318.483 18.6724 317.624 19.5092C316.805 20.3775 315.893 21.2058 314.894 21.9878C312.894 23.5227 310.686 24.9344 308.298 26.2055C303.506 28.759 298.255 30.914 292.664 32.6219C287.032 34.3318 281.074 35.5287 274.952 36.18C268.88 36.9177 262.718 37.289 256.543 37.2893C250.39 37.2906 244.246 36.9799 238.165 36.3599C232.1 35.7379 226.102 34.8565 220.211 33.7213C214.337 32.597 208.561 31.2625 202.909 29.7235C197.268 28.2044 191.702 26.4354 186.334 24.6564C180.966 22.8773 175.568 21.2183 170.033 19.7191C167.273 18.9595 164.514 18.1999 161.708 17.5403L157.493 16.5409L153.247 15.6014C147.591 14.3521 141.828 13.3027 136.02 12.3732C130.213 11.4437 124.344 10.7241 118.445 10.1444C106.645 9.03468 94.6997 8.75659 82.8102 9.31488C76.8947 9.59159 71.0135 10.1258 65.2049 10.914C62.2934 11.3038 59.4123 11.7735 56.5918 12.3132C53.7942 12.8313 51.0491 13.4656 48.373 14.2122H48.2365H48.1455C46.7807 14.522 45.4463 14.8518 44.127 15.2116C42.8078 15.5714 41.4885 15.9712 40.1996 16.4009C37.6369 17.2605 35.1803 18.2599 32.7238 19.2594C27.7493 21.2694 23.1046 23.614 18.8639 26.2555C17.8025 26.9151 16.7713 27.5947 15.8311 28.2544C14.891 28.914 13.8295 29.6636 12.7984 30.3932C11.7672 31.1228 10.9029 31.8724 10.0082 32.6419C9.11352 33.4115 8.24918 34.241 7.43033 35.0406C4.04365 38.248 1.52939 41.8193 0 45.5947Z" fill="#894E2E"/>
<path d="M0.97049 42.9762C1.50802 40.9318 2.33036 38.9244 3.42705 36.9795C3.97295 35.98 4.54918 34.9806 5.21639 33.9811C5.88361 32.9817 6.58115 32.0822 7.30901 31.1427C10.3139 27.4008 13.8693 23.8624 17.9238 20.5786C21.9409 17.269 26.4859 14.2534 31.4803 11.5836C32.7389 10.914 34.0582 10.2943 35.4078 9.70464C36.7574 9.11496 38.0918 8.55527 39.502 7.99559C40.9123 7.4359 42.459 6.99614 43.8693 6.56638L46.1287 5.93673L48.4336 5.37704H48.2668C51.0747 4.58038 53.9627 3.91249 56.9102 3.37815C59.8066 2.80847 62.7484 2.37871 65.7053 1.92896C71.6109 1.11112 77.5944 0.560143 83.6139 0.279871C95.638 -0.271011 107.717 0.0305509 119.643 1.17937C125.598 1.75905 131.502 2.50863 137.355 3.42812C143.193 4.37759 148.986 5.42701 154.672 6.7063L158.948 7.70575L163.164 8.70519C166 9.36482 168.759 10.1344 171.534 10.894C177.069 12.4131 182.513 14.0822 187.881 15.8912L195.903 18.4898C198.572 19.3593 201.286 20.1189 203.97 20.9284C206.654 21.738 209.444 22.4376 212.189 23.1772C214.934 23.9167 217.709 24.5764 220.529 25.176C226.125 26.4553 231.826 27.4948 237.573 28.4142C243.329 29.2778 249.157 29.9185 255.027 30.3332C260.887 30.7144 266.784 30.7912 272.663 30.563C278.508 30.2762 284.309 29.6813 290.01 28.784C295.739 27.9029 301.251 26.4967 306.387 24.6064C308.962 23.6519 311.385 22.5303 313.621 21.2582C315.914 20.0109 317.829 18.4881 319.261 16.7707C318.042 18.589 316.307 20.2375 314.151 21.628C312.024 23.0431 309.676 24.3061 307.146 25.3959C302.07 27.5966 296.552 29.319 290.753 30.5131C284.934 31.6711 278.918 32.3427 272.845 32.512C266.78 32.7579 260.694 32.6811 254.648 32.2821C248.65 31.8418 242.696 31.1744 236.815 30.2832C230.962 29.3437 225.154 28.2843 219.483 26.985C216.617 26.3854 213.842 25.6258 211.006 24.9861C208.171 24.3465 205.441 23.497 202.681 22.7174C199.921 21.9378 197.161 21.0983 194.493 20.2388L186.516 17.6302C181.209 15.8812 175.902 14.2221 170.367 12.723C167.622 11.9734 164.893 11.2238 162.102 10.5642L157.932 9.56471L153.717 8.62524C148.106 7.37593 142.389 6.32651 136.642 5.39703C130.895 4.46755 125.072 3.72796 119.219 3.15827C107.509 2.02684 95.6475 1.73197 83.8414 2.27876C77.9552 2.55079 72.1038 3.08505 66.3271 3.87787C63.4459 4.26766 60.5799 4.7374 57.7594 5.29708C54.9687 5.82096 52.2332 6.46532 49.5709 7.22601H49.4799L47.3115 7.74572L45.1885 8.3354C43.7934 8.76516 42.4135 9.2249 41.0639 9.71463C39.7143 10.2044 38.4254 10.774 37.1365 11.3437C35.8475 11.9134 34.5889 12.5131 33.3303 13.1227C32.0717 13.7324 30.8586 14.3521 29.6455 15.0117C28.4324 15.6713 27.2648 16.3409 26.1123 17.0106C24.9598 17.6802 23.8377 18.4198 22.7459 19.1594C21.6541 19.899 20.5775 20.6586 19.5311 21.4281C15.3295 24.514 11.5918 27.8611 8.37049 31.4226C5.02898 35.0041 2.53376 38.8999 0.97049 42.9762Z" fill="#894E2E"/>
<path d="M301.247 63.4848C301.247 58.4876 296 45.5947 296 45.5947C296 45.5947 290.768 58.5875 290.768 63.4848C290.768 68.3821 292.664 68.3121 296 71.9601C299.291 68.3121 301.247 68.432 301.247 63.4848Z" fill="#894E2E"/>
<path d="M316.471 63.4648C316.365 60.7063 317.502 60.3365 314.955 57.628C312.407 54.9195 302.824 49.0128 302.824 49.0128C302.824 49.0128 306.66 57.2782 309.223 60.0067C311.786 62.7352 312.771 62.1855 316.471 63.4648Z" fill="#894E2E"/>
<path d="M275.529 63.4648C279.229 62.1855 280.23 62.6852 282.792 59.9867C285.355 57.2882 289.191 48.9928 289.191 48.9928C289.191 48.9928 279.623 54.8995 277.06 57.608C274.498 60.3165 275.635 60.7063 275.529 63.4648Z" fill="#894E2E"/>
<path d="M519.956 40.8274C519.956 40.0222 520.318 39.235 520.996 38.5651C521.674 37.8951 522.637 37.3725 523.765 37.063C524.893 36.7535 526.135 36.671 527.333 36.8259C528.532 36.9809 529.635 37.3663 530.502 37.9336C531.369 38.5008 531.962 39.2246 532.205 40.0136C532.449 40.8027 532.333 41.6216 531.872 42.3672C531.411 43.1128 530.625 43.7517 529.613 44.2034C528.602 44.655 527.41 44.8992 526.189 44.9051C525.372 44.9091 524.563 44.8065 523.807 44.6034C523.051 44.4002 522.364 44.1005 521.784 43.7214C521.205 43.3424 520.745 42.8915 520.431 42.3948C520.118 41.8981 519.956 41.3654 519.956 40.8274Z" fill="#894E2E"/>
<path d="M59.7156 40.8273C59.7186 40.0232 60.0831 39.2377 60.7631 38.5701C61.443 37.9025 62.408 37.3827 63.536 37.0763C64.664 36.77 65.9044 36.6908 67.1006 36.8489C68.2968 37.007 69.3951 37.3952 70.2567 37.9645C71.1183 38.5338 71.7046 39.2586 71.9415 40.0474C72.1784 40.8362 72.0553 41.6535 71.5878 42.3962C71.1202 43.1389 70.3291 43.7736 69.3145 44.2202C68.2999 44.6667 67.1073 44.905 65.8873 44.905C65.0755 44.905 64.2718 44.7995 63.522 44.5944C62.7722 44.3894 62.0912 44.0889 61.5179 43.7101C60.9446 43.3313 60.4903 42.8817 60.181 42.387C59.8717 41.8923 59.7136 41.3623 59.7156 40.8273Z" fill="#894E2E"/>
</g>
<defs>
<clipPath id="clip0_40_23">
<rect width="592" height="72" fill="white"/>
</clipPath>
</defs>
</svg>
