<svg width="592" height="72" viewBox="0 0 592 72" fill="none" xmlns="http://www.w3.org/2000/svg">
<g clip-path="url(#clip0_40_9)">
<path d="M532.254 31.8223C531.801 32.8496 531.026 33.803 529.98 34.6208C528.759 35.5807 527.196 36.326 525.43 36.7896C523.055 37.4277 520.467 37.6448 517.924 37.4192C514.793 37.1871 511.834 36.3529 509.417 35.0206C506.686 33.4463 504.768 31.3502 503.928 29.0239C503.483 27.7324 503.204 26.4185 503.094 25.0961C502.995 23.7104 503.262 22.3239 503.882 20.9983C505.275 18.1131 508.087 15.6161 511.874 13.9023C516.005 11.9981 520.891 10.9316 525.931 10.834C531.311 10.7064 536.593 11.808 540.882 13.9523C545.356 16.3244 548.616 19.5444 550.223 23.1771C552.077 26.9158 551.943 30.9589 549.844 34.6408C547.492 38.4529 543.646 41.7848 538.699 44.2954C536.205 45.5972 533.54 46.7511 530.738 47.7435C530.025 47.9933 529.312 48.2532 528.584 48.4831L527.553 48.8129L526.401 49.1227L524.081 49.7424L521.776 50.2921C509.115 53.1679 495.714 54.3569 482.35 53.7901C468.966 53.2304 455.767 51.4408 443.136 48.4731C436.941 47.0391 430.866 45.3877 424.939 43.5258C419.055 41.6968 413.43 39.618 407.804 37.6091C396.613 33.6113 385.74 29.6835 374.959 26.5453C369.727 25.0016 364.371 23.647 358.915 22.4875C353.783 21.366 348.511 20.5433 343.16 20.0289C340.582 19.799 338.065 19.6491 335.578 19.5791C334.986 19.5791 334.304 19.5791 333.713 19.5791H331.908C330.665 19.5791 329.436 19.6391 328.254 19.729C323.735 20.0071 319.329 20.8161 315.243 22.1177C311.683 23.2849 308.468 24.8622 305.75 26.7751C303.472 28.3873 301.552 30.2044 300.049 32.1721C297.981 34.9189 296.677 37.8875 296.197 40.9373C296.045 41.9867 296 42.7962 296 43.3359V44.1655C296 44.1655 296 43.8856 296 43.3459C296 42.8062 296.152 41.9967 296.379 40.9573C297.074 37.9722 298.568 35.0924 300.792 32.452C304.193 28.3638 309.513 25.1128 315.956 23.1871C319.889 22.0647 324.095 21.4148 328.375 21.2682C329.512 21.2082 330.65 21.2682 331.787 21.2182L333.576 21.2782C334.198 21.2782 334.714 21.2782 335.35 21.3581C337.731 21.4881 340.173 21.708 342.644 21.9978C347.775 22.5845 352.841 23.3958 357.808 24.4264C363.161 25.5708 368.415 26.9054 373.548 28.4242C384.163 31.5125 394.975 35.4203 406.181 39.4181C411.761 41.417 417.463 43.5158 423.453 45.4148C429.493 47.3 435.684 48.9681 441.998 50.412C454.956 53.4322 468.493 55.2388 482.213 55.779C495.963 56.3591 509.752 55.1327 522.777 52.171L525.188 51.6013L527.508 50.9717L528.675 50.6619L529.889 50.2721C530.662 50.0322 531.405 49.7624 532.148 49.5025C535.136 48.4399 537.973 47.2023 540.625 45.8046C546.016 43.0822 550.204 39.4589 552.756 35.3104C555.105 31.1922 555.255 26.6693 553.18 22.4875C551.373 18.4826 547.754 14.9366 542.808 12.3232C537.96 9.90249 531.994 8.65657 525.916 8.79512C520.25 8.89196 514.754 10.0879 510.115 12.2332C505.799 14.2062 502.599 17.0676 501.016 20.3687C499.685 23.3603 499.717 26.5437 501.107 29.5236C502.341 32.1477 504.791 34.451 508.113 36.1099C510.919 37.4765 514.273 38.269 517.757 38.3887C520.513 38.5185 523.272 38.1741 525.764 37.3892C527.575 36.7986 529.137 35.9233 530.313 34.8407C531.269 33.9337 531.93 32.906 532.254 31.8223Z" fill="#894E2E"/>
<path d="M59.7914 31.8223C60.0965 32.9018 60.7536 33.9249 61.7172 34.8206C62.8952 35.9022 64.4571 36.7772 66.2664 37.3692C68.7538 38.1532 71.5076 38.4976 74.2578 38.3687C77.7421 38.2489 81.096 37.4565 83.9021 36.0899C87.2517 34.4466 89.7298 32.1488 90.9836 29.5236C92.3444 26.5378 92.3444 23.3544 90.9836 20.3687C89.4013 17.0676 86.2012 14.2062 81.8852 12.2332C77.2645 10.1009 71.7985 8.90577 66.1602 8.7951C60.0863 8.65723 54.1259 9.9032 49.2828 12.3231C44.3279 14.9314 40.7074 18.4793 38.9107 22.4875C36.8289 26.6686 36.9787 31.1931 39.3352 35.3104C41.8853 39.4594 46.074 43.0829 51.4664 45.8045C54.118 47.2022 56.9549 48.4399 59.943 49.5025C60.7012 49.7623 61.4594 50.0322 62.2025 50.2721L63.4307 50.6618L64.5832 50.9717L66.9033 51.6013L69.3295 52.171C82.3543 55.1334 96.1427 56.3599 109.893 55.779C123.56 55.2124 137.04 53.3891 149.941 50.362C156.257 48.9217 162.448 47.2534 168.486 45.3648C174.552 43.5058 180.178 41.367 185.773 39.3681C196.964 35.3703 207.761 31.4625 218.391 28.3742C223.524 26.8554 228.779 25.5208 234.131 24.3764C239.099 23.347 244.165 22.5356 249.295 21.9478C251.767 21.658 254.208 21.4381 256.604 21.3082C257.226 21.3082 257.757 21.2382 258.363 21.2282L260.152 21.1682C261.305 21.1682 262.427 21.1682 263.564 21.2182C267.849 21.366 272.06 22.0158 275.999 23.1371C282.438 25.0659 287.758 28.316 291.163 32.402C293.38 35.0443 294.874 37.9234 295.575 40.9073C295.759 41.6988 295.88 42.4961 295.939 43.2959C295.939 43.8356 295.939 44.1155 295.939 44.1155V43.2859C295.939 42.7462 295.939 41.9367 295.742 40.8873C295.262 37.8388 293.963 34.8709 291.906 32.1221C290.396 30.1542 288.472 28.3372 286.189 26.7251C283.471 24.8122 280.256 23.2349 276.696 22.0677C272.611 20.7661 268.204 19.9571 263.686 19.6791C262.503 19.5891 261.275 19.5691 260.046 19.5291H258.242C257.65 19.5291 256.953 19.5291 256.361 19.5291C253.89 19.5991 251.357 19.749 248.78 19.9789C243.45 20.4935 238.199 21.3128 233.085 22.4275C227.629 23.5871 222.273 24.9417 217.041 26.4853C206.26 29.6235 195.387 33.4814 184.196 37.5491C178.586 39.548 172.945 41.6369 167.061 43.4658C161.136 45.3311 155.062 46.9827 148.864 48.4131C136.233 51.3808 123.034 53.1704 109.65 53.7301C96.2865 54.2964 82.8851 53.1074 70.2242 50.2321L67.9344 49.6824L65.6143 49.0627L64.4619 48.7529L63.4307 48.4231C62.7029 48.1932 61.9902 47.9334 61.2775 47.6835C58.4471 46.6851 55.762 45.5176 53.2557 44.1954C48.3085 41.6848 44.4621 38.3529 42.1102 34.5408C40.0067 30.8601 39.8676 26.8169 41.716 23.0772C43.3282 19.4434 46.594 16.2234 51.0721 13.8523C55.3605 11.7065 60.6432 10.6048 66.0238 10.734C71.0622 10.8351 75.9468 11.9013 80.0807 13.8023C83.8637 15.5166 86.6707 18.0138 88.057 20.8984C88.6825 22.2234 88.9544 23.6098 88.8607 24.9961C88.7755 26.3512 88.5117 27.6989 88.0721 29.0239C87.2382 31.3517 85.3184 33.4489 82.5828 35.0205C80.1884 36.346 77.2573 37.1799 74.1516 37.4192C71.6141 37.6449 69.0311 37.4278 66.6607 36.7896C64.8943 36.3271 63.3308 35.5817 62.1115 34.6208C61.0353 33.8117 60.2431 32.8562 59.7914 31.8223Z" fill="#894E2E"/>
<path d="M592 26.4053C590.479 30.1778 587.969 33.7462 584.585 36.9494C583.751 37.759 582.902 38.5385 582.007 39.3081C581.112 40.0777 580.187 40.8273 579.232 41.5569C578.277 42.2865 577.276 42.9961 576.199 43.6957C575.123 44.3953 574.137 45.0749 573.075 45.6946C568.841 48.3407 564.195 50.6857 559.216 52.6907C556.759 53.6901 554.318 54.6896 551.74 55.5491C550.451 55.9789 549.147 56.3686 547.827 56.7384C546.508 57.1082 545.159 57.4281 543.809 57.7379H543.718H543.566C540.895 58.4845 538.155 59.1187 535.363 59.6368C532.527 60.1765 529.646 60.6363 526.75 61.036C520.931 61.824 515.039 62.3582 509.114 62.6352C497.23 63.1936 485.289 62.9156 473.494 61.8056C467.595 61.2259 461.727 60.5163 455.919 59.6068C450.111 58.6973 444.364 57.608 438.693 56.3786L434.447 55.4392L430.246 54.4397C427.426 53.7801 424.666 53.0205 421.906 52.2609C416.386 50.7618 410.958 49.0827 405.62 47.3237C400.282 45.5646 394.687 43.7756 389.046 42.2565C383.387 40.7191 377.606 39.3845 371.729 38.2587C365.842 37.1235 359.85 36.2422 353.79 35.6202C347.709 35.0005 341.564 34.6897 335.411 34.6907C329.231 34.6904 323.064 35.0617 316.987 35.8001C310.87 36.4511 304.917 37.6481 299.291 39.3581C293.689 41.077 288.428 43.2419 283.626 45.8045C281.265 47.0748 279.083 48.483 277.106 50.0122C276.138 50.7959 275.256 51.6242 274.467 52.4908C273.604 53.327 273.034 54.2796 272.799 55.2792C273.212 54.3255 273.942 53.4445 274.937 52.7007C275.869 51.9407 276.883 51.226 277.97 50.5619C280.155 49.2289 282.509 48.0218 285.006 46.9539C289.973 44.827 295.321 43.1148 300.928 41.8567C306.482 40.575 312.161 39.5432 317.927 38.7684C323.735 38.0655 329.627 37.7109 335.532 37.709C341.452 37.7096 347.364 38.0103 353.214 38.6085C359.079 39.2085 364.879 40.0598 370.576 41.1571C376.289 42.2572 381.907 43.5583 387.408 45.0549C392.958 46.5441 398.266 48.2432 403.679 50.0521C409.093 51.8611 414.627 53.5502 420.268 55.0494C423.074 55.8189 425.894 56.5885 428.76 57.2681L433.052 58.2676L437.373 59.267C443.166 60.5463 449.05 61.6157 454.979 62.5552C460.908 63.4947 466.928 64.2243 472.963 64.8139C485.065 65.95 497.314 66.2415 509.508 65.6835C515.623 65.3879 521.702 64.827 527.705 64.0044C530.738 63.6046 533.725 63.1216 536.667 62.5552C539.683 61.9953 542.641 61.3076 545.523 60.4963L545.28 60.5563C546.796 60.2265 548.191 59.8767 549.617 59.4869C551.042 59.0971 552.422 58.6674 553.802 58.2176C556.571 57.3516 559.238 56.3493 561.778 55.2193C563.037 54.6496 564.25 54.0299 565.433 53.4003C566.616 52.7706 567.798 52.121 568.936 51.4514C571.209 50.1244 573.371 48.7164 575.411 47.2337C576.427 46.4941 577.427 45.7345 578.443 44.965C579.459 44.1954 580.324 43.3958 581.218 42.5863C582.113 41.7767 582.947 40.9572 583.751 40.1177C584.555 39.2781 585.343 38.4186 586.071 37.5491C589.052 34.1009 591.061 30.3254 592 26.4053Z" fill="#894E2E"/>
<path d="M591.045 29.0238C589.488 33.07 587.014 36.9381 583.705 40.4975C580.489 44.0587 576.757 47.4058 572.56 50.4919C571.514 51.2615 570.452 52.0211 569.345 52.7607C568.238 53.5002 567.131 54.2099 565.964 54.9095C564.796 55.6091 563.628 56.2787 562.43 56.9084C561.232 57.538 559.989 58.1776 558.746 58.7973C557.502 59.417 556.228 60.0066 555 60.6063C553.772 61.206 552.392 61.7157 551.057 62.2354C549.723 62.7551 548.328 63.1849 546.933 63.6146L544.81 64.2043L542.657 64.724H542.566H542.475C539.81 65.4836 537.075 66.1312 534.286 66.6629C531.466 67.216 528.61 67.6857 525.718 68.0721C519.942 68.865 514.09 69.3992 508.204 69.6713C496.393 70.2199 484.525 69.9216 472.811 68.7818C466.958 68.2221 461.135 67.4725 455.373 66.573C449.611 65.6735 443.909 64.5741 438.298 63.3348L434.083 62.4053L429.913 61.4059C427.123 60.7462 424.393 59.9866 421.648 59.2471C416.174 57.7379 410.791 56.0888 405.484 54.3398C400.176 52.5907 394.748 50.8117 389.243 49.2426C383.739 47.6735 378.128 46.2443 372.441 44.945C361.05 42.3231 349.242 40.566 337.246 39.7079C331.2 39.3077 325.115 39.2242 319.049 39.458C312.976 39.624 306.958 40.2957 301.141 41.4569C295.334 42.6368 289.807 44.3457 284.718 46.5341C282.19 47.629 279.846 48.8988 277.727 50.322C275.558 51.7094 273.853 53.3811 272.723 55.2293C274.063 53.4769 275.943 51.928 278.243 50.6818C280.474 49.4099 282.892 48.2883 285.461 47.3337C290.606 45.4476 296.13 44.0511 301.868 43.186C307.579 42.2871 313.391 41.6955 319.246 41.417C325.126 41.1954 331.022 41.279 336.882 41.6668C348.644 42.5135 360.222 44.2369 371.395 46.804C377.006 48.0633 382.53 49.4791 387.969 51.0516C393.413 52.6007 398.705 54.3198 404.058 56.0488C409.411 57.7779 414.87 59.4969 420.42 61.0461C423.195 61.8056 425.955 62.5752 428.791 63.2348L433.006 64.2343L437.282 65.2337C442.969 66.503 448.762 67.5624 454.6 68.5119C460.438 69.4614 466.367 70.191 472.326 70.7607C484.254 71.9352 496.339 72.2568 508.371 71.7201C514.394 71.439 520.383 70.8914 526.295 70.081C529.252 69.6713 532.193 69.1915 535.105 68.6218C538.054 68.0696 540.941 67.3851 543.748 66.573H543.582L545.886 66.0133L548.146 65.3836C549.662 64.9339 551.073 64.4442 552.498 63.9245C553.923 63.4047 555.303 62.8451 556.668 62.2554C558.033 61.6657 559.337 61.0461 560.611 60.3764C565.602 57.704 570.146 54.6886 574.167 51.3814C578.191 48.0952 581.715 44.5569 584.691 40.8173C585.434 39.8778 586.132 38.9383 586.784 37.9789C587.436 37.0194 588.027 36.0399 588.573 35.0505C589.684 33.0976 590.512 31.0797 591.045 29.0238Z" fill="#894E2E"/>
<path d="M0 26.4053C0.951031 30.3232 2.97005 34.0952 5.95943 37.5391C6.68729 38.4087 7.47582 39.2682 8.26434 40.1077C9.05287 40.9473 9.93238 41.7668 10.8119 42.5763C11.6914 43.3859 12.6164 44.1855 13.6475 44.955C14.6787 45.7246 15.6037 46.4842 16.6803 47.2238C18.7275 48.7029 20.8959 50.1122 23.1553 51.4514C24.2926 52.1111 25.4602 52.7707 26.6582 53.3903C27.8561 54.01 29.0541 54.6396 30.3279 55.2093C32.8634 56.3393 35.5246 57.3416 38.2889 58.2077C39.6689 58.6574 41.0639 59.0772 42.4893 59.477C43.9148 59.8767 45.3553 60.2165 46.8111 60.5464L46.5684 60.4864C49.4551 61.2978 52.4182 61.9855 55.4393 62.5453C58.3104 63.1316 61.2522 63.618 64.2648 64.0044C70.2679 64.8244 76.3467 65.3819 82.4615 65.6735C94.6702 66.2377 106.935 65.9496 119.052 64.814C125.118 64.2243 131.183 63.4947 137.052 62.5552C142.92 61.6158 148.864 60.5564 154.642 59.2671L158.979 58.2676L163.27 57.2682C166.136 56.5886 168.941 55.819 171.762 55.0494C177.388 53.5203 182.907 51.8112 188.351 50.0522C193.795 48.2932 199.072 46.5641 204.607 45.055C210.112 43.5568 215.736 42.2556 221.454 41.1571C227.151 40.0598 232.951 39.2085 238.817 38.6086C244.667 38.0096 250.578 37.7088 256.498 37.7091C262.398 37.7109 268.285 38.0655 274.088 38.7685C279.875 39.5388 285.575 40.5707 291.148 41.8567C296.758 43.1168 302.111 44.8289 307.085 46.9539C309.582 48.0219 311.936 49.229 314.121 50.5619C315.201 51.2311 316.214 51.9455 317.154 52.7007C318.139 53.4476 318.864 54.3278 319.277 55.2793C319.047 54.2803 318.483 53.3276 317.624 52.4908C316.805 51.6226 315.893 50.7942 314.894 50.0122C312.894 48.4774 310.686 47.0657 308.298 45.7946C303.506 43.241 298.255 41.086 292.664 39.3781C287.032 37.6683 281.074 36.4713 274.952 35.8201C268.88 35.0824 262.718 34.711 256.543 34.7107C250.39 34.7094 244.246 35.0202 238.165 35.6402C232.1 36.2622 226.102 37.1436 220.211 38.2787C214.337 39.403 208.561 40.7376 202.909 42.2765C197.268 43.7957 191.702 45.5647 186.334 47.3437C180.966 49.1227 175.568 50.7818 170.033 52.281C167.273 53.0405 164.514 53.8001 161.708 54.4597L157.493 55.4592L153.247 56.3987C147.591 57.648 141.828 58.6974 136.02 59.6269C130.213 60.5564 124.344 61.276 118.445 61.8556C106.645 62.9654 94.6997 63.2435 82.8102 62.6852C76.8947 62.4085 71.0135 61.8743 65.2049 61.0861C62.2934 60.6963 59.4123 60.2265 56.5918 59.6868C53.7942 59.1687 51.0491 58.5345 48.373 57.7879H48.2365H48.1455C46.7807 57.4781 45.4463 57.1483 44.127 56.7885C42.8078 56.4287 41.4885 56.0289 40.1996 55.5991C37.6369 54.7396 35.1803 53.7401 32.7238 52.7407C27.7493 50.7307 23.1046 48.3861 18.8639 45.7446C17.8025 45.085 16.7713 44.4053 15.8311 43.7457C14.891 43.0861 13.8295 42.3365 12.7984 41.6069C11.7672 40.8773 10.9029 40.1277 10.0082 39.3581C9.11352 38.5886 8.24918 37.759 7.43033 36.9595C4.04365 33.752 1.52939 30.1808 0 26.4053Z" fill="#894E2E"/>
<path d="M0.97049 29.0238C1.50802 31.0682 2.33036 33.0756 3.42705 35.0205C3.97295 36.02 4.54918 37.0194 5.21639 38.0189C5.88361 39.0183 6.58115 39.9178 7.30901 40.8573C10.3139 44.5992 13.8693 48.1376 17.9238 51.4214C21.9409 54.731 26.4859 57.7466 31.4803 60.4164C32.7389 61.086 34.0582 61.7057 35.4078 62.2954C36.7574 62.885 38.0918 63.4447 39.502 64.0044C40.9123 64.5641 42.459 65.0039 43.8693 65.4336L46.1287 66.0633L48.4336 66.623H48.2668C51.0747 67.4196 53.9627 68.0875 56.9102 68.6218C59.8066 69.1915 62.7484 69.6213 65.7053 70.071C71.6109 70.8889 77.5944 71.4399 83.6139 71.7201C95.638 72.271 107.717 71.9694 119.643 70.8206C125.598 70.241 131.502 69.4914 137.355 68.5719C143.193 67.6224 148.986 66.573 154.672 65.2937L158.948 64.2943L163.164 63.2948C166 62.6352 168.759 61.8656 171.534 61.106C177.069 59.5869 182.513 57.9178 187.881 56.1088L195.903 53.5102C198.572 52.6407 201.286 51.8811 203.97 51.0716C206.654 50.262 209.444 49.5624 212.189 48.8228C214.934 48.0833 217.709 47.4236 220.529 46.824C226.125 45.5447 231.826 44.5052 237.573 43.5858C243.329 42.7222 249.157 42.0815 255.027 41.6668C260.887 41.2856 266.784 41.2088 272.663 41.437C278.508 41.7238 284.309 42.3187 290.01 43.216C295.739 44.0971 301.251 45.5033 306.387 47.3936C308.962 48.3481 311.385 49.4697 313.621 50.7418C315.914 51.9891 317.829 53.5119 319.261 55.2293C318.042 53.411 316.307 51.7625 314.151 50.372C312.024 48.9569 309.676 47.6939 307.146 46.6041C302.07 44.4034 296.552 42.681 290.753 41.4869C284.934 40.3289 278.918 39.6573 272.845 39.488C266.78 39.2421 260.694 39.3189 254.648 39.7179C248.65 40.1582 242.696 40.8256 236.815 41.7168C230.962 42.6563 225.154 43.7157 219.483 45.015C216.617 45.6146 213.842 46.3742 211.006 47.0139C208.171 47.6535 205.441 48.503 202.681 49.2826C199.921 50.0622 197.161 50.9017 194.493 51.7612L186.516 54.3698C181.209 56.1188 175.902 57.7779 170.367 59.277C167.622 60.0266 164.893 60.7762 162.102 61.4358L157.932 62.4353L153.717 63.3748C148.106 64.6241 142.389 65.6735 136.642 66.603C130.895 67.5325 125.072 68.272 119.219 68.8417C107.509 69.9732 95.6475 70.268 83.8414 69.7212C77.9552 69.4492 72.1038 68.915 66.3271 68.1221C63.4459 67.7323 60.5799 67.2626 57.7594 66.7029C54.9687 66.179 52.2332 65.5347 49.5709 64.774H49.4799L47.3115 64.2543L45.1885 63.6646C43.7934 63.2348 42.4135 62.7751 41.0639 62.2854C39.7143 61.7956 38.4254 61.226 37.1365 60.6563C35.8475 60.0866 34.5889 59.4869 33.3303 58.8773C32.0717 58.2676 30.8586 57.6479 29.6455 56.9883C28.4324 56.3287 27.2648 55.6591 26.1123 54.9894C24.9598 54.3198 23.8377 53.5802 22.7459 52.8406C21.6541 52.101 20.5775 51.3414 19.5311 50.5719C15.3295 47.486 11.5918 44.1389 8.37049 40.5774C5.02898 36.9959 2.53376 33.1001 0.97049 29.0238Z" fill="#894E2E"/>
<path d="M301.247 8.51527C301.247 13.5125 296 26.4053 296 26.4053C296 26.4053 290.768 13.4126 290.768 8.51527C290.768 3.61799 292.664 3.68796 296 0.0399818C299.291 3.68796 301.247 3.56802 301.247 8.51527Z" fill="#894E2E"/>
<path d="M316.471 8.53521C316.365 11.2937 317.502 11.6635 314.955 14.372C312.407 17.0805 302.824 22.9872 302.824 22.9872C302.824 22.9872 306.66 14.7218 309.223 11.9933C311.786 9.26481 312.771 9.8145 316.471 8.53521Z" fill="#894E2E"/>
<path d="M275.529 8.53524C279.229 9.81453 280.23 9.31481 282.792 12.0133C285.355 14.7118 289.191 23.0072 289.191 23.0072C289.191 23.0072 279.623 17.1005 277.06 14.392C274.498 11.6835 275.635 11.2937 275.529 8.53524Z" fill="#894E2E"/>
<path d="M519.956 31.1727C519.956 31.9779 520.318 32.7651 520.996 33.435C521.674 34.1049 522.637 34.6276 523.765 34.9371C524.893 35.2466 526.135 35.329 527.333 35.1741C528.532 35.0192 529.635 34.6338 530.502 34.0665C531.369 33.4992 531.962 32.7754 532.205 31.9864C532.449 31.1974 532.333 30.3785 531.872 29.6329C531.411 28.8872 530.625 28.2483 529.613 27.7967C528.602 27.345 527.41 27.1009 526.189 27.0949C525.372 27.091 524.563 27.1935 523.807 27.3967C523.051 27.5998 522.364 27.8996 521.784 28.2786C521.205 28.6577 520.745 29.1085 520.431 29.6052C520.118 30.1019 519.956 30.6347 519.956 31.1727Z" fill="#894E2E"/>
<path d="M59.7156 31.1727C59.7186 31.9768 60.0831 32.7622 60.7631 33.4298C61.443 34.0975 62.408 34.6173 63.536 34.9236C64.664 35.23 65.9044 35.3091 67.1006 35.151C68.2968 34.9929 69.3951 34.6047 70.2567 34.0355C71.1183 33.4662 71.7046 32.7414 71.9415 31.9526C72.1784 31.1638 72.0553 30.3464 71.5878 29.6037C71.1202 28.861 70.3291 28.2263 69.3145 27.7798C68.2999 27.3332 67.1073 27.0949 65.8873 27.0949C65.0755 27.0949 64.2718 27.2005 63.522 27.4055C62.7722 27.6106 62.0912 27.9111 61.5179 28.2899C60.9446 28.6687 60.4903 29.1183 60.181 29.6129C59.8717 30.1076 59.7136 30.6376 59.7156 31.1727Z" fill="#894E2E"/>
</g>
<defs>
<clipPath id="clip0_40_9">
<rect width="592" height="72" fill="white" transform="matrix(1 0 0 -1 0 72)"/>
</clipPath>
</defs>
</svg>
