<svg width="76" height="61" viewBox="0 0 76 61" fill="none" xmlns="http://www.w3.org/2000/svg">
<g clip-path="url(#clip0_71_497)">
<path d="M58.3163 47.8108C60.224 48.1151 61.0365 50.8231 59.1031 51.731C57.2828 52.5821 55.8893 50.5343 55.8481 48.9043C55.8481 48.1035 56.034 47.3138 56.391 46.5975C56.748 45.8813 57.2663 45.2583 57.905 44.7778C58.6419 44.2417 59.5305 43.9561 60.4408 43.9626C61.3511 43.9691 62.2355 44.2674 62.9648 44.8139C63.7742 45.3629 64.4305 46.1102 64.8714 46.9849C65.3124 47.8596 65.5234 48.8328 65.4844 49.8121C65.3835 50.7736 65.0686 51.7001 64.5631 52.5232C64.0576 53.3463 63.3743 54.0451 62.5637 54.5679C58.6557 57.1831 54.0741 54.9238 51.0146 52.0662C47.5385 48.8218 45.1474 44.5251 41.1263 41.9099C39.1348 40.623 36.9079 39.7463 34.5753 39.3308C32.246 38.9182 29.6903 38.8614 27.4381 39.6919C25.788 40.3461 24.3755 41.4884 23.3881 42.9672C22.4007 44.4459 21.8853 46.1911 21.9104 47.9707C21.8819 49.8006 22.4933 51.5827 23.6384 53.0074C24.7834 54.4321 26.3899 55.4095 28.1786 55.7698C29.0775 55.9912 30.0153 56.0012 30.9187 55.799C31.8222 55.5967 32.6668 55.1878 33.3866 54.604C34.1064 54.0203 34.682 53.2775 35.0684 52.4338C35.4548 51.59 35.6415 50.668 35.614 49.7399C35.5924 48.7644 35.2895 47.8161 34.742 47.0097C34.1945 46.2032 33.4257 45.5731 32.5288 45.1956C31.5804 44.7964 30.5345 44.6917 29.5262 44.8949C28.5179 45.0981 27.5935 45.5999 26.8725 46.3356C26.1886 47.0389 25.7179 47.9225 25.515 48.8837C25.4971 48.9907 25.5193 49.1005 25.5775 49.1919C25.6356 49.2834 25.7255 49.35 25.8297 49.3789C25.9339 49.4077 26.0451 49.3968 26.1418 49.3482C26.2385 49.2996 26.3138 49.2168 26.3531 49.1158C26.6352 48.1297 27.2818 47.2886 28.1609 46.7643C29.04 46.24 30.0854 46.0719 31.0839 46.2943C31.9776 46.4852 32.7747 46.9882 33.3331 47.7137C33.8916 48.4393 34.1751 49.3401 34.1331 50.2557C34.1005 51.1224 33.847 51.9661 33.3969 52.7066C32.9469 53.447 32.3151 54.0595 31.5621 54.4854C29.7109 55.4654 27.4484 55.0889 25.7309 54.0109C22.3269 51.8857 21.7098 47.3723 23.4993 43.968C25.7155 39.7486 31.053 39.4959 35.1564 40.5894C37.5202 41.2192 39.7189 42.358 41.5994 43.9267C43.4154 45.5522 45.0719 47.3485 46.5461 49.2912C49.4257 52.8039 52.876 56.5125 57.6376 57.0284C61.7512 57.5029 66.0809 54.702 66.7082 50.4621C67.2944 46.449 63.659 42.2968 59.5453 42.7713C56.0332 43.1582 53.5085 47.3105 54.83 50.622C55.5859 52.5202 57.5347 53.8252 59.535 52.9586C59.9736 52.7784 60.365 52.4992 60.6787 52.1428C60.9924 51.7863 61.22 51.3621 61.3438 50.9031C61.4677 50.4442 61.4844 49.9627 61.3928 49.4962C61.3011 49.0297 61.1035 48.5907 60.8154 48.2131C60.5272 47.8584 60.1643 47.5721 59.7526 47.375C59.3409 47.1779 58.8908 47.0748 58.4346 47.0732C58.0284 47.0732 57.9204 47.7437 58.3369 47.8108H58.3163Z" fill="#73463B"/>
<path d="M58.1004 47.6871C58.1482 47.8079 58.1697 47.9376 58.1635 48.0675C58.1573 48.1974 58.1235 48.3244 58.0644 48.4401C57.9306 48.6904 57.7169 48.8884 57.4576 49.0024L57.3599 49.0436C57.4319 49.0127 57.3034 49.0436 57.2879 49.0436C57.1921 49.0749 57.0942 49.099 56.9948 49.1159C57.0565 49.1159 56.9023 49.1159 56.9074 49.1159H56.7583C56.6659 49.1236 56.573 49.1236 56.4806 49.1159C56.0963 49.1014 55.718 49.0157 55.3648 48.8631C55.2782 48.831 55.1824 48.8346 55.0985 48.8733C55.0146 48.912 54.9495 48.9826 54.9174 49.0694C54.8854 49.1563 54.8891 49.2524 54.9276 49.3365C54.9662 49.4207 55.0365 49.486 55.1231 49.5182C55.987 50.034 57.144 50.3074 57.9924 49.6162C58.3101 49.3681 58.5348 49.0196 58.63 48.6272C58.7252 48.2349 58.6853 47.8217 58.5169 47.4549C58.4847 47.3997 58.432 47.3595 58.3704 47.3431C58.3087 47.3267 58.2431 47.3353 58.1878 47.3673C58.1338 47.4005 58.0945 47.4533 58.0783 47.5148C58.062 47.5762 58.0699 47.6416 58.1004 47.6974V47.6871Z" fill="#73463B"/>
<path d="M26.0755 49.4511C26.8719 49.1669 27.7474 49.2058 28.5157 49.5593C29.284 49.9129 29.8844 50.5532 30.1892 51.3441C30.3273 51.7104 30.3915 52.1004 30.3783 52.4918C30.365 52.8831 30.2746 53.268 30.112 53.624C29.7727 54.31 29.1248 55.0064 28.302 54.8929C27.9472 54.8465 27.7878 55.3777 28.1478 55.4448C29.8858 55.7646 31.3101 54.3049 31.449 52.6491C31.5102 51.7685 31.2706 50.8933 30.7696 50.1675C30.2686 49.4418 29.5361 48.909 28.6928 48.6567C28.2151 48.5306 27.7183 48.4939 27.2273 48.5484C26.7528 48.6169 26.2935 48.7669 25.8698 48.992C25.6127 49.1106 25.7978 49.5594 26.0601 49.4511H26.0755Z" fill="#73463B"/>
<path d="M26.9342 40.1457C22.2755 41.7448 21.0517 47.2691 18.1927 50.7096C15.4448 53.9348 11.7246 56.1746 7.59487 57.0902C5.25321 57.6063 2.83592 57.678 0.467939 57.3017L0.678766 57.8175C2.13398 55.909 2.65847 53.5517 3.58404 51.375C4.40295 49.3709 5.59487 47.5415 7.09608 45.9847C8.58898 44.4359 10.4842 43.3371 12.5673 42.8125C14.8401 42.2967 17.1951 42.4205 19.5245 42.3998C21.9978 42.3998 24.5432 42.1419 26.6823 40.7853L26.2761 40.2695C24.6357 41.5487 22.5429 42.0078 20.5478 42.3947C18.5415 42.7018 16.5732 43.2205 14.6755 43.9421C12.7792 44.7563 11.0391 45.8961 9.53344 47.3104C8.10594 48.7262 6.84004 50.2971 5.75914 51.994C4.44277 53.9128 3.10583 55.8471 1.24954 57.281C1.21752 57.3006 1.18997 57.3268 1.16869 57.3578C1.14741 57.3888 1.13286 57.4239 1.12601 57.4609C1.11915 57.4979 1.12014 57.536 1.1289 57.5726C1.13766 57.6092 1.15401 57.6435 1.17687 57.6734C1.19973 57.7032 1.22859 57.7279 1.26158 57.7458C1.29457 57.7637 1.33096 57.7745 1.36837 57.7774C1.40578 57.7803 1.44337 57.7752 1.47871 57.7626C1.51405 57.7499 1.54634 57.73 1.57348 57.704C4.80271 55.192 6.49961 51.3234 9.25062 48.3729C10.7109 46.8138 12.4567 45.5512 14.3927 44.6539C16.3349 43.8293 18.3766 43.264 20.4655 42.9724C22.6612 42.5907 24.8568 42.1161 26.6977 40.7905C27.0422 40.5429 26.7388 39.991 26.3583 40.2128C22.1624 42.6474 17.0049 40.7853 12.4747 41.8118C8.20677 42.7764 5.03411 46.2323 3.24466 50.0648C2.11855 52.4891 1.67633 55.2539 0.061718 57.4306C0.0345669 57.4772 0.0184803 57.5294 0.0147114 57.5832C0.0109425 57.637 0.0195885 57.6909 0.0399837 57.7408C0.060379 57.7907 0.0919685 57.8352 0.132303 57.8709C0.172636 57.9065 0.220625 57.9324 0.272537 57.9464C4.44755 58.7201 8.7605 58.0776 12.5313 56.1205C14.4191 55.1645 16.1428 53.9126 17.6374 52.4118C19.2229 50.7177 20.5408 48.7904 21.5453 46.6966C22.836 44.2207 24.2655 41.5075 27.0474 40.5068C27.2788 40.4243 27.1811 40.0529 26.9445 40.1354L26.9342 40.1457Z" fill="#73463B"/>
<path d="M1.43979 57.3947C5.03925 56.4352 8.07822 54.2534 10.6955 51.6072C11.9554 50.3229 13.1637 48.9766 14.5058 47.7696C15.8734 46.5529 17.4098 45.5417 19.0669 44.7676C20.918 43.8907 22.8617 43.1118 24.4352 41.7655L23.921 41.2497C18.5321 46.2686 13.9968 52.6543 7.10637 55.7389C5.26987 56.5696 3.30056 57.0657 1.29068 57.2038C0.77647 57.2399 0.77647 58.0136 1.29068 57.993C8.92153 57.6526 14.619 51.6382 19.5605 46.4801C21.0952 44.8329 22.7119 43.2646 24.4043 41.781C24.7643 41.4767 24.2552 40.9918 23.8901 41.2652C22.4401 42.3948 20.7535 43.0963 19.0926 43.8443C17.4918 44.518 15.9943 45.4158 14.6447 46.511C11.9348 48.7961 9.9088 51.7775 7.11665 53.9748C5.36407 55.3155 3.41878 56.3817 1.34724 57.1367C1.31702 57.1517 1.29296 57.1767 1.27926 57.2076C1.26556 57.2385 1.26307 57.2732 1.27225 57.3057C1.28142 57.3382 1.30167 57.3664 1.32946 57.3855C1.35726 57.4046 1.39084 57.4133 1.42437 57.4101L1.43979 57.3947Z" fill="#73463B"/>
<path d="M26.42 40.2644C25.6797 40.7466 24.8509 41.076 23.9822 41.2334C23.1135 41.3907 22.2223 41.3728 21.3606 41.1807C20.4989 40.9886 19.6839 40.6262 18.9634 40.1146C18.2429 39.603 17.6313 38.9525 17.1643 38.2011C16.1358 36.5041 16.0947 34.4357 16.5061 32.5272C16.9174 30.6187 17.8482 28.9526 19.5913 28.0602C21.6996 26.9925 24.1626 27.5444 26.0755 28.772L26.1989 28.3233C24.7231 28.3233 23.0468 28.6998 22.3166 30.139C21.5864 31.5781 22.512 32.6716 23.1445 33.8992C23.9364 35.4467 22.8565 36.8445 22.872 38.4126C22.8845 39.0759 23.1407 39.7112 23.5915 40.1967C24.0422 40.6822 24.6558 40.9836 25.3145 41.0432C25.2887 40.8317 25.2579 40.6203 25.2322 40.4088C22.4195 41.5023 19.3805 39.3772 18.3264 36.7981C17.2054 34.0282 17.8533 30.6083 20.5529 29.0351C21.2064 28.6442 21.94 28.4076 22.6981 28.3432C23.4563 28.2789 24.2191 28.3885 24.9288 28.6637C25.3145 28.8185 25.4996 28.1737 25.1036 28.0293C22.2035 26.9977 18.8817 28.7617 17.7864 31.5729C17.2351 33.1154 17.2015 34.7964 17.6907 36.3599C18.1799 37.9234 19.1652 39.2836 20.4963 40.2334C21.192 40.7479 22 41.0883 22.8532 41.2265C23.7064 41.3646 24.5802 41.2965 25.4019 41.0278C25.6693 40.9298 25.7464 40.4604 25.4019 40.4036C23.9775 40.1664 23.4582 38.8562 23.7564 37.546C24.0187 36.3958 24.5431 35.2455 24.1163 34.0643C23.7307 33.0327 22.5737 32.0475 22.836 30.8456C23.1805 29.3601 24.8928 28.9423 26.1989 28.7824C26.2504 28.7787 26.2995 28.759 26.3392 28.7259C26.379 28.6929 26.4074 28.6481 26.4204 28.598C26.4335 28.5479 26.4306 28.4949 26.412 28.4466C26.3935 28.3982 26.3603 28.3569 26.3172 28.3284C25.4133 27.7429 24.4008 27.3465 23.3405 27.163C22.2802 26.9796 21.1939 27.0128 20.1467 27.2607C19.1403 27.5104 18.2151 28.0161 17.4603 28.729C16.7055 29.4419 16.1466 30.3378 15.8376 31.3305C15.0792 33.4753 15.1047 35.8206 15.9096 37.9484C16.2915 38.8505 16.8536 39.6646 17.561 40.3405C18.2685 41.0165 19.1064 41.54 20.0233 41.8788C21.1384 42.2488 22.3285 42.3317 23.4839 42.1199C24.6394 41.9081 25.7233 41.4084 26.636 40.6667C26.8622 40.4862 26.636 40.089 26.3994 40.2644H26.42Z" fill="#73463B"/>
<path d="M25.3607 28.179C22.3526 28.1119 20.3163 30.758 19.9255 33.5538C19.6792 35.0502 19.8372 36.5856 20.3832 38.0001C20.6928 38.6759 21.1428 39.2775 21.7031 39.7647C22.2634 40.2519 22.921 40.6133 23.6319 40.8248C24.3428 41.0363 25.0905 41.0929 25.825 40.991C26.5595 40.889 27.2637 40.6307 27.8906 40.2335C28.2146 40.0169 27.9215 39.4959 27.577 39.7177C26.8892 40.1543 26.098 40.3992 25.2846 40.4273C24.4713 40.4554 23.6651 40.2657 22.9491 39.8776C22.2524 39.4447 21.6699 38.8497 21.251 38.1431C20.8321 37.4364 20.5891 36.639 20.5426 35.8182C20.317 34.1572 20.6422 32.468 21.4682 31.0108C21.8683 30.3234 22.4379 29.7508 23.1223 29.3479C23.8066 28.9451 24.5828 28.7255 25.3761 28.7103C25.432 28.6943 25.4812 28.6604 25.5162 28.6139C25.5512 28.5674 25.5701 28.5107 25.5701 28.4524C25.5701 28.3941 25.5512 28.3374 25.5162 28.2908C25.4812 28.2443 25.432 28.2105 25.3761 28.1945L25.3607 28.179Z" fill="#73463B"/>
<path d="M23.5199 42.498C21.6775 45.3637 20.3691 48.541 19.6582 51.8755C19.036 54.9704 19.4371 58.6584 21.9927 60.8145C22.7074 61.4129 23.7358 60.4174 23.0211 59.7829C20.7123 57.7197 20.4501 54.5319 20.8409 51.6021C21.2984 48.4822 22.368 45.4843 23.9878 42.7817C24.1729 42.4774 23.6998 42.1989 23.5096 42.5032L23.5199 42.498Z" fill="#73463B"/>
<path d="M21.8075 41.858C17.3185 40.9399 11.801 39.1448 10.7366 34.0125C10.5772 33.2388 9.44083 33.5792 9.56424 34.3374C9.97046 36.8082 11.6982 38.8147 13.7602 40.1249C16.1512 41.6465 18.964 42.1107 21.7304 42.4151C22.0441 42.446 22.1161 41.8993 21.8075 41.858Z" fill="#73463B"/>
<path d="M31.6392 39.3618C30.106 39.398 28.6106 39.847 27.3096 40.6617C26.6582 41.0672 26.0692 41.5659 25.5613 42.142C24.9888 42.6956 24.6392 43.4409 24.5791 44.2362C24.5791 44.6179 25.1396 44.6076 25.1653 44.2362C25.2995 43.5081 25.6745 42.8466 26.2298 42.3587C26.6911 41.8659 27.2089 41.4296 27.7724 41.0588C28.9296 40.3228 30.2556 39.8966 31.6238 39.8209C31.6786 39.8126 31.7286 39.7849 31.7648 39.7428C31.8009 39.7007 31.8208 39.6469 31.8208 39.5914C31.8208 39.5358 31.8009 39.482 31.7648 39.4399C31.7286 39.3978 31.6786 39.3701 31.6238 39.3618H31.6392Z" fill="#73463B"/>
<path d="M38.977 41.4302C42.8952 43.9371 48.0836 46.8411 52.6395 44.0454C56.131 41.8996 57.1542 36.9891 54.9946 33.5538C52.7269 29.9431 47.7956 28.3957 44.0676 30.7426C43.1889 31.295 42.4518 32.0468 41.9159 32.9374C41.38 33.828 41.0602 34.8324 40.9824 35.8698C40.887 36.8695 41.073 37.8761 41.5193 38.7752C41.9656 39.6742 42.6543 40.4296 43.5072 40.9557C45.3274 41.9873 47.9653 41.3013 48.6184 39.1761C49.3794 36.6951 47.1066 34.4565 44.6847 34.6267C44.595 34.6302 44.5088 34.6623 44.4386 34.7184C44.3683 34.7745 44.3178 34.8516 44.2943 34.9385C44.2707 35.0254 44.2755 35.1175 44.3078 35.2015C44.3401 35.2855 44.3983 35.357 44.4739 35.4056C44.681 35.5563 44.8317 35.7725 44.9016 36.0195C44.9715 36.2664 44.9567 36.5298 44.8595 36.7673C44.757 37.0454 44.5631 37.2802 44.3099 37.433C44.0566 37.5858 43.759 37.6476 43.466 37.6081C41.7023 37.4843 41.4092 35.4004 42.0365 34.0902C42.0504 34.0564 42.0574 34.0201 42.0573 33.9835C42.0571 33.9469 42.0498 33.9107 42.0357 33.8769C42.0217 33.8431 42.0011 33.8125 41.9752 33.7867C41.9493 33.7609 41.9186 33.7405 41.8848 33.7266C41.8511 33.7127 41.8149 33.7056 41.7784 33.7058C41.7419 33.7059 41.7058 33.7132 41.6721 33.7274C41.6385 33.7415 41.6079 33.7621 41.5822 33.7881C41.5565 33.8141 41.5361 33.8449 41.5223 33.8787C41.3031 34.3584 41.1939 34.8813 41.2028 35.4088C41.2117 35.9364 41.3385 36.4553 41.5737 36.9272C41.8034 37.3123 42.1267 37.6326 42.5134 37.8581C42.9001 38.0837 43.3376 38.207 43.7848 38.2167C44.1897 38.2025 44.5802 38.0623 44.9022 37.8156C45.2242 37.5689 45.4618 37.2279 45.5821 36.8399C45.7024 36.4518 45.6994 36.0358 45.5737 35.6494C45.4479 35.2631 45.2055 34.9255 44.8801 34.6834C44.8081 34.9413 44.7413 35.1992 44.6693 35.4623C45.1404 35.4329 45.6125 35.5026 46.0553 35.667C46.498 35.8313 46.9017 36.0866 47.2403 36.4165C47.5765 36.7726 47.8104 37.2133 47.9172 37.6918C48.024 38.1704 47.9998 38.669 47.8471 39.1349C47.2095 40.9505 44.8235 41.1362 43.43 40.1665C41.8874 39.0988 41.3732 37.0407 41.7691 35.2869C41.9695 34.3762 42.3793 33.525 42.9658 32.8014C43.5524 32.0777 44.2995 31.5017 45.1475 31.1192C46.7866 30.3931 48.6343 30.2956 50.3402 30.8452C52.0462 31.3947 53.4919 32.553 54.4032 34.1005C55.2571 35.583 55.5134 37.3369 55.1195 39.0028C54.7256 40.6687 53.7113 42.1204 52.2847 43.0602C50.4233 44.2466 48.0528 44.2982 45.9548 43.8442C43.5791 43.3284 41.4092 42.1266 39.2701 40.9763C39.2404 40.9587 39.2075 40.9471 39.1733 40.9423C39.1391 40.9374 39.1044 40.9394 39.0709 40.948C39.0375 40.9566 39.0061 40.9717 38.9785 40.9925C38.9509 41.0133 38.9277 41.0394 38.9101 41.0692C38.8926 41.099 38.881 41.132 38.8762 41.1662C38.8713 41.2005 38.8733 41.2354 38.8819 41.2689C38.8905 41.3025 38.9055 41.334 38.9263 41.3616C38.947 41.3893 38.973 41.4126 39.0027 41.4302H38.977Z" fill="#73463B"/>
<path d="M46.9009 40.6565C43.2192 41.3734 39.9797 39.0471 36.6887 37.8195C33.6652 36.6899 30.1891 36.2721 27.253 37.8608C25.8344 38.5976 24.7094 39.7988 24.0649 41.2651C23.885 41.6932 24.5071 42.0698 24.6974 41.6314C25.9212 38.8305 29.027 37.5049 31.9323 37.5977C33.6451 37.6688 35.3327 38.037 36.9201 38.6861C38.509 39.2999 40.0054 40.12 41.6303 40.6616C43.3477 41.2342 45.204 41.5127 46.9626 40.9402C47.0008 40.9292 47.0331 40.9035 47.0524 40.8687C47.0717 40.8339 47.0764 40.7928 47.0655 40.7545C47.0546 40.7162 47.0289 40.6838 46.9942 40.6644C46.9595 40.6451 46.9185 40.6404 46.8804 40.6513L46.9009 40.6565Z" fill="#73463B"/>
<path d="M32.0969 49.446C32.3824 50.521 32.3467 51.6564 31.994 52.7111C31.6907 53.6035 31.0942 54.4752 30.1172 54.6661C29.7367 54.7383 29.8961 55.3263 30.2766 55.2489C31.3513 55.0271 31.958 53.9646 32.2974 52.9948C32.6936 51.8283 32.7223 50.5676 32.3797 49.3841C32.3645 49.3527 32.3389 49.3276 32.3072 49.3132C32.2755 49.2988 32.2398 49.2959 32.2063 49.3051C32.1727 49.3143 32.1434 49.3349 32.1234 49.3635C32.1035 49.3921 32.0941 49.4267 32.0969 49.4615V49.446Z" fill="#73463B"/>
<path d="M31.485 47.8571C30.5922 47.2765 29.5605 46.947 28.4974 46.9028C28.053 46.9178 27.6166 47.0268 27.2171 47.2226C26.7866 47.4058 26.4387 47.7419 26.2401 48.1666C26.1527 48.4451 26.5023 48.5947 26.6977 48.4348C26.8931 48.2749 26.9445 48.1511 27.0834 48.0273C27.2229 47.9045 27.3765 47.7989 27.541 47.7127C27.8844 47.5423 28.2589 47.4441 28.6414 47.4238C29.5808 47.4154 30.5042 47.667 31.3102 48.1511C31.5056 48.2491 31.6752 47.9602 31.485 47.8571Z" fill="#73463B"/>
<path d="M50.3616 42.1729C53.1126 40.7493 53.889 37.2882 52.6446 34.5956C52.0657 33.2579 51.0275 32.1728 49.7188 31.5377C48.41 30.9026 46.9176 30.7595 45.5126 31.1345C43.9513 31.556 42.6156 32.572 41.7897 33.9663C41.7023 34.1108 41.9183 34.2242 42.0108 34.0953C42.7832 33.094 43.8432 32.3545 45.0477 31.9763C46.2522 31.5982 47.5433 31.5996 48.7469 31.9805C51.2203 32.7851 52.7886 35.4622 52.5624 38.0103C52.4968 38.8009 52.2467 39.5649 51.8322 40.2406C51.4177 40.9162 50.8505 41.4846 50.1764 41.8995C50.1575 41.9104 50.1409 41.9248 50.1276 41.9421C50.1143 41.9594 50.1045 41.9791 50.0987 42.0002C50.093 42.0213 50.0915 42.0433 50.0942 42.0649C50.097 42.0866 50.1039 42.1075 50.1147 42.1265C50.1255 42.1455 50.14 42.1621 50.1572 42.1755C50.1744 42.1889 50.1941 42.1987 50.2151 42.2044C50.2575 42.2161 50.3028 42.2103 50.341 42.1884L50.3616 42.1729Z" fill="#73463B"/>
<path d="M50.2896 36.7157C50.0067 34.441 47.518 32.9812 45.4149 32.7904C43.1935 32.5892 41.1829 34.6628 41.2241 36.8498C41.2241 36.9251 41.2539 36.9972 41.3069 37.0504C41.3599 37.1036 41.4319 37.1335 41.5069 37.1335C41.5819 37.1335 41.6538 37.1036 41.7069 37.0504C41.7599 36.9972 41.7897 36.9251 41.7897 36.8498C41.8096 36.3881 41.9222 35.9351 42.121 35.5182C42.3197 35.1012 42.6004 34.7288 42.9462 34.4234C43.292 34.1179 43.6957 33.8857 44.1332 33.7407C44.5707 33.5957 45.0329 33.5409 45.492 33.5796C47.338 33.6879 49.6982 34.7711 50.1199 36.7364C50.1199 36.8189 50.2793 36.8034 50.269 36.7364L50.2896 36.7157Z" fill="#73463B"/>
<path d="M44.0111 44.9428C45.9782 47.7505 48.565 50.0647 51.5699 51.7051C54.0587 53.0102 58.2186 54.3822 60.4811 51.9321C60.8 51.5865 60.2909 51.0707 59.9669 51.4163C58.9128 52.4943 57.3033 52.4479 55.9201 52.2055C54.3818 51.9273 52.8932 51.4214 51.5031 50.7045C48.7375 49.2121 46.338 47.1206 44.479 44.5818C44.2733 44.3187 43.8157 44.6695 44.0111 44.9428Z" fill="#73463B"/>
<path d="M62.466 52.4736C63.0673 51.6832 63.4237 50.7329 63.4908 49.7409C63.558 48.7489 63.3328 47.759 62.8435 46.8943C62.3541 46.0297 61.6222 45.3284 60.7386 44.8778C59.8551 44.4272 58.8589 44.2471 57.8741 44.3599C57.3712 44.4152 56.8924 44.6053 56.4879 44.9102C56.0835 45.2152 55.7684 45.6238 55.5756 46.093C55.4265 46.5057 56.0898 46.7791 56.2904 46.3922C57.3188 44.4889 60.0132 45.0924 61.3656 46.2375C62.2115 46.9857 62.7648 48.0111 62.9268 49.1307C63.0888 50.2503 62.849 51.3912 62.2501 52.3498C62.1678 52.4891 62.3735 52.5974 62.466 52.4788V52.4736Z" fill="#73463B"/>
<path d="M40.6996 43.1943C42.9566 45.2242 44.7282 47.7383 45.8828 50.5498C46.8804 53.0309 46.397 56.296 43.9082 57.7248C41.6663 59.0195 38.4628 58.1787 37.7377 55.5223C37.569 54.9604 37.5379 54.366 37.6471 53.7894C37.7563 53.2129 38.0026 52.6714 38.3651 52.2108C38.8337 51.6782 39.4616 51.312 40.1549 51.167C40.8481 51.0219 41.5696 51.1058 42.2114 51.4061C42.5652 51.5587 42.8769 51.7952 43.1196 52.0953C43.3624 52.3954 43.5289 52.7501 43.6049 53.1289C43.6814 53.4889 43.6455 53.8638 43.5019 54.2026C43.3584 54.5413 43.1142 54.8274 42.8027 55.0219C42.4873 55.2188 42.1103 55.2913 41.7447 55.2256C41.379 55.1599 41.0506 54.9605 40.823 54.666C40.6494 54.3725 40.5963 54.0228 40.675 53.6907C40.7537 53.3586 40.9579 53.0702 41.2446 52.8865L40.8179 52.7162C40.9383 53.0563 41.186 53.336 41.5086 53.4959C41.8312 53.6557 42.2031 53.6832 42.5456 53.5725C42.8759 53.4326 43.1409 53.1721 43.2869 52.8436C43.433 52.5151 43.4492 52.1433 43.3323 51.8033C43.2089 51.4422 42.6227 51.6021 42.7564 51.9632C42.8012 52.0548 42.8269 52.1547 42.832 52.2566C42.8372 52.3586 42.8216 52.4605 42.7862 52.5562C42.7508 52.6519 42.6964 52.7395 42.6263 52.8134C42.5562 52.8874 42.4718 52.9463 42.3783 52.9866C42.2848 53.0268 42.1841 53.0476 42.0823 53.0476C41.9805 53.0476 41.8798 53.0269 41.7863 52.9866C41.6928 52.9464 41.6084 52.8875 41.5383 52.8135C41.4681 52.7396 41.4137 52.6521 41.3783 52.5563C41.3656 52.5139 41.3435 52.4749 41.3137 52.4423C41.2838 52.4096 41.247 52.3842 41.2059 52.3678C41.1649 52.3514 41.1207 52.3446 41.0766 52.3478C41.0326 52.3509 40.9898 52.364 40.9515 52.3861C40.6875 52.5636 40.4694 52.8016 40.3154 53.0804C40.1613 53.3593 40.0757 53.671 40.0657 53.9896C40.0556 54.3083 40.1214 54.6247 40.2576 54.9128C40.3937 55.2009 40.5964 55.4522 40.8487 55.6461C42.1908 56.6158 44.0111 55.7389 44.4173 54.2276C44.8801 52.5099 43.7026 50.8954 42.0828 50.4106C41.2741 50.1803 40.415 50.1993 39.6172 50.4651C38.8195 50.731 38.1198 51.2314 37.6092 51.9013C37.1743 52.5271 36.8999 53.2508 36.8103 54.0083C36.7206 54.7658 36.8184 55.5338 37.095 56.2444C37.3684 56.9768 37.8261 57.6258 38.4234 58.1283C39.0208 58.6308 39.7376 58.9698 40.5042 59.1123C41.3024 59.2688 42.1246 59.2531 42.9163 59.0664C43.708 58.8796 44.451 58.526 45.0961 58.0291C45.7479 57.4823 46.2836 56.8097 46.6713 56.0512C47.0591 55.2927 47.2911 54.4639 47.3534 53.6138C47.5694 51.3751 46.4999 49.3686 45.348 47.5375C44.1962 45.7064 42.8387 43.9629 40.9773 42.8952C40.7819 42.7869 40.5556 43.0551 40.7356 43.215L40.6996 43.1943Z" fill="#73463B"/>
<path d="M74.7659 13.0295C74.8687 15.0928 75.0538 17.156 75.0435 19.2193C75.0332 21.2825 75.0435 23.3458 74.9973 25.409C74.9664 28.7309 75.3881 32.553 73.2438 35.3642C72.2951 36.6984 70.8758 37.6204 69.2741 37.9433C68.5628 38.0394 67.8387 37.9472 67.1739 37.6757C66.509 37.4043 65.9266 36.963 65.4844 36.3958C63.5613 33.9096 64.9393 29.5923 68.2714 29.3292C69.8706 29.2054 71.5623 30.3608 71.7423 32.0063C71.7938 32.3926 71.7559 32.7856 71.6316 33.1549C71.5072 33.5242 71.2998 33.8597 71.0253 34.1356C70.7508 34.4114 70.4166 34.6202 70.0487 34.7456C69.6808 34.871 69.2891 34.9097 68.9039 34.8587C68.292 34.771 68.3074 33.7394 68.9039 33.6311C69.7883 33.4712 70.4825 32.4395 69.994 31.5988C69.3975 30.5671 68.0657 30.5672 67.1864 31.181C65.0062 32.6871 65.541 36.3391 68.1789 36.9581C69.5878 37.283 71.0738 36.4423 72.0611 35.5086C72.9901 34.5601 73.6243 33.3613 73.8866 32.0578C74.5139 29.3447 74.2774 26.3839 74.2517 23.6295C74.2517 21.9118 74.2208 20.1942 74.2517 18.4713C74.2774 16.6608 74.4522 14.8607 74.555 13.0605C74.555 13.0317 74.5664 13.0042 74.5867 12.9839C74.6069 12.9636 74.6344 12.9521 74.663 12.9521C74.6917 12.9521 74.7191 12.9636 74.7394 12.9839C74.7596 13.0042 74.771 13.0317 74.771 13.0605L74.7659 13.0295Z" fill="#73463B"/>
<path d="M74.6785 15.5362C74.9229 17.2712 74.7071 19.0403 74.0525 20.6649C73.398 22.2896 72.328 23.7124 70.9504 24.7898C68.2868 26.8222 64.348 27.1368 61.6021 25.0632C59.0311 23.1135 57.8998 19.4925 59.715 16.6452C61.4273 13.9578 65.5307 12.9055 67.9423 15.3608C68.5899 16.0142 69.0325 16.8437 69.2152 17.7466C69.398 18.6496 69.313 19.5865 68.9707 20.4415C68.6095 21.2755 67.9988 21.9762 67.2231 22.4466C66.4474 22.917 65.5451 23.1338 64.6411 23.067C64.0292 23.0155 64.0086 22.0715 64.6411 22.0921C65.3309 22.1057 66.0104 21.9224 66.6003 21.5635C67.1902 21.2046 67.6663 20.6849 67.9732 20.065C68.2481 19.4326 68.3505 18.7383 68.2701 18.0531C68.1897 17.368 67.9293 16.7165 67.5155 16.1655C67.0508 15.5489 66.4297 15.0687 65.7171 14.7747C65.0044 14.4808 64.2262 14.3839 63.4636 14.4942C62.7131 14.6048 62.0009 14.8976 61.3888 15.347C60.7768 15.7965 60.2834 16.3891 59.9515 17.0733C58.594 19.7297 59.8024 23.0206 62.1729 24.6454C64.5434 26.2702 67.7726 25.8988 70.1431 24.3669C73.1307 22.4481 74.1848 18.9457 74.3751 15.5981C74.3751 15.433 74.6476 15.3763 74.6785 15.5568V15.5362Z" fill="#73463B"/>
<path d="M64.1269 22.1282C65.4895 21.0965 65.5358 18.9146 63.9726 18.0481C62.4094 17.1815 60.5326 18.8218 60.1161 20.3331C59.9827 20.8126 59.9597 21.3162 60.0488 21.8058C60.1379 22.2955 60.3367 22.7585 60.6303 23.1598C60.8308 23.428 60.3834 23.7736 60.1726 23.5157C59.8243 23.1053 59.5734 22.621 59.4389 22.0991C59.3044 21.5773 59.2898 21.0317 59.3962 20.5033C59.6261 19.4714 60.2172 18.5564 61.0622 17.9243C61.4598 17.5648 61.948 17.3213 62.4737 17.2204C62.9995 17.1194 63.5428 17.1649 64.0446 17.3517C64.4988 17.5458 64.8946 17.8553 65.1931 18.2497C65.4916 18.6441 65.6824 19.1097 65.7466 19.6007C65.7965 20.1652 65.7072 20.7333 65.4866 21.255C65.266 21.7767 64.9209 22.236 64.4817 22.5924C64.4519 22.6206 64.4164 22.6422 64.3778 22.6559C64.3391 22.6695 64.298 22.6749 64.2571 22.6716C64.2162 22.6683 64.1765 22.6564 64.1404 22.6367C64.1044 22.6171 64.0729 22.59 64.048 22.5574C64.023 22.5247 64.0052 22.4872 63.9956 22.4472C63.986 22.4072 63.9849 22.3656 63.9923 22.3252C63.9998 22.2847 64.0156 22.2463 64.0388 22.2123C64.0619 22.1784 64.092 22.1497 64.1269 22.1282Z" fill="#73463B"/>
<path d="M66.7443 18.0533C66.867 18.2498 66.972 18.4569 67.0579 18.6723C67.1222 18.902 67.1482 19.1407 67.135 19.3789C67.1271 19.8516 67.0203 20.3173 66.8214 20.7458C66.3918 21.603 65.7399 22.3282 64.9342 22.8452C64.672 23.0257 64.42 22.5873 64.6823 22.4119C65.3987 21.9922 65.9995 21.4001 66.4306 20.6891C66.64 20.3085 66.7695 19.889 66.8111 19.4563C66.866 19.0008 66.8095 18.5387 66.6466 18.11C66.6414 18.0533 66.7443 17.9965 66.7443 18.0533Z" fill="#73463B"/>
<path d="M65.7158 16.3669C64.5588 15.1651 62.6717 15.7221 61.4479 16.4804C60.8077 16.8534 60.2977 17.4154 59.9875 18.0897C59.7161 18.7989 59.6156 19.5625 59.6944 20.318C59.6944 20.6069 59.2831 20.5966 59.2522 20.318C59.1399 19.4778 59.2407 18.6226 59.5453 17.8318C59.9468 17.0722 60.5765 16.4587 61.345 16.0781C62.7385 15.2424 64.6308 14.8659 65.7929 16.2895C65.8341 16.3411 65.7672 16.4133 65.721 16.3669H65.7158Z" fill="#73463B"/>
<path d="M71.8555 15.65C72.3951 17.4643 72.2221 19.4169 71.3721 21.1073C70.5216 22.7298 69.121 23.9939 67.423 24.6716C66.5671 25.0378 65.6462 25.2265 64.7157 25.2265C63.7852 25.2265 62.8643 25.0378 62.0084 24.6716C61.166 24.3214 60.4528 23.7174 59.9673 22.9431C59.4819 22.1688 59.2482 21.2624 59.2985 20.349C59.3077 20.281 59.3412 20.2187 59.3927 20.1735C59.4442 20.1284 59.5103 20.1035 59.5787 20.1035C59.6471 20.1035 59.7132 20.1284 59.7648 20.1735C59.8163 20.2187 59.8498 20.281 59.859 20.349C60.1109 24.1403 64.4868 25.2028 67.4538 23.9236C68.9685 23.2387 70.2033 22.0534 70.9519 20.5655C71.7006 19.0776 71.9178 17.3772 71.5675 15.748C71.5264 15.5675 71.7989 15.4901 71.8452 15.6706L71.8555 15.65Z" fill="#73463B"/>
<path d="M70.0609 1.59637e-05C71.3721 -0.0515653 72.2977 1.25344 72.3182 2.50171C72.3491 4.26579 70.9659 5.71006 70.2614 7.21108C69.3924 9.02158 69.0479 11.513 70.899 12.8541C72.3748 13.9218 74.8482 13.3699 75.1875 11.384C75.3572 10.3782 74.8533 9.19696 73.7889 8.94937C72.5342 8.66051 71.732 10.3472 73.0124 10.8888C73.7272 11.188 73.4341 12.364 72.6833 12.0803C72.1837 11.9056 71.7629 11.5574 71.497 11.0986C71.231 10.6398 71.1375 10.1006 71.2333 9.57866C71.3329 9.07693 71.6101 8.62827 72.0136 8.31544C72.4171 8.00261 72.9198 7.8467 73.4289 7.87647C75.5423 8.01574 76.5553 10.4916 75.6915 12.266C74.771 14.1591 72.2051 14.5511 70.5905 13.3647C68.6725 11.9669 68.6314 9.5116 69.4747 7.48962C70.03 6.15366 71.0173 5.03951 71.5315 3.68808C71.9634 2.53266 71.6755 0.526145 70.0712 0.5932C69.7009 0.5932 69.7061 0.0361228 70.0712 0.0206485L70.0609 1.59637e-05Z" fill="#73463B"/>
<path d="M68.9759 10.3625C68.8216 9.25868 69.2793 8.12905 69.4644 7.06132C69.6495 5.99359 69.6495 4.7969 68.801 4.08508C67.9526 3.37326 66.9293 3.80138 66.4511 4.67827C66.3391 4.86783 66.2834 5.08559 66.2907 5.30585C66.298 5.5261 66.3679 5.73968 66.4922 5.92137C66.5405 5.99772 66.605 6.06244 66.681 6.1109C66.7571 6.15936 66.8429 6.19036 66.9323 6.20169C67.0217 6.21303 67.1125 6.20441 67.1982 6.17646C67.2839 6.14851 67.3624 6.10192 67.4281 6.04001C67.968 5.48293 68.8422 6.39076 68.2663 6.87563C68.064 7.04907 67.8255 7.17479 67.5683 7.24352C67.3112 7.31224 67.0419 7.32222 66.7804 7.27273C66.5189 7.22323 66.2718 7.11552 66.0573 6.95753C65.8428 6.79953 65.6663 6.59528 65.541 6.35981C65.3118 5.84634 65.2607 5.27066 65.3958 4.72465C65.531 4.17864 65.8446 3.69378 66.2866 3.34747C66.6873 2.98119 67.206 2.77182 67.748 2.75761C68.2899 2.7434 68.8189 2.92532 69.2381 3.2701C69.6485 3.64587 69.9578 4.11933 70.1376 4.64673C70.3173 5.17413 70.3617 5.73846 70.2665 6.2876C70.1804 6.95459 70.0341 7.61237 69.8295 8.25285C69.6238 8.94919 69.5209 9.69712 69.2638 10.378C69.2175 10.4915 69.0067 10.5327 68.9862 10.378L68.9759 10.3625Z" fill="#73463B"/>
</g>
<defs>
<clipPath id="clip0_71_497">
<rect width="76" height="61" fill="white" transform="matrix(-1 0 0 1 76 0)"/>
</clipPath>
</defs>
</svg>
