<svg width="30" height="24" viewBox="0 0 30 24" fill="none" xmlns="http://www.w3.org/2000/svg">
<g clip-path="url(#clip0_86_577)">
<path d="M2.70457 12.2613C3.60162 12.2613 4.49866 12.2613 5.39034 12.2887C7.53895 12.3307 9.68756 12.3763 11.8362 12.4256C14.4387 12.4859 17.0412 12.5461 19.6464 12.5488C21.8917 12.5488 24.1424 12.5488 26.3903 12.516C27.1343 12.5023 27.8783 12.4886 28.6222 12.4694C28.8478 12.4694 29.0788 12.4694 29.3044 12.4448C29.3501 12.4448 29.5515 12.4283 29.4199 12.4448C29.4521 12.4448 29.487 12.4448 29.5219 12.4448C29.5569 12.4448 29.6106 12.4448 29.6562 12.4448C29.7019 12.4448 29.761 12.4119 29.8174 12.401C29.8174 12.401 29.6562 12.4283 29.6831 12.442C29.7629 12.442 29.8394 12.4097 29.8958 12.3522C29.9522 12.2947 29.9839 12.2167 29.9839 12.1354C29.9839 12.054 29.9522 11.976 29.8958 11.9185C29.8394 11.861 29.7629 11.8287 29.6831 11.8287C29.6455 11.8287 29.2883 11.7712 29.8147 11.8698C29.7583 11.8698 29.7073 11.8342 29.6509 11.826C29.5945 11.8177 29.5622 11.826 29.5193 11.826C29.4763 11.826 29.4548 11.826 29.4226 11.826C29.5354 11.826 29.3474 11.826 29.2937 11.826C29.1943 11.826 29.0922 11.826 28.9928 11.826C28.3429 11.8068 27.6956 11.7931 27.0457 11.7794C24.8971 11.7383 22.7484 11.7301 20.5998 11.7329C17.9946 11.7329 15.3948 11.7685 12.7923 11.8369C10.5363 11.8944 8.28291 11.9382 6.02686 11.982C5.29813 11.9619 4.55864 11.9519 3.80842 11.9519C3.45594 11.9327 3.10271 11.9327 2.75023 11.9519C2.73504 11.9532 2.71976 11.9532 2.70457 11.9519C2.66539 11.9519 2.62782 11.9678 2.60012 11.996C2.57242 12.0243 2.55685 12.0626 2.55685 12.1025C2.55685 12.1424 2.57242 12.1808 2.60012 12.209C2.62782 12.2372 2.66539 12.2531 2.70457 12.2531V12.2613Z" fill="#73463B"/>
<path d="M2.46285 20.3225C3.96419 21.1604 5.70457 21.374 7.39392 21.3877C8.97315 21.3877 10.5873 21.2097 11.8791 20.2021C13.974 18.5592 14.6992 15.7799 16.5389 13.9043C17.0865 13.3393 17.7463 12.9003 18.4741 12.617C19.2019 12.3336 19.9807 12.2123 20.7583 12.2614C21.4932 12.3206 22.2038 12.5568 22.8318 12.9504C23.4597 13.3441 23.9871 13.884 24.3706 14.5259C25.1898 15.9607 25.0824 17.7925 23.8335 18.9233C22.7404 19.9146 21.0967 20.1254 19.9042 19.1972C19.5788 18.9557 19.3136 18.6395 19.1303 18.2741C18.9469 17.9088 18.8504 17.5046 18.8487 17.0943C18.8619 16.7054 18.9664 16.3255 19.1533 15.9863C19.3402 15.6471 19.6042 15.3585 19.923 15.1447C20.2901 14.9129 20.7212 14.8094 21.1512 14.8496C21.5811 14.8899 21.9866 15.0718 22.3061 15.3679C22.6256 15.6639 22.8419 16.058 22.9222 16.4905C23.0025 16.9231 22.9424 17.3705 22.7511 17.7651H23.2077C22.6706 16.919 21.427 16.637 20.6401 17.3215C19.8532 18.0061 19.9364 19.3368 20.7073 19.9803C20.7232 20.0036 20.7442 20.0229 20.7687 20.0366C20.7932 20.0502 20.8205 20.0578 20.8484 20.0589C20.8763 20.0599 20.9041 20.0543 20.9295 20.0426C20.9549 20.0308 20.9773 20.0131 20.9948 19.991C21.0124 19.9689 21.0247 19.9429 21.0307 19.9151C21.0367 19.8874 21.0363 19.8585 21.0295 19.8309C21.0227 19.8033 21.0097 19.7777 20.9916 19.7561C20.9734 19.7345 20.9505 19.7175 20.9248 19.7065C20.7781 19.5816 20.6602 19.4254 20.5792 19.2489C20.4982 19.0724 20.4563 18.88 20.4563 18.6851C20.4563 18.4903 20.4982 18.2979 20.5792 18.1214C20.6602 17.9449 20.7781 17.7887 20.9248 17.6638C21.0697 17.5662 21.2322 17.4988 21.4028 17.4656C21.5733 17.4323 21.7487 17.4337 21.9187 17.4699C22.0888 17.506 22.2501 17.5761 22.3934 17.6761C22.5367 17.7762 22.6592 17.9041 22.7538 18.0526C22.7779 18.0922 22.8115 18.1249 22.8515 18.1476C22.8914 18.1703 22.9364 18.1822 22.9821 18.1822C23.0278 18.1822 23.0728 18.1703 23.1127 18.1476C23.1527 18.1249 23.1863 18.0922 23.2104 18.0526C23.385 17.6849 23.4738 17.2809 23.4696 16.8723C23.4654 16.4638 23.3684 16.0618 23.1863 15.6978C23.0042 15.3339 22.7418 15.0179 22.4198 14.7746C22.0978 14.5314 21.7249 14.3675 21.3304 14.2959C19.7538 14.022 18.427 15.3774 18.3089 16.9245C18.1907 18.4716 19.4557 19.8598 20.8899 20.2103C22.3912 20.5772 23.9866 19.8105 24.8057 18.5236C25.735 17.0504 25.3885 15.0954 24.3868 13.7564C23.9172 13.1102 23.3071 12.5837 22.6044 12.2184C21.9017 11.853 21.1254 11.6587 20.3366 11.6508C19.4878 11.655 18.6492 11.8412 17.8756 12.1974C17.1019 12.5535 16.4104 13.0717 15.846 13.7181C14.8496 14.8462 14.1943 16.2235 13.4288 17.505C13.0123 18.2383 12.498 18.9091 11.9006 19.4984C11.1789 20.1572 10.2851 20.5881 9.32767 20.7388C8.2177 20.8939 7.09387 20.9178 5.97852 20.8099C4.83041 20.7567 3.7032 20.4778 2.65891 19.9885C2.44674 19.8872 2.26142 20.1966 2.47359 20.3143L2.46285 20.3225Z" fill="#73463B"/>
<path d="M20.718 19.7365C20.4388 19.5888 20.1936 19.3823 19.9987 19.1307C19.8038 18.8791 19.6635 18.5881 19.5873 18.277C19.4299 17.6003 19.5388 16.8876 19.8908 16.2919C19.9013 16.2751 19.9052 16.2548 19.9018 16.2352C19.8984 16.2156 19.8878 16.198 19.8723 16.186C19.8567 16.1739 19.8373 16.1682 19.8178 16.1701C19.7984 16.172 19.7803 16.1812 19.7672 16.196C19.509 16.48 19.3261 16.8264 19.2359 17.2025C19.1456 17.5787 19.151 17.9721 19.2516 18.3455C19.3544 18.6914 19.527 19.0115 19.7583 19.2855C19.9895 19.5594 20.2743 19.7811 20.5945 19.9364C20.7261 19.9993 20.8415 19.8049 20.7099 19.7365H20.718Z" fill="#73463B"/>
<path d="M20.4279 15.8785C20.7186 15.7354 21.0433 15.6797 21.3639 15.718C21.6846 15.7563 21.9878 15.887 22.2381 16.0949C22.4519 16.2883 22.6135 16.5343 22.7075 16.8094C22.8015 17.0845 22.8249 17.3796 22.7753 17.6666C22.7595 17.7311 22.7689 17.7994 22.8014 17.8571C22.834 17.9148 22.8872 17.9574 22.9499 17.976C23.0129 17.9929 23.0799 17.984 23.1366 17.9513C23.1933 17.9186 23.2352 17.8645 23.2534 17.8007C23.3192 17.4263 23.2782 17.0405 23.1354 16.6892C22.9926 16.3378 22.7539 16.0355 22.4476 15.8183C22.1418 15.6185 21.7862 15.5123 21.423 15.5123C21.0598 15.5123 20.7042 15.6185 20.3984 15.8183C20.3922 15.823 20.3879 15.8297 20.3862 15.8374C20.3845 15.845 20.3855 15.853 20.3891 15.8599C20.3926 15.8669 20.3985 15.8723 20.4056 15.8752C20.4128 15.8781 20.4207 15.8783 20.4279 15.8758V15.8785Z" fill="#73463B"/>
<path d="M2.55685 20.1667C3.21217 19.1974 3.70098 18.1213 4.43688 17.2012C5.09338 16.3508 5.92854 15.6612 6.88093 15.1832C7.95523 14.663 9.18532 14.715 10.308 14.3371C11.4306 13.9593 12.3303 13.2419 13.4047 12.8257C14.671 12.328 16.0479 12.1981 17.3823 12.4505C17.632 12.4998 17.7395 12.1055 17.487 12.059C16.3168 11.8242 15.1115 11.8392 13.9472 12.1028C13.346 12.2469 12.7637 12.4629 12.2122 12.7462C11.6589 13.0201 11.1379 13.3623 10.5604 13.606C9.38138 14.1153 8.05729 14.025 6.8863 14.5096C5.87471 14.9478 4.98856 15.6402 4.31065 16.5222C3.44979 17.5803 2.80593 18.8038 2.41719 20.1201C2.41331 20.1295 2.41127 20.1395 2.4112 20.1497C2.41112 20.1598 2.41301 20.1699 2.41675 20.1793C2.42049 20.1887 2.42601 20.1973 2.433 20.2045C2.43999 20.2117 2.4483 20.2175 2.45747 20.2214C2.46664 20.2254 2.47649 20.2275 2.48644 20.2275C2.4964 20.2276 2.50628 20.2257 2.5155 20.2219C2.52473 20.2181 2.53313 20.2124 2.54022 20.2053C2.54732 20.1982 2.55297 20.1897 2.55685 20.1804V20.1667Z" fill="#73463B"/>
<path d="M2.6428 20.0075C4.97405 20.0732 6.46465 17.7869 8.55149 17.0969C9.54254 16.7683 10.5363 16.5492 11.3742 15.8839C12.2122 15.2185 12.8165 14.3313 13.7082 13.7727C14.8013 13.0855 16.1441 12.9513 17.393 12.8144L17.3339 12.3516C15.2578 12.8993 14.0842 14.879 12.7493 16.4068C12.0081 17.2529 11.1647 18.0224 10.0877 18.3783C9.53448 18.5618 8.95972 18.6521 8.40646 18.8438C7.85319 19.0355 7.34826 19.2983 6.8138 19.5147C6.17679 19.7613 5.49957 19.8821 4.81827 19.8706C4.14077 19.8371 3.4617 19.8794 2.79321 19.9966C2.5488 20.0513 2.65355 20.4374 2.89795 20.3799C4.08506 20.1061 5.31514 20.4539 6.49419 20.076C7.03134 19.9035 7.53358 19.6351 8.05194 19.4133C8.59994 19.2041 9.16064 19.0313 9.73054 18.8958C10.7506 18.6174 11.6783 18.0641 12.4163 17.294C13.1656 16.5328 13.7726 15.6511 14.4763 14.8461C15.2981 13.9124 16.2381 13.0855 17.4629 12.8062C17.517 12.7912 17.5639 12.7567 17.5949 12.709C17.6259 12.6613 17.6388 12.6038 17.6313 12.5471C17.6237 12.4905 17.5962 12.4386 17.5538 12.4011C17.5115 12.3636 17.4572 12.3431 17.4011 12.3434C16.3268 12.4228 15.2337 12.5241 14.2292 12.954C13.2247 13.3839 12.5667 14.1041 11.8469 14.8707C11.4993 15.2635 11.104 15.6094 10.6706 15.9003C10.1808 16.1834 9.65471 16.3954 9.10744 16.5301C8.59644 16.664 8.09772 16.8426 7.61684 17.064C7.102 17.3307 6.61283 17.6461 6.15579 18.0059C5.10296 18.7973 4.02866 19.6817 2.6428 19.7118C2.60434 19.7118 2.56745 19.7274 2.54025 19.7551C2.51305 19.7828 2.49777 19.8205 2.49777 19.8597C2.49777 19.8989 2.51305 19.9365 2.54025 19.9642C2.56745 19.992 2.60434 20.0075 2.6428 20.0075Z" fill="#73463B"/>
<path d="M21.709 12.2998C22.4455 12.4414 23.1456 12.7356 23.7661 13.1642C24.3865 13.5928 24.914 14.1467 25.316 14.7915C25.8926 15.8597 26.0402 17.1143 25.7276 18.2912C25.415 19.468 24.6667 20.4753 23.6403 21.101C22.6138 21.7266 21.3893 21.9217 20.2245 21.6453C19.0597 21.3688 18.0456 20.6424 17.3957 19.6189C16.9243 18.8028 16.744 17.8456 16.8855 16.9094C17.0269 15.9733 17.4814 15.1158 18.1719 14.4821C18.2901 14.3699 18.1343 14.1563 17.9973 14.2521C16.5228 15.2844 16.1173 17.3353 16.7484 18.9864C17.0722 19.8251 17.6132 20.5584 18.3137 21.1082C19.0142 21.6579 19.848 22.0034 20.7261 22.1079C21.5864 22.224 22.4615 22.1066 23.2632 21.7677C24.0648 21.4287 24.7646 20.8802 25.2919 20.1775C25.8066 19.4807 26.1416 18.6634 26.2664 17.8005C26.3913 16.9375 26.3018 16.0565 26.0063 15.2379C25.3402 13.4827 23.6347 12.0616 21.7359 12.0999C21.6285 12.0999 21.5962 12.2752 21.709 12.2998Z" fill="#73463B"/>
<path d="M15.65 14.2849C14.2211 15.9278 13.5685 18.3921 14.3447 20.4923C15.0403 22.3816 16.7457 23.8383 18.7413 23.9999C18.9561 24.0163 18.9454 23.6905 18.7413 23.6658C16.9203 23.4303 15.3491 21.9846 14.7932 20.213C14.1782 18.247 14.7072 16.1058 15.8836 14.4629C15.983 14.3232 15.7601 14.148 15.65 14.2794V14.2849Z" fill="#73463B"/>
<path d="M10.1576 13.7729C9.54437 14.0601 8.88402 14.2281 8.21039 14.2685C7.4883 14.2874 6.76668 14.2157 6.06178 14.0549C5.31782 13.8961 4.58998 13.6853 3.85139 13.5073C3.22055 13.3203 2.56234 13.248 1.9069 13.2937C1.63468 13.3191 1.37006 13.3991 1.12818 13.5289C0.8863 13.6587 0.671908 13.8359 0.497279 14.0503C0.322651 14.2647 0.191214 14.5121 0.110494 14.7784C0.0297732 15.0446 0.00135404 15.3245 0.0268631 15.602C0.150408 16.6617 1.4718 17.4475 2.31514 16.6069C2.51988 16.4146 2.64666 16.1512 2.67051 15.8685C2.69437 15.5857 2.61359 15.3041 2.44405 15.079C2.35215 14.9632 2.23834 14.8673 2.10939 14.7972C1.98044 14.7271 1.83898 14.6841 1.69342 14.6708C1.54786 14.6575 1.40116 14.6742 1.26205 14.7199C1.12293 14.7655 0.994243 14.8392 0.883622 14.9366C0.510301 15.2542 1.04477 15.7882 1.42078 15.4842C1.70547 15.2433 2.06804 15.5664 2.06267 15.8758C2.06267 16.4234 1.45032 16.6233 1.01522 16.4234C5.44451e-06 15.9169 0.33304 14.4164 1.12534 13.8906C2.0573 13.2882 3.27395 13.7318 4.24889 14.0139C5.25605 14.3041 6.27127 14.6327 7.32409 14.6792C8.28828 14.7203 9.4727 14.5177 10.1871 13.8249C10.2059 13.8058 10.1871 13.7619 10.1576 13.7729Z" fill="#73463B"/>
<path d="M23.5327 20.5608C24.7869 19.9447 25.4691 18.6441 25.6142 17.275C25.7834 15.6759 25.0233 14.1426 23.9436 13.0309C23.769 12.8474 23.5246 13.1158 23.675 13.3047C24.5291 14.4 25.214 15.769 25.2462 17.1819C25.2625 17.8385 25.1053 18.4874 24.7911 19.0606C24.4769 19.6339 24.0172 20.1105 23.4602 20.4404C23.3796 20.4869 23.4602 20.6074 23.5327 20.5663V20.5608Z" fill="#73463B"/>
<path d="M2.64817 4.01123C3.57923 3.57256 4.57979 3.30734 5.60251 3.22812C6.58442 3.1308 7.57247 3.11523 8.55685 3.18157C9.50582 3.21958 10.4298 3.50219 11.2426 4.00302C11.8544 4.42826 12.385 4.96365 12.8084 5.58294C13.6813 6.80964 14.3017 8.19789 15.1665 9.41637C16.1468 10.8019 17.4575 11.8725 19.0985 12.2257C19.9044 12.4147 20.743 12.4039 21.5439 12.1942C22.3449 11.9846 23.0849 11.5823 23.7019 11.0209C24.9024 9.90102 25.6598 8.15681 25.2408 6.49475C25.0319 5.75289 24.61 5.09175 24.0294 4.59644C23.4488 4.10113 22.7361 3.79432 21.983 3.71551C21.2316 3.65087 20.48 3.83813 19.8425 4.24885C19.205 4.65956 18.7165 5.27125 18.4512 5.99093C17.9141 7.61192 19.0206 9.64364 20.7663 9.74769C21.2137 9.76532 21.658 9.66474 22.056 9.45571C22.454 9.24669 22.7923 8.93631 23.0379 8.5547C23.2836 8.17309 23.4283 7.73322 23.4581 7.27777C23.4878 6.82233 23.4016 6.36677 23.2077 5.95533C23.1836 5.91571 23.15 5.88301 23.1101 5.86033C23.0701 5.83766 23.0251 5.82576 22.9794 5.82576C22.9337 5.82576 22.8887 5.83766 22.8488 5.86033C22.8088 5.88301 22.7752 5.91571 22.7511 5.95533C22.6613 6.12316 22.5356 6.26822 22.3833 6.37974C22.2309 6.49125 22.0559 6.56636 21.8712 6.5995C21.6865 6.63263 21.4969 6.62294 21.3164 6.57113C21.1359 6.51933 20.9691 6.42674 20.8285 6.30025C20.6879 6.17375 20.577 6.0166 20.5041 5.84045C20.4312 5.6643 20.3982 5.47367 20.4074 5.28271C20.4167 5.09176 20.468 4.90538 20.5576 4.73741C20.6471 4.56944 20.7726 4.42418 20.9248 4.31243C20.9487 4.30047 20.9697 4.28316 20.9861 4.26181C21.0026 4.24046 21.0141 4.2156 21.0198 4.18908C21.0255 4.16257 21.0253 4.13508 21.0192 4.10866C21.0131 4.08224 21.0012 4.05756 20.9844 4.03646C20.9677 4.01536 20.9465 3.99839 20.9224 3.98679C20.8983 3.9752 20.872 3.96929 20.8453 3.9695C20.8187 3.9697 20.7925 3.97603 20.7686 3.98799C20.7447 3.99996 20.7237 4.01726 20.7073 4.03862C19.9364 4.68208 19.8639 6.02105 20.6401 6.69463C21.4163 7.36822 22.6571 7.09714 23.2077 6.25105H22.7511C22.9238 6.60648 22.9903 7.00576 22.9425 7.39939C22.8947 7.79301 22.7346 8.16367 22.4821 8.46542C22.2296 8.76716 21.8958 8.98671 21.522 9.09686C21.1483 9.20701 20.7511 9.2029 20.3796 9.08505C18.9642 8.66064 18.4727 6.82059 19.2005 5.60758C19.5941 4.97793 20.2031 4.51975 20.9092 4.32193C21.6154 4.1241 22.3685 4.20074 23.0224 4.53696C23.7178 4.872 24.2757 5.44539 24.5987 6.15703C24.9217 6.86867 24.9892 7.67336 24.7896 8.43063C24.419 9.90102 23.2507 10.9963 21.8702 11.4809C21.1226 11.7197 20.3318 11.7829 19.5569 11.6657C18.782 11.5486 18.0432 11.2542 17.3957 10.8046C15.1235 9.2822 14.3903 6.33046 12.5425 4.40005C11.3259 3.12955 9.74665 2.66954 8.04119 2.61751C6.16115 2.56275 4.14683 2.73799 2.46285 3.67718C2.25068 3.79492 2.43599 4.10707 2.64817 4.00302V4.01123Z" fill="#73463B"/>
<path d="M20.6025 4.06622C20.2816 4.22033 19.9962 4.44165 19.7648 4.71577C19.5334 4.98988 19.3613 5.31062 19.2596 5.65709C19.1593 6.03009 19.154 6.42301 19.2443 6.79867C19.3345 7.17432 19.5173 7.52029 19.7753 7.80381C19.7884 7.81862 19.8064 7.82787 19.8259 7.82973C19.8454 7.83159 19.8648 7.82593 19.8803 7.81387C19.8959 7.8018 19.9064 7.78422 19.9099 7.7646C19.9133 7.74499 19.9094 7.72478 19.8988 7.70798C19.5466 7.1123 19.4377 6.39952 19.5954 5.72281C19.6714 5.41166 19.8116 5.12059 20.0066 4.86895C20.2015 4.61732 20.4468 4.41088 20.7261 4.26337C20.8577 4.19491 20.7422 3.98955 20.6106 4.06622H20.6025Z" fill="#73463B"/>
<path d="M20.4118 8.17889C20.7179 8.37806 21.0734 8.48389 21.4364 8.48389C21.7995 8.48389 22.155 8.37806 22.4611 8.17889C22.7673 7.96098 23.0059 7.65823 23.1487 7.30643C23.2915 6.95464 23.3325 6.56851 23.2668 6.19372C23.2486 6.12992 23.2067 6.07589 23.15 6.04315C23.0933 6.01041 23.0263 6.00155 22.9633 6.01847C22.9027 6.04024 22.8518 6.08343 22.8198 6.14019C22.7877 6.19696 22.7767 6.26355 22.7887 6.32789C22.8383 6.61483 22.815 6.90993 22.7209 7.18506C22.6269 7.46019 22.4653 7.70619 22.2516 7.89959C22.0005 8.11118 21.6949 8.24441 21.3714 8.28326C21.048 8.32212 20.7203 8.26496 20.4279 8.11865C20.4207 8.11614 20.4128 8.11636 20.4056 8.11927C20.3985 8.12218 20.3926 8.12759 20.3891 8.13453C20.3855 8.14146 20.3845 8.14946 20.3862 8.15709C20.3879 8.16472 20.3922 8.17148 20.3984 8.17615L20.4118 8.17889Z" fill="#73463B"/>
<path d="M2.41719 3.87995C2.76114 5.0446 3.30691 6.13704 4.02865 7.10551C4.67093 8.03943 5.52508 8.80127 6.51836 9.32616C7.65444 9.88749 8.906 9.84367 10.0904 10.2106C11.2748 10.5775 12.239 11.377 13.4288 11.744C14.7463 12.1382 16.1378 12.2012 17.4843 11.9274C17.7368 11.8809 17.6294 11.4866 17.3796 11.5359C16.2045 11.7592 14.9936 11.6849 13.8532 11.3195C12.744 10.9691 11.8174 10.2818 10.7431 9.82177C9.63922 9.34533 8.41988 9.38366 7.29723 8.98115C6.3045 8.58979 5.4217 7.95498 4.72695 7.13289C3.83796 6.13346 3.29812 4.91772 2.55685 3.81972C2.54649 3.80526 2.53165 3.7948 2.51472 3.79003C2.4978 3.78526 2.47979 3.78646 2.46362 3.79343C2.44744 3.80041 2.43406 3.81275 2.42563 3.82845C2.4172 3.84416 2.41423 3.86231 2.41719 3.87995Z" fill="#73463B"/>
<path d="M2.6428 4.28512C3.84334 4.3125 4.84782 5.01073 5.77441 5.71991C6.62632 6.42994 7.59593 6.97892 8.63743 7.34091C9.20967 7.48745 9.76997 7.67877 10.3134 7.91318C10.7841 8.16036 11.2123 8.48404 11.581 8.87154C12.3008 9.59441 12.94 10.3967 13.8559 10.8731C14.949 11.4454 16.1844 11.5632 17.3903 11.6535C17.4449 11.6517 17.497 11.6303 17.5375 11.5931C17.578 11.5558 17.6043 11.5052 17.6117 11.4501C17.6191 11.395 17.6071 11.339 17.5779 11.292C17.5487 11.2451 17.5042 11.2102 17.4521 11.1935C15.2686 10.6952 14.1164 8.57856 12.701 7.02328C12.0248 6.22274 11.1596 5.61113 10.1871 5.24621C9.64997 5.06002 9.06178 4.95597 8.5112 4.76703C7.96062 4.5781 7.45301 4.30428 6.92123 4.08523C6.3303 3.84752 5.70063 3.72581 5.06536 3.72653C4.33752 3.72653 3.61236 3.78677 2.89527 3.62248C2.65086 3.56772 2.54612 3.95106 2.79052 4.00582C3.97494 4.27964 5.20771 3.96749 6.38139 4.3344C6.91854 4.50691 7.44227 4.77798 7.97136 4.99704C8.51164 5.19529 9.06324 5.35988 9.62311 5.48991C10.7156 5.7947 11.6986 6.41462 12.4539 7.27519C13.1844 8.05557 13.7968 8.93725 14.5139 9.73954C15.2793 10.5938 16.2086 11.366 17.3313 11.6563L17.3903 11.1935C16.2838 11.0758 15.1182 10.9553 14.1003 10.4569C13.1468 9.98871 12.4888 9.14262 11.7287 8.43343C11.3682 8.08495 10.958 7.79415 10.5121 7.57091C10.0109 7.34834 9.49373 7.16526 8.9651 7.02328C8.40187 6.86628 7.8604 6.63719 7.35364 6.34148C6.87288 6.05123 6.42705 5.70348 5.97584 5.37217C4.99016 4.65203 3.9078 3.94558 2.64817 3.98118C2.60971 3.98118 2.57282 3.99676 2.54562 4.02449C2.51842 4.05222 2.50314 4.08982 2.50314 4.12904C2.50314 4.16826 2.51842 4.20586 2.54562 4.23359C2.57282 4.26132 2.60971 4.2769 2.64817 4.2769L2.6428 4.28512Z" fill="#73463B"/>
<path d="M21.7359 11.9002C23.3984 11.933 24.9588 10.8049 25.7458 9.35095C26.1388 8.58441 26.3371 7.72966 26.3225 6.86484C26.308 6.00002 26.0811 5.1527 25.6625 4.40035C25.2267 3.62548 24.598 2.98163 23.8399 2.53388C23.0818 2.08612 22.2212 1.85033 21.3451 1.85033C20.469 1.85033 19.6084 2.08612 18.8503 2.53388C18.0923 2.98163 17.4636 3.62548 17.0278 4.40035C16.0877 6.15277 16.2972 8.55141 17.9973 9.74251C18.1343 9.83834 18.2928 9.62477 18.1719 9.5125C17.5666 8.95844 17.1401 8.23057 16.9483 7.42464C16.7566 6.61871 16.8086 5.77247 17.0976 4.99727C17.421 4.20603 17.9567 3.52378 18.6431 3.0288C19.3296 2.53382 20.139 2.24617 20.9785 2.19887C21.7802 2.13679 22.5838 2.29023 23.3092 2.64387C24.0345 2.9975 24.6561 3.53896 25.1119 4.21415C25.9606 5.51204 26.2185 7.25078 25.5819 8.69653C24.8729 10.3093 23.3662 11.3389 21.7091 11.703C21.5989 11.7277 21.6285 11.8974 21.7359 11.9002Z" fill="#73463B"/>
<path d="M15.8836 9.53145C14.7072 7.90224 14.1782 5.75278 14.7932 3.7813C15.0719 2.88879 15.5889 2.09303 16.2862 1.48318C16.9835 0.873337 17.8336 0.473503 18.7413 0.32848C18.9454 0.303837 18.9561 -0.0220051 18.7413 -0.00557613C16.7457 0.161451 15.0403 1.62089 14.3447 3.50749C13.5685 5.61861 14.2211 8.06105 15.65 9.71764C15.7601 9.8436 15.983 9.67383 15.8836 9.53145Z" fill="#73463B"/>
<path d="M10.1871 10.1751C9.5479 9.56721 8.56222 9.35363 7.71352 9.32078C6.67682 9.29066 5.6616 9.57542 4.67592 9.86841C3.69025 10.1614 2.52999 10.6378 1.52552 10.3093C0.582815 9.99436 -0.0537119 8.70743 0.687559 7.84491C1.04745 7.43144 1.83438 7.33835 2.03044 7.96812C2.06613 8.06067 2.07447 8.16183 2.05442 8.25915C2.03438 8.35646 1.98683 8.44567 1.91764 8.51576C1.84602 8.56939 1.7606 8.60054 1.67187 8.60541C1.58313 8.61027 1.49494 8.58863 1.41809 8.54314C1.04745 8.23372 0.512985 8.76767 0.880934 9.09077C1.06825 9.26797 1.31138 9.3713 1.56669 9.3822C1.82199 9.39311 2.07275 9.31088 2.27395 9.15028C2.47515 8.98968 2.61361 8.76122 2.66447 8.50592C2.71534 8.25061 2.67528 7.98519 2.55148 7.75728C2.02776 6.68666 0.545214 6.9906 0.134292 7.98455C-0.30886 9.0497 0.402868 10.2983 1.44226 10.6296C2.7368 11.0431 4.20323 10.4106 5.47091 10.1039C6.2603 9.88933 7.07146 9.76896 7.8881 9.74519C8.67411 9.74841 9.45079 9.91908 10.1683 10.2463C10.1979 10.2463 10.2167 10.2162 10.1979 10.1943L10.1871 10.1751Z" fill="#73463B"/>
<path d="M23.4602 3.5649C24.016 3.8941 24.4749 4.36935 24.789 4.94106C25.1032 5.51276 25.2611 6.15996 25.2462 6.8151C25.214 8.23621 24.5291 9.60255 23.675 10.6951C23.5246 10.884 23.769 11.1524 23.9436 10.9689C25.0179 9.84351 25.786 8.32657 25.6142 6.71653C25.4691 5.34744 24.7869 4.05503 23.5327 3.43073C23.4494 3.38966 23.3796 3.51014 23.4602 3.55668V3.5649Z" fill="#73463B"/>
</g>
<defs>
<clipPath id="clip0_86_577">
<rect width="24" height="30" fill="white" transform="matrix(0 -1 1 0 0 24)"/>
</clipPath>
</defs>
</svg>
