<svg width="40" height="40" viewBox="0 0 40 40" fill="none" xmlns="http://www.w3.org/2000/svg">
<g clip-path="url(#clip0_69_169)">
<path d="M10.5423 21.304H14.927V39.3548C14.927 39.7112 15.2157 40 15.5721 40H23.0064C23.3628 40 23.6516 39.7112 23.6516 39.3548V21.389H28.6921C29.0199 21.389 29.2956 21.1431 29.333 20.8175L30.0986 14.1721C30.1196 13.9893 30.0617 13.8062 29.9393 13.669C29.8169 13.5317 29.6417 13.4532 29.4578 13.4532H23.6519V9.28748C23.6519 8.03174 24.328 7.39497 25.6617 7.39497C25.8517 7.39497 29.4578 7.39497 29.4578 7.39497C29.8142 7.39497 30.103 7.10606 30.103 6.74981V0.649935C30.103 0.293548 29.8142 0.00477419 29.4578 0.00477419H24.2262C24.1893 0.00296774 24.1073 0 23.9866 0C23.0788 0 19.9236 0.178193 17.4312 2.4711C14.6697 5.012 15.0535 8.05432 15.1453 8.58181V13.453H10.5423C10.1859 13.453 9.89716 13.7418 9.89716 14.0982V20.6587C9.89716 21.0151 10.1859 21.304 10.5423 21.304Z" fill="#461913"/>
</g>
<defs>
<clipPath id="clip0_69_169">
<rect width="40" height="40" fill="white"/>
</clipPath>
</defs>
</svg>
