<svg width="40" height="40" viewBox="0 0 40 40" fill="none" xmlns="http://www.w3.org/2000/svg">
<g clip-path="url(#clip0_69_160)">
<path d="M20 0.625C9.29688 0.625 0.625 9.29688 0.625 20C0.625 30.7031 9.29688 39.375 20 39.375C30.7031 39.375 39.375 30.7031 39.375 20C39.375 9.29688 30.7031 0.625 20 0.625ZM29.5156 13.8984L26.3359 28.8828C26.1016 29.9453 25.4688 30.2031 24.5859 29.7031L19.7422 26.1328L17.4062 28.3828C17.1484 28.6406 16.9297 28.8594 16.4297 28.8594L16.7734 23.9297L25.75 15.8203C26.1406 15.4766 25.6641 15.2812 25.1484 15.625L14.0547 22.6094L9.27344 21.1172C8.23437 20.7891 8.21094 20.0781 9.49219 19.5781L28.1719 12.375C29.0391 12.0625 29.7969 12.5859 29.5156 13.8984Z" fill="#461913"/>
</g>
<defs>
<clipPath id="clip0_69_160">
<rect width="40" height="40" fill="white"/>
</clipPath>
</defs>
</svg>
