<svg width="40" height="40" viewBox="0 0 40 40" fill="none" xmlns="http://www.w3.org/2000/svg">
<g clip-path="url(#clip0_69_164)">
<path d="M39.0933 7.40497C38.4649 7.68368 37.8188 7.91891 37.1587 8.10988C37.9402 7.226 38.5361 6.186 38.8998 5.04794C38.9814 4.79284 38.8969 4.51362 38.6872 4.34678C38.4778 4.17981 38.1868 4.15981 37.9562 4.29646C36.5543 5.12794 35.0418 5.72549 33.4558 6.07491C31.8583 4.51388 29.6885 3.62549 27.4454 3.62549C22.7106 3.62549 18.8584 7.47749 18.8584 12.2122C18.8584 12.5851 18.882 12.9559 18.9288 13.3216C13.0533 12.8057 7.59095 9.91787 3.83998 5.31671C3.7063 5.15271 3.50037 5.06433 3.28953 5.08123C3.07856 5.09775 2.88901 5.21671 2.78243 5.39955C2.02166 6.70497 1.61946 8.198 1.61946 9.7171C1.61946 11.7861 2.35817 13.7492 3.66308 15.2832C3.2663 15.1457 2.88127 14.974 2.51379 14.77C2.3165 14.6602 2.07572 14.6619 1.87972 14.7743C1.68359 14.8866 1.56063 15.0934 1.55546 15.3193C1.55456 15.3574 1.55456 15.3954 1.55456 15.434C1.55456 18.5224 3.21675 21.3029 5.75804 22.8184C5.53972 22.7966 5.32153 22.765 5.10475 22.7236C4.88127 22.6808 4.65146 22.7592 4.50075 22.9296C4.34979 23.0999 4.29985 23.3374 4.3694 23.5541C5.31004 26.4909 7.73185 28.651 10.6596 29.3096C8.23133 30.8305 5.45443 31.6272 2.53934 31.6272C1.93108 31.6272 1.31933 31.5914 0.720625 31.5206C0.423206 31.4852 0.138819 31.6608 0.0375286 31.9437C-0.0637617 32.2266 0.0435932 32.5421 0.296625 32.7043C4.04153 35.1055 8.37172 36.3746 12.8188 36.3746C21.5613 36.3746 27.0303 32.2521 30.0787 28.7936C33.88 24.4812 36.0601 18.7732 36.0601 13.1334C36.0601 12.8977 36.0565 12.6598 36.0493 12.4226C37.549 11.2927 38.8402 9.92523 39.8909 8.35349C40.0506 8.11478 40.0333 7.79929 39.8484 7.57955C39.6637 7.35968 39.356 7.28858 39.0933 7.40497Z" fill="#461913"/>
</g>
<defs>
<clipPath id="clip0_69_164">
<rect width="40" height="40" fill="white"/>
</clipPath>
</defs>
</svg>
