<svg width="480" height="254" viewBox="0 0 480 254" fill="none" xmlns="http://www.w3.org/2000/svg">
<g clip-path="url(#clip0_107_528)" filter="url(#filter0_d_107_528)">
<path d="M6.65601 2.53715V242.62H473.145V157.181C463.829 162.726 452.728 164.46 442.162 162.02C431.596 159.58 422.383 153.154 416.446 144.086C406.907 149.204 395.76 150.447 385.327 147.557C374.893 144.666 365.978 137.866 360.437 128.571C357.696 123.957 355.858 118.865 355.021 113.566L354.621 110.044C348.881 108.189 343.609 105.118 339.165 101.041L334.5 96.0695C328.654 88.6585 325.475 79.4969 325.475 70.0605C325.475 60.6241 328.654 51.4624 334.5 44.0515C336.729 41.2252 339.309 38.694 342.178 36.5189C341.095 30.5546 341.316 24.4266 342.826 18.5557C344.336 12.6848 347.1 7.21004 350.927 2.50714L6.65601 2.53715Z" stroke="#F8F8F8" stroke-width="5" stroke-miterlimit="10"/>
<path d="M321.987 19.543V113.576H355.021L354.621 110.054C348.881 108.199 343.609 105.128 339.165 101.051C337.47 99.5267 335.91 97.86 334.5 96.0695C328.654 88.6585 325.475 79.4969 325.475 70.0605C325.475 60.6241 328.654 51.4624 334.5 44.0515C336.729 41.2252 339.309 38.694 342.178 36.5189C341.161 30.881 341.3 25.0953 342.588 19.513L321.987 19.543Z" stroke="#F8F8F8" stroke-width="5" stroke-miterlimit="10"/>
<path d="M173.331 114.076L307.471 114.076V20.0432L173.331 20.0432V114.076Z" stroke="#F8F8F8" stroke-width="5" stroke-miterlimit="10"/>
<path d="M24.1743 114.076L158.315 114.076V20.0432L24.1743 20.0432V114.076Z" stroke="#F8F8F8" stroke-width="5" stroke-miterlimit="10"/>
<path d="M236.457 99.0705C195.414 99.0705 188.347 42.0508 188.347 42.0508V99.0705H236.457Z" fill="#E3E3E3"/>
<path d="M84.2975 99.0705C43.2544 99.0705 36.187 42.0508 36.187 42.0508V99.0705H84.2975Z" fill="#E3E3E3"/>
<path d="M321.987 128.581V222.613H456.127V162.853C448.425 163.681 440.643 162.367 433.641 159.056C426.639 155.744 420.688 150.564 416.446 144.086C406.907 149.204 395.76 150.447 385.327 147.557C374.893 144.666 365.978 137.866 360.437 128.571L321.987 128.581Z" stroke="#F8F8F8" stroke-width="5" stroke-miterlimit="10"/>
<path d="M173.331 222.113L307.471 222.113V128.081H173.331V222.113Z" stroke="#F8F8F8" stroke-width="5" stroke-miterlimit="10"/>
<path d="M24.1743 222.113L158.315 222.113V128.081H24.1743V222.113Z" stroke="#F8F8F8" stroke-width="5" stroke-miterlimit="10"/>
<path d="M382.61 211.109C341.567 211.109 334.5 154.09 334.5 154.09V211.109H382.61Z" fill="#E3E3E3"/>
<path d="M236.457 209.109C195.414 209.109 188.347 152.089 188.347 152.089V209.109H236.457Z" fill="#E3E3E3"/>
<path d="M84.2975 209.109C43.2544 209.109 36.187 152.089 36.187 152.089V209.109H84.2975Z" fill="#E3E3E3"/>
</g>
<defs>
<filter id="filter0_d_107_528" x="0.15332" y="0.0362854" width="479.495" height="253.085" filterUnits="userSpaceOnUse" color-interpolation-filters="sRGB">
<feFlood flood-opacity="0" result="BackgroundImageFix"/>
<feColorMatrix in="SourceAlpha" type="matrix" values="0 0 0 0 0 0 0 0 0 0 0 0 0 0 0 0 0 0 127 0" result="hardAlpha"/>
<feOffset dy="4"/>
<feGaussianBlur stdDeviation="2"/>
<feComposite in2="hardAlpha" operator="out"/>
<feColorMatrix type="matrix" values="0 0 0 0 0 0 0 0 0 0 0 0 0 0 0 0 0 0 0.25 0"/>
<feBlend mode="normal" in2="BackgroundImageFix" result="effect1_dropShadow_107_528"/>
<feBlend mode="normal" in="SourceGraphic" in2="effect1_dropShadow_107_528" result="shape"/>
</filter>
<clipPath id="clip0_107_528">
<rect width="471.495" height="245.085" fill="white" transform="translate(4.15332 0.0362854)"/>
</clipPath>
</defs>
</svg>
