<svg width="472" height="246" viewBox="0 0 472 246" fill="none" xmlns="http://www.w3.org/2000/svg">
<g clip-path="url(#clip0_107_510)">
<path d="M2.65591 2.53715V242.62H469.145V157.181C459.828 162.726 448.728 164.46 438.162 162.02C427.596 159.58 418.383 153.154 412.446 144.086C402.907 149.204 391.76 150.447 381.326 147.557C370.893 144.666 361.978 137.866 356.437 128.571C353.696 123.957 351.858 118.865 351.021 113.566L350.621 110.044C344.881 108.189 339.609 105.118 335.165 101.041L330.5 96.0695C324.654 88.6585 321.475 79.4969 321.475 70.0605C321.475 60.6241 324.654 51.4624 330.5 44.0515C332.729 41.2252 335.309 38.694 338.178 36.5189C337.095 30.5546 337.316 24.4266 338.826 18.5557C340.336 12.6848 343.1 7.21004 346.927 2.50714L2.65591 2.53715Z" stroke="#340D08" stroke-width="5" stroke-miterlimit="10"/>
<path d="M317.987 19.543V113.576H351.021L350.621 110.054C344.881 108.199 339.609 105.128 335.165 101.051C333.47 99.5267 331.91 97.86 330.5 96.0695C324.654 88.6585 321.475 79.4969 321.475 70.0605C321.475 60.6241 324.654 51.4624 330.5 44.0515C332.729 41.2252 335.309 38.694 338.178 36.5189C337.16 30.881 337.3 25.0953 338.588 19.513L317.987 19.543Z" stroke="#340D08" stroke-width="5" stroke-miterlimit="10"/>
<path d="M169.331 114.076L303.471 114.076V20.0432L169.331 20.0432V114.076Z" stroke="#340D08" stroke-width="5" stroke-miterlimit="10"/>
<path d="M20.1743 114.076L154.315 114.076V20.0432L20.1743 20.0432V114.076Z" stroke="#340D08" stroke-width="5" stroke-miterlimit="10"/>
<path d="M232.457 99.0705C191.414 99.0705 184.346 42.0508 184.346 42.0508V99.0705H232.457Z" fill="#894E2E"/>
<path d="M80.2973 99.0705C39.2543 99.0705 32.1869 42.0508 32.1869 42.0508V99.0705H80.2973Z" fill="#894E2E"/>
<path d="M317.987 128.581V222.613H452.127V162.853C444.425 163.681 436.643 162.367 429.641 159.056C422.638 155.744 416.688 150.564 412.446 144.086C402.907 149.204 391.76 150.447 381.327 147.557C370.893 144.666 361.978 137.866 356.437 128.571L317.987 128.581Z" stroke="#340D08" stroke-width="5" stroke-miterlimit="10"/>
<path d="M169.331 222.113L303.471 222.113V128.081H169.331V222.113Z" stroke="#340D08" stroke-width="5" stroke-miterlimit="10"/>
<path d="M20.1743 222.113L154.315 222.113V128.081H20.1743V222.113Z" stroke="#340D08" stroke-width="5" stroke-miterlimit="10"/>
<path d="M378.61 211.109C337.567 211.109 330.5 154.09 330.5 154.09V211.109H378.61Z" fill="#894E2E"/>
<path d="M232.457 209.109C191.414 209.109 184.346 152.089 184.346 152.089V209.109H232.457Z" fill="#894E2E"/>
<path d="M80.2973 209.109C39.2543 209.109 32.1869 152.089 32.1869 152.089V209.109H80.2973Z" fill="#894E2E"/>
</g>
<defs>
<clipPath id="clip0_107_510">
<rect width="471.495" height="245.085" fill="white" transform="translate(0.15329 0.0362854)"/>
</clipPath>
</defs>
</svg>
