<svg width="60" height="48" viewBox="0 0 60 48" fill="none" xmlns="http://www.w3.org/2000/svg">
<path d="M46.0393 37.623C47.5454 37.8624 48.1868 39.9933 46.6605 40.7077C45.2234 41.3774 44.1232 39.766 44.0908 38.4834C44.0908 37.8533 44.2375 37.2319 44.5193 36.6683C44.8012 36.1047 45.2104 35.6144 45.7146 35.2364C46.2964 34.8145 46.9979 34.5898 47.7165 34.5949C48.4352 34.6 49.1334 34.8347 49.7092 35.2648C50.3482 35.6968 50.8663 36.2848 51.2144 36.9731C51.5625 37.6614 51.7291 38.4271 51.6983 39.1978C51.6187 39.9544 51.3701 40.6834 50.971 41.3311C50.572 41.9788 50.0325 42.5286 49.3925 42.9401C46.3073 44.9979 42.6902 43.2201 40.2748 40.9715C37.5305 38.4185 35.6429 35.0375 32.4683 32.9796C30.896 31.967 29.1379 31.2771 27.2964 30.9502C25.4575 30.6255 23.4399 30.5808 21.6618 31.2343C20.3591 31.7491 19.2439 32.648 18.4644 33.8116C17.6849 34.9752 17.278 36.3484 17.2978 37.7488C17.2753 39.1887 17.758 40.591 18.662 41.7121C19.566 42.8332 20.8342 43.6023 22.2464 43.8858C22.9561 44.06 23.6964 44.0679 24.4097 43.9087C25.1229 43.7496 25.7897 43.4278 26.358 42.9685C26.9263 42.5091 27.3807 41.9246 27.6857 41.2607C27.9908 40.5968 28.1382 39.8713 28.1165 39.141C28.0994 38.3734 27.8603 37.6272 27.428 36.9926C26.9958 36.358 26.3889 35.8622 25.6807 35.5651C24.9321 35.251 24.1064 35.1686 23.3103 35.3285C22.5143 35.4884 21.7845 35.8833 21.2153 36.4621C20.6754 37.0156 20.3037 37.7109 20.1435 38.4672C20.1294 38.5514 20.147 38.6378 20.1929 38.7098C20.2388 38.7817 20.3097 38.8342 20.392 38.8569C20.4743 38.8796 20.5621 38.871 20.6384 38.8328C20.7147 38.7945 20.7742 38.7294 20.8052 38.6498C21.028 37.8739 21.5384 37.2121 22.2324 36.7995C22.9265 36.3869 23.7518 36.2547 24.54 36.4297C25.2456 36.5799 25.8749 36.9757 26.3158 37.5466C26.7566 38.1175 26.9805 38.8264 26.9473 39.5469C26.9216 40.2288 26.7215 40.8927 26.3661 41.4754C26.0108 42.058 25.5121 42.5399 24.9176 42.8751C23.4561 43.6463 21.6699 43.35 20.314 42.5017C17.6266 40.8295 17.1395 37.278 18.5522 34.5991C20.3019 31.279 24.5157 31.0801 27.7552 31.9406C29.6214 32.4361 31.3572 33.3323 32.8418 34.5666C34.2755 35.8457 35.5832 37.2592 36.7471 38.7878C39.0204 41.5519 41.7443 44.4702 45.5035 44.8761C48.7511 45.2495 52.1692 43.0456 52.6645 39.7092C53.1273 36.5514 50.2572 33.284 47.0096 33.6575C44.2369 33.9619 42.2437 37.2293 43.287 39.835C43.8837 41.3287 45.4223 42.3556 47.0015 41.6737C47.3478 41.5319 47.6567 41.3122 47.9044 41.0317C48.152 40.7512 48.3317 40.4174 48.4295 40.0563C48.5272 39.6951 48.5405 39.3163 48.4681 38.9492C48.3958 38.5821 48.2398 38.2366 48.0123 37.9396C47.7848 37.6604 47.4982 37.4352 47.1732 37.2801C46.8482 37.125 46.4928 37.0438 46.1327 37.0425C45.812 37.0425 45.7268 37.5702 46.0556 37.623H46.0393Z" fill="#73463B"/>
<path d="M45.8688 37.5256C45.9066 37.6207 45.9236 37.7228 45.9187 37.825C45.9138 37.9272 45.8871 38.0271 45.8404 38.1182C45.7348 38.3151 45.5661 38.4709 45.3614 38.5606L45.2843 38.5931C45.3411 38.5687 45.2396 38.5931 45.2274 38.5931C45.1518 38.6177 45.0745 38.6366 44.996 38.6499C45.0448 38.6499 44.923 38.6499 44.927 38.6499H44.8093C44.7364 38.656 44.663 38.656 44.5901 38.6499C44.2867 38.6385 43.988 38.5711 43.7092 38.451C43.6408 38.4257 43.5652 38.4286 43.4989 38.4591C43.4327 38.4895 43.3813 38.545 43.356 38.6134C43.3307 38.6817 43.3336 38.7573 43.364 38.8236C43.3945 38.8898 43.45 38.9412 43.5184 38.9665C44.2004 39.3724 45.1138 39.5875 45.7836 39.0436C46.0344 38.8484 46.2118 38.5741 46.2869 38.2654C46.3621 37.9566 46.3306 37.6316 46.1977 37.3429C46.1722 37.2995 46.1306 37.2679 46.082 37.2549C46.0333 37.242 45.9815 37.2488 45.9379 37.2739C45.8952 37.3001 45.8642 37.3417 45.8514 37.39C45.8385 37.4384 45.8448 37.4898 45.8688 37.5337V37.5256Z" fill="#73463B"/>
<path d="M20.5861 38.9136C21.2148 38.6901 21.906 38.7206 22.5125 38.9988C23.1191 39.277 23.5931 39.7809 23.8337 40.4032C23.9427 40.6914 23.9934 40.9984 23.983 41.3063C23.9725 41.6143 23.9011 41.9171 23.7728 42.1972C23.5049 42.7371 22.9934 43.285 22.3438 43.1957C22.0637 43.1592 21.9379 43.5773 22.2221 43.63C23.5942 43.8817 24.7187 42.733 24.8283 41.4301C24.8766 40.7372 24.6875 40.0485 24.2919 39.4774C23.8964 38.9064 23.3181 38.4871 22.6524 38.2886C22.2752 38.1893 21.883 38.1605 21.4954 38.2033C21.1207 38.2572 20.7582 38.3753 20.4237 38.5524C20.2207 38.6458 20.3668 38.9989 20.5739 38.9136H20.5861Z" fill="#73463B"/>
<path d="M21.264 31.5916C17.586 32.8498 16.6198 37.1968 14.3627 39.9041C12.1934 42.442 9.25638 44.2044 5.99603 44.9249C4.14736 45.331 2.23897 45.3875 0.369511 45.0913L0.535954 45.4972C1.6848 43.9954 2.09887 42.1405 2.82959 40.4277C3.4761 38.8507 4.41709 37.4112 5.60226 36.1862C6.78086 34.9674 8.27706 34.1028 9.92161 33.69C11.7159 33.2841 13.5752 33.3815 15.4142 33.3653C17.3668 33.3653 19.3763 33.1623 21.065 32.0949L20.7443 31.689C19.4493 32.6956 17.7971 33.0568 16.222 33.3612C14.6381 33.6029 13.0842 34.011 11.586 34.5789C10.0889 35.2195 8.71516 36.1165 7.52648 37.2293C6.39951 38.3434 5.40012 39.5795 4.54678 40.9148C3.50753 42.4246 2.45206 43.9467 0.986563 45.0751C0.961284 45.0905 0.939538 45.1111 0.922736 45.1355C0.905935 45.1599 0.89445 45.1875 0.889039 45.2166C0.883628 45.2458 0.884408 45.2757 0.891325 45.3045C0.898242 45.3333 0.911145 45.3603 0.929191 45.3838C0.947237 45.4073 0.970024 45.4267 0.996072 45.4408C1.02212 45.4549 1.05084 45.4634 1.08038 45.4656C1.10991 45.4679 1.13959 45.4639 1.16749 45.454C1.19539 45.4441 1.22088 45.4283 1.24231 45.4079C3.7917 43.4312 5.13135 40.3871 7.30321 38.0654C8.45605 36.8386 9.8343 35.845 11.3627 35.139C12.8961 34.4901 14.5079 34.0452 16.1571 33.8158C17.8905 33.5155 19.6239 33.1421 21.0772 32.0989C21.3492 31.9041 21.1097 31.4698 20.8093 31.6443C17.4967 33.5601 13.425 32.0949 9.84854 32.9026C6.47912 33.6616 3.97438 36.381 2.56166 39.3967C1.67262 41.3044 1.32351 43.4799 0.0488104 45.1928C0.0273745 45.2294 0.0146754 45.2705 0.0117 45.3128C0.00872463 45.3552 0.0155502 45.3976 0.031652 45.4369C0.0477539 45.4761 0.0726928 45.5112 0.104535 45.5392C0.136377 45.5673 0.174263 45.5876 0.215247 45.5987C3.51131 46.2074 6.91627 45.7019 9.89319 44.1618C11.3836 43.4096 12.7444 42.4245 13.9243 41.2435C15.1761 39.9105 16.2165 38.3939 17.0096 36.7463C18.0285 34.7981 19.1571 32.6631 21.3533 31.8757C21.536 31.8107 21.4588 31.5185 21.2721 31.5834L21.264 31.5916Z" fill="#73463B"/>
<path d="M1.13676 45.1643C3.97843 44.4093 6.37762 42.6925 8.44393 40.6103C9.43852 39.5996 10.3925 38.5402 11.452 37.5905C12.5317 36.6331 13.7446 35.8374 15.0529 35.2282C16.5143 34.5382 18.0488 33.9253 19.291 32.866L18.8851 32.4601C14.6307 36.4093 11.0502 41.4342 5.61037 43.8614C4.1605 44.5151 2.60578 44.9054 1.01903 45.0141C0.613078 45.0425 0.613078 45.6514 1.01903 45.6351C7.04339 45.3672 11.5414 40.6346 15.4426 36.5758C16.6542 35.2796 17.9305 34.0455 19.2667 32.8781C19.5508 32.6387 19.1489 32.2571 18.8607 32.4723C17.7159 33.3611 16.3844 33.9131 15.0732 34.5017C13.8094 35.0318 12.6272 35.7383 11.5617 36.6001C9.42228 38.3982 7.82282 40.7442 5.61849 42.4733C4.23487 43.5283 2.69911 44.3672 1.06369 44.9613C1.03983 44.9731 1.02084 44.9928 1.01002 45.0171C0.999203 45.0414 0.997241 45.0687 1.00448 45.0943C1.01172 45.1199 1.02771 45.1421 1.04965 45.1571C1.07159 45.1721 1.09811 45.179 1.12458 45.1765L1.13676 45.1643Z" fill="#73463B"/>
<path d="M20.858 31.6848C20.2735 32.0643 19.6193 32.3235 18.9335 32.4473C18.2477 32.5712 17.544 32.5571 16.8637 32.4059C16.1834 32.2548 15.5401 31.9696 14.9713 31.567C14.4024 31.1644 13.9196 30.6526 13.5508 30.0613C12.7389 28.7259 12.7065 27.0983 13.0312 25.5966C13.356 24.0948 14.0908 22.7838 15.4669 22.0816C17.1314 21.2414 19.0759 21.6757 20.586 22.6417L20.6835 22.2886C19.5184 22.2886 18.195 22.5849 17.6185 23.7173C17.042 24.8497 17.7728 25.7102 18.2721 26.6762C18.8973 27.8939 18.0447 28.9938 18.0569 30.2277C18.0668 30.7497 18.2691 31.2496 18.6249 31.6316C18.9808 32.0136 19.4652 32.2508 19.9852 32.2977C19.9649 32.1313 19.9406 31.9649 19.9203 31.7985C17.6997 32.659 15.3005 30.9867 14.4683 28.9573C13.5833 26.7777 14.0948 24.0867 16.2261 22.8487C16.742 22.5411 17.3212 22.3549 17.9197 22.3043C18.5183 22.2537 19.1205 22.3399 19.6807 22.5565C19.9852 22.6782 20.1314 22.1709 19.8188 22.0572C17.5292 21.2455 14.9067 22.6336 14.042 24.8457C13.6068 26.0595 13.5803 27.3822 13.9665 28.6125C14.3527 29.8427 15.1305 30.9131 16.1814 31.6605C16.7306 32.0653 17.3685 32.3332 18.0421 32.4419C18.7157 32.5506 19.4055 32.497 20.0542 32.2855C20.2653 32.2084 20.3262 31.8391 20.0542 31.7944C18.9297 31.6077 18.5197 30.5768 18.7552 29.5458C18.9622 28.6407 19.3763 27.7356 19.0393 26.8061C18.7349 25.9943 17.8215 25.2191 18.0285 24.2734C18.3005 23.1044 19.6523 22.7757 20.6835 22.6498C20.7241 22.647 20.7629 22.6314 20.7942 22.6054C20.8256 22.5794 20.848 22.5442 20.8584 22.5047C20.8687 22.4653 20.8663 22.4236 20.8517 22.3856C20.8371 22.3475 20.8109 22.315 20.7768 22.2927C20.0632 21.8319 19.2639 21.52 18.4268 21.3756C17.5897 21.2312 16.7321 21.2574 15.9054 21.4525C15.1109 21.649 14.3804 22.0469 13.7846 22.6078C13.1887 23.1688 12.7475 23.8738 12.5035 24.6549C11.9048 26.3427 11.9249 28.1881 12.5603 29.8624C12.8619 30.5723 13.3056 31.2129 13.8641 31.7448C14.4226 32.2767 15.0842 32.6886 15.8079 32.9553C16.6884 33.2464 17.6278 33.3116 18.5401 33.145C19.4523 32.9783 20.308 32.5851 21.0285 32.0014C21.2071 31.8594 21.0285 31.5468 20.8418 31.6848H20.858Z" fill="#73463B"/>
<path d="M20.0217 22.1749C17.6469 22.1222 16.0393 24.2044 15.7308 26.4043C15.5363 27.5818 15.6611 28.79 16.0921 29.903C16.3365 30.4348 16.6918 30.9082 17.1342 31.2916C17.5765 31.6749 18.0957 31.9593 18.6569 32.1257C19.2181 32.2922 19.8084 32.3367 20.3883 32.2565C20.9681 32.1763 21.5241 31.973 22.019 31.6605C22.2748 31.49 22.0434 31.0801 21.7714 31.2546C21.2285 31.5981 20.6038 31.7909 19.9617 31.813C19.3195 31.8351 18.6831 31.6858 18.1178 31.3804C17.5678 31.0397 17.1079 30.5716 16.7772 30.0155C16.4465 29.4595 16.2547 28.832 16.2179 28.1861C16.0398 26.8791 16.2966 25.5499 16.9487 24.4032C17.2646 23.8624 17.7142 23.4118 18.2545 23.0948C18.7948 22.7777 19.4076 22.605 20.0339 22.593C20.078 22.5804 20.1168 22.5538 20.1445 22.5172C20.1721 22.4805 20.187 22.4359 20.187 22.3901C20.187 22.3442 20.1721 22.2996 20.1445 22.2629C20.1168 22.2263 20.078 22.1997 20.0339 22.1871L20.0217 22.1749Z" fill="#73463B"/>
<path d="M18.5685 33.4424C17.114 35.6973 16.081 38.1975 15.5198 40.8214C15.0286 43.2567 15.3452 46.1588 17.3628 47.8554C17.9271 48.3262 18.739 47.5428 18.1747 47.0436C16.352 45.4201 16.1449 42.9117 16.4535 40.6063C16.8147 38.1513 17.6591 35.7923 18.9379 33.6656C19.084 33.4262 18.7106 33.207 18.5604 33.4465L18.5685 33.4424Z" fill="#73463B"/>
<path d="M17.2167 32.939C13.6727 32.2166 9.31681 30.8041 8.47648 26.7655C8.35064 26.1567 7.45348 26.4246 7.55091 27.0212C7.87161 28.9654 9.23561 30.5443 10.8635 31.5753C12.7512 32.7726 14.9717 33.1379 17.1558 33.3774C17.4034 33.4017 17.4602 32.9715 17.2167 32.939Z" fill="#73463B"/>
<path d="M24.9785 30.9746C23.768 31.0031 22.5875 31.3564 21.5603 31.9974C21.0461 32.3166 20.5811 32.709 20.1801 33.1623C19.7281 33.5979 19.4522 34.1844 19.4047 34.8102C19.4047 35.1106 19.8472 35.1025 19.8675 34.8102C19.9734 34.2373 20.2695 33.7167 20.7078 33.3328C21.0721 32.9451 21.4809 32.6017 21.9257 32.31C22.8393 31.7308 23.8862 31.3954 24.9663 31.3358C25.0096 31.3293 25.049 31.3075 25.0776 31.2744C25.1061 31.2413 25.1218 31.199 25.1218 31.1552C25.1218 31.1115 25.1061 31.0692 25.0776 31.0361C25.049 31.0029 25.0096 30.9811 24.9663 30.9746H24.9785Z" fill="#73463B"/>
<path d="M30.7715 32.6022C33.8648 34.5748 37.9609 36.86 41.5577 34.6601C44.3141 32.9716 45.1219 29.1075 43.4169 26.4044C41.6267 23.5632 37.7336 22.3455 34.7904 24.1923C34.0966 24.6269 33.5148 25.2185 33.0917 25.9193C32.6686 26.6201 32.4161 27.4105 32.3547 28.2268C32.2793 29.0135 32.4262 29.8055 32.7785 30.513C33.1309 31.2204 33.6746 31.8149 34.3479 32.2288C35.785 33.0406 37.8675 32.5007 38.3831 30.8285C38.9839 28.8762 37.1896 27.1146 35.2776 27.2486C35.2067 27.2514 35.1387 27.2767 35.0832 27.3208C35.0278 27.3649 34.9879 27.4256 34.9693 27.494C34.9508 27.5623 34.9545 27.6348 34.98 27.7009C35.0055 27.767 35.0514 27.8233 35.1111 27.8615C35.2747 27.9801 35.3936 28.1502 35.4488 28.3446C35.504 28.5389 35.4923 28.7461 35.4156 28.933C35.3346 29.1518 35.1816 29.3366 34.9816 29.4569C34.7817 29.5771 34.5467 29.6257 34.3154 29.5946C32.923 29.4972 32.6916 27.8574 33.1869 26.8265C33.1978 26.7998 33.2034 26.7713 33.2033 26.7425C33.2032 26.7137 33.1974 26.6852 33.1863 26.6586C33.1752 26.632 33.1589 26.6079 33.1385 26.5876C33.118 26.5673 33.0938 26.5513 33.0671 26.5403C33.0405 26.5294 33.0119 26.5238 32.9831 26.5239C32.9543 26.524 32.9258 26.5298 32.8992 26.5409C32.8727 26.552 32.8485 26.5683 32.8282 26.5887C32.8079 26.6092 32.7919 26.6334 32.7809 26.6601C32.6079 27.0375 32.5217 27.4489 32.5287 27.8641C32.5357 28.2792 32.6358 28.6875 32.8215 29.0588C33.0028 29.3619 33.2581 29.6139 33.5634 29.7914C33.8687 29.9688 34.2141 30.0659 34.5671 30.0736C34.8868 30.0623 35.1951 29.952 35.4493 29.7579C35.7035 29.5638 35.891 29.2955 35.986 28.9901C36.081 28.6847 36.0787 28.3574 35.9794 28.0534C35.8801 27.7494 35.6887 27.4837 35.4318 27.2932C35.375 27.4962 35.3222 27.6991 35.2654 27.9061C35.6374 27.883 36.0101 27.9379 36.3596 28.0672C36.7091 28.1965 37.0278 28.3974 37.2951 28.657C37.5605 28.9372 37.7452 29.2839 37.8295 29.6605C37.9139 30.0371 37.8947 30.4294 37.7742 30.796C37.2708 32.2247 35.3872 32.3709 34.287 31.6078C33.0692 30.7676 32.6632 29.1481 32.9758 27.7681C33.134 27.0515 33.4575 26.3817 33.9206 25.8123C34.3837 25.2429 34.9735 24.7896 35.6429 24.4886C36.9369 23.9173 38.3956 23.8406 39.7425 24.273C41.0893 24.7054 42.2306 25.6169 42.9501 26.8346C43.6242 28.0011 43.8265 29.3813 43.5155 30.6921C43.2046 32.003 42.4039 33.1453 41.2776 33.8848C39.808 34.8184 37.9366 34.8589 36.2803 34.5018C34.4048 34.0959 32.6916 33.1502 31.0029 32.245C30.9794 32.2312 30.9534 32.2221 30.9265 32.2183C30.8995 32.2144 30.872 32.2159 30.8456 32.2227C30.8193 32.2295 30.7945 32.2414 30.7727 32.2578C30.7509 32.2742 30.7326 32.2946 30.7187 32.3181C30.7048 32.3416 30.6957 32.3675 30.6919 32.3945C30.6881 32.4214 30.6896 32.4489 30.6964 32.4753C30.7032 32.5017 30.7151 32.5265 30.7314 32.5482C30.7478 32.57 30.7683 32.5884 30.7918 32.6022H30.7715Z" fill="#73463B"/>
<path d="M37.0272 31.9934C34.1205 32.5576 31.563 30.727 28.9649 29.761C26.5779 28.8721 23.8337 28.5434 21.5157 29.7935C20.3957 30.3733 19.5076 31.3185 18.9988 32.4723C18.8567 32.8092 19.3479 33.1055 19.4981 32.7605C20.4642 30.5566 22.9162 29.5134 25.2098 29.5865C26.5621 29.6424 27.8943 29.9322 29.1476 30.4429C30.402 30.9259 31.5833 31.5713 32.8661 31.9974C34.222 32.448 35.6875 32.6672 37.0759 32.2166C37.106 32.208 37.1315 32.1878 37.1467 32.1604C37.162 32.133 37.1657 32.1006 37.1571 32.0705C37.1485 32.0404 37.1282 32.0149 37.1008 31.9997C37.0734 31.9844 37.0411 31.9807 37.0109 31.9893L37.0272 31.9934Z" fill="#73463B"/>
<path d="M25.3397 38.9096C25.5652 39.7555 25.5369 40.6489 25.2585 41.4789C25.019 42.1811 24.5481 42.867 23.7768 43.0172C23.4764 43.074 23.6022 43.5367 23.9026 43.4758C24.7511 43.3013 25.2301 42.4652 25.498 41.7021C25.8108 40.7842 25.8335 39.7922 25.563 38.8609C25.551 38.8362 25.5308 38.8165 25.5058 38.8051C25.4808 38.7937 25.4526 38.7915 25.4261 38.7987C25.3996 38.8059 25.3765 38.8222 25.3607 38.8447C25.3449 38.8671 25.3375 38.8944 25.3397 38.9218V38.9096Z" fill="#73463B"/>
<path d="M24.8566 37.6595C24.1518 37.2026 23.3373 36.9433 22.498 36.9086C22.1471 36.9203 21.8027 37.0061 21.4872 37.1602C21.1473 37.3043 20.8727 37.5688 20.7159 37.903C20.6469 38.1222 20.9229 38.2399 21.0772 38.114C21.2314 37.9882 21.272 37.8908 21.3817 37.7934C21.4918 37.6968 21.6131 37.6137 21.7429 37.5458C22.0141 37.4118 22.3097 37.3344 22.6117 37.3185C23.3533 37.3119 24.0823 37.5099 24.7186 37.8908C24.8729 37.9679 25.0068 37.7406 24.8566 37.6595Z" fill="#73463B"/>
<path d="M39.7593 33.1866C41.9311 32.0664 42.5441 29.3429 41.5617 27.2242C41.1046 26.1715 40.285 25.3177 39.2518 24.8179C38.2186 24.3181 37.0403 24.2056 35.9311 24.5007C34.6985 24.8323 33.644 25.6318 32.992 26.729C32.923 26.8426 33.0935 26.9319 33.1666 26.8304C33.7764 26.0426 34.6132 25.4606 35.5641 25.1631C36.515 24.8655 37.5343 24.8666 38.4846 25.1663C40.4372 25.7995 41.6754 27.906 41.4967 29.9111C41.445 30.5332 41.2475 31.1344 40.9203 31.6661C40.5931 32.1978 40.1453 32.6449 39.6131 32.9715C39.5982 32.98 39.5851 32.9914 39.5746 33.005C39.564 33.0186 39.5563 33.0341 39.5518 33.0507C39.5472 33.0673 39.546 33.0846 39.5482 33.1016C39.5504 33.1187 39.5559 33.1352 39.5644 33.1501C39.5729 33.165 39.5843 33.1781 39.5979 33.1886C39.6115 33.1991 39.627 33.2069 39.6436 33.2114C39.6771 33.2206 39.7129 33.216 39.743 33.1988L39.7593 33.1866Z" fill="#73463B"/>
<path d="M39.7024 28.8924C39.4791 27.1025 37.5143 25.9538 35.8539 25.8036C34.1002 25.6453 32.5129 27.277 32.5454 28.9979C32.5454 29.0571 32.5689 29.1139 32.6108 29.1558C32.6527 29.1977 32.7095 29.2212 32.7687 29.2212C32.8279 29.2212 32.8847 29.1977 32.9266 29.1558C32.9684 29.1139 32.992 29.0571 32.992 28.9979C33.0077 28.6346 33.0966 28.2782 33.2535 27.9501C33.4104 27.622 33.632 27.3289 33.905 27.0886C34.178 26.8482 34.4967 26.6655 34.8421 26.5514C35.1875 26.4373 35.5524 26.3942 35.9148 26.4246C37.3722 26.5099 39.2355 27.3622 39.5684 28.9086C39.5684 28.9736 39.6943 28.9614 39.6862 28.9086L39.7024 28.8924Z" fill="#73463B"/>
<path d="M34.7457 35.3662C36.2987 37.5755 38.3409 39.3965 40.7132 40.6874C42.678 41.7143 45.9622 42.7939 47.7484 40.866C48.0001 40.594 47.5982 40.1881 47.3424 40.4601C46.5102 41.3084 45.2396 41.2718 44.1476 41.0811C42.9331 40.8622 41.7579 40.4641 40.6604 39.9C38.4771 38.7257 36.5828 37.0798 35.1151 35.0821C34.9527 34.8751 34.5914 35.1511 34.7457 35.3662Z" fill="#73463B"/>
<path d="M49.3154 41.2922C49.7902 40.6702 50.0715 39.9224 50.1245 39.1418C50.1775 38.3612 49.9998 37.5823 49.6134 36.9019C49.2271 36.2215 48.6492 35.6697 47.9517 35.3151C47.2542 34.9605 46.4677 34.8188 45.6903 34.9076C45.2932 34.9511 44.9152 35.1007 44.5959 35.3407C44.2766 35.5806 44.0278 35.9021 43.8757 36.2714C43.7579 36.5961 44.2816 36.8112 44.4399 36.5068C45.2518 35.0091 47.379 35.484 48.4467 36.385C49.1145 36.9738 49.5513 37.7807 49.6792 38.6617C49.8071 39.5427 49.6178 40.4405 49.1449 41.1948C49.08 41.3044 49.2424 41.3896 49.3154 41.2962V41.2922Z" fill="#73463B"/>
<path d="M32.1314 33.9904C33.9132 35.5876 35.3119 37.566 36.2234 39.7783C37.0109 41.7306 36.6293 44.2999 34.6645 45.4242C32.8946 46.4429 30.3655 45.7813 29.7931 43.691C29.6598 43.2489 29.6353 42.7811 29.7215 42.3275C29.8077 41.8738 30.0022 41.4477 30.2883 41.0852C30.6583 40.6662 31.154 40.378 31.7013 40.2639C32.2486 40.1498 32.8182 40.2158 33.3249 40.4521C33.6043 40.5722 33.8503 40.7583 34.0419 40.9944C34.2336 41.2305 34.365 41.5096 34.425 41.8077C34.4855 42.091 34.4571 42.386 34.3438 42.6526C34.2304 42.9191 34.0377 43.1443 33.7917 43.2973C33.5427 43.4522 33.2451 43.5093 32.9564 43.4576C32.6678 43.4059 32.4085 43.249 32.2288 43.0173C32.0917 42.7863 32.0498 42.5111 32.1119 42.2498C32.1741 41.9885 32.3353 41.7616 32.5617 41.6169L32.2247 41.483C32.3198 41.7506 32.5154 41.9707 32.7701 42.0965C33.0247 42.2223 33.3184 42.2439 33.5887 42.1568C33.8495 42.0467 34.0587 41.8417 34.174 41.5832C34.2893 41.3247 34.3021 41.0321 34.2099 40.7646C34.1124 40.4805 33.6496 40.6063 33.7552 40.8904C33.7905 40.9625 33.8108 41.0411 33.8149 41.1213C33.8189 41.2016 33.8066 41.2818 33.7787 41.3571C33.7508 41.4324 33.7078 41.5013 33.6525 41.5595C33.5971 41.6177 33.5305 41.664 33.4567 41.6957C33.3828 41.7274 33.3033 41.7437 33.223 41.7437C33.1427 41.7437 33.0631 41.7274 32.9893 41.6958C32.9155 41.6641 32.8489 41.6178 32.7935 41.5595C32.7381 41.5013 32.6952 41.4325 32.6672 41.3572C32.6572 41.3238 32.6397 41.2931 32.6162 41.2674C32.5926 41.2417 32.5635 41.2217 32.5311 41.2088C32.4987 41.1959 32.4638 41.1905 32.4291 41.193C32.3943 41.1955 32.3605 41.2059 32.3303 41.2232C32.1218 41.3629 31.9497 41.5502 31.828 41.7696C31.7064 41.989 31.6388 42.2343 31.6309 42.485C31.623 42.7357 31.6749 42.9848 31.7824 43.2114C31.8899 43.4381 32.0499 43.6359 32.2491 43.7884C33.3086 44.5515 34.7457 43.8615 35.0664 42.6722C35.4318 41.3207 34.5021 40.0502 33.2234 39.6687C32.5849 39.4875 31.9067 39.5025 31.2769 39.7116C30.6471 39.9208 30.0947 40.3146 29.6916 40.8417C29.3483 41.3342 29.1317 41.9036 29.0608 42.4997C28.99 43.0958 29.0672 43.7001 29.2856 44.2593C29.5015 44.8356 29.8628 45.3462 30.3344 45.7417C30.806 46.1371 31.3719 46.4039 31.9771 46.516C32.6073 46.6391 33.2564 46.6268 33.8814 46.4798C34.5064 46.3329 35.093 46.0546 35.6023 45.6636C36.1169 45.2333 36.5398 44.704 36.8459 44.1072C37.152 43.5104 37.3352 42.8582 37.3844 42.1892C37.5549 40.4277 36.7105 38.8488 35.8012 37.4079C34.8919 35.967 33.8201 34.5951 32.3506 33.755C32.1963 33.6697 32.0177 33.8808 32.1598 34.0066L32.1314 33.9904Z" fill="#73463B"/>
<path d="M59.0258 10.2541C59.107 11.8777 59.2532 13.5012 59.245 15.1247C59.2369 16.7483 59.245 18.3718 59.2085 19.9954C59.1841 22.6093 59.517 25.6169 57.8242 27.829C57.0752 28.8788 55.9547 29.6043 54.6902 29.8584C54.1286 29.934 53.557 29.8615 53.0321 29.6478C52.5073 29.4342 52.0475 29.087 51.6984 28.6407C50.1801 26.6844 51.268 23.2871 53.8986 23.0801C55.1611 22.9827 56.4967 23.8919 56.6388 25.1866C56.6795 25.4906 56.6496 25.7999 56.5514 26.0905C56.4532 26.381 56.2894 26.6451 56.0727 26.8622C55.856 27.0792 55.5922 27.2435 55.3018 27.3421C55.0113 27.4408 54.7021 27.4713 54.3979 27.4312C53.9149 27.3622 53.927 26.5504 54.3979 26.4652C55.0962 26.3394 55.6442 25.5276 55.2586 24.866C54.7877 24.0542 53.7362 24.0542 53.0421 24.5372C51.3208 25.7224 51.743 28.5961 53.8256 29.0831C54.9379 29.3388 56.1111 28.6773 56.8905 27.9426C57.6239 27.1962 58.1246 26.2529 58.3316 25.2272C58.8269 23.0923 58.6402 20.7625 58.6199 18.5951C58.6199 17.2435 58.5955 15.8919 58.6199 14.5362C58.6402 13.1116 58.7782 11.695 58.8594 10.2785C58.8594 10.2559 58.8684 10.2342 58.8843 10.2182C58.9003 10.2022 58.922 10.1932 58.9446 10.1932C58.9672 10.1932 58.9889 10.2022 59.0049 10.2182C59.0209 10.2342 59.0299 10.2559 59.0299 10.2785L59.0258 10.2541Z" fill="#73463B"/>
<path d="M58.9569 12.2267C59.1499 13.592 58.9794 14.984 58.4627 16.2624C57.946 17.5408 57.1012 18.6604 56.0137 19.5083C53.9108 21.1075 50.8012 21.3551 48.6334 19.7234C46.6037 18.1892 45.7106 15.3398 47.1436 13.0994C48.4954 10.9847 51.7349 10.1567 53.6389 12.0887C54.1501 12.6029 54.4995 13.2556 54.6438 13.9661C54.7881 14.6766 54.721 15.4139 54.4508 16.0867C54.1656 16.7429 53.6835 17.2943 53.0711 17.6644C52.4587 18.0345 51.7463 18.2052 51.0326 18.1526C50.5495 18.112 50.5333 17.3693 51.0326 17.3855C51.5772 17.3962 52.1136 17.2519 52.5794 16.9695C53.0451 16.6871 53.421 16.2782 53.6632 15.7904C53.8802 15.2928 53.9611 14.7464 53.8977 14.2073C53.8342 13.6681 53.6286 13.1555 53.3019 12.7219C52.935 12.2367 52.4447 11.8588 51.8821 11.6275C51.3195 11.3963 50.7051 11.32 50.103 11.4068C49.5105 11.4938 48.9482 11.7242 48.465 12.0779C47.9818 12.4316 47.5923 12.8978 47.3303 13.4362C46.2586 15.5266 47.2126 18.1161 49.0841 19.3946C50.9555 20.6732 53.5049 20.3809 55.3763 19.1755C57.7349 17.6656 58.5671 14.9096 58.7173 12.2754C58.7173 12.1455 58.9325 12.1009 58.9569 12.2429V12.2267Z" fill="#73463B"/>
<path d="M50.6267 17.414C51.7024 16.6022 51.739 14.8853 50.5049 14.2034C49.2708 13.5215 47.789 14.8122 47.4602 16.0015C47.355 16.3788 47.3368 16.775 47.4071 17.1603C47.4775 17.5456 47.6344 17.9099 47.8662 18.2257C48.0245 18.4368 47.6713 18.7087 47.5049 18.5058C47.2299 18.1829 47.0318 17.8017 46.9256 17.3911C46.8194 16.9805 46.8079 16.5511 46.8919 16.1354C47.0734 15.3234 47.5401 14.6034 48.2072 14.106C48.5211 13.8231 48.9065 13.6315 49.3215 13.5521C49.7366 13.4727 50.1655 13.5084 50.5617 13.6555C50.9202 13.8081 51.2328 14.0517 51.4684 14.362C51.7041 14.6724 51.8547 15.0388 51.9054 15.4251C51.9448 15.8693 51.8742 16.3164 51.7001 16.7269C51.526 17.1374 51.2535 17.4988 50.9068 17.7793C50.8832 17.8015 50.8553 17.8185 50.8247 17.8292C50.7942 17.84 50.7617 17.8442 50.7294 17.8416C50.6972 17.839 50.6658 17.8296 50.6374 17.8142C50.6089 17.7987 50.5841 17.7774 50.5644 17.7517C50.5447 17.726 50.5306 17.6965 50.523 17.665C50.5154 17.6335 50.5146 17.6008 50.5204 17.569C50.5263 17.5372 50.5388 17.5069 50.5571 17.4802C50.5754 17.4535 50.5991 17.4309 50.6267 17.414Z" fill="#73463B"/>
<path d="M52.6929 14.2075C52.7898 14.3621 52.8727 14.5251 52.9405 14.6945C52.9912 14.8753 53.0118 15.0631 53.0014 15.2506C52.9952 15.6225 52.9108 15.989 52.7538 16.3262C52.4146 17.0007 51.9 17.5713 51.2639 17.9781C51.0569 18.1202 50.858 17.7752 51.065 17.6372C51.6306 17.307 52.105 16.841 52.4453 16.2815C52.6106 15.9821 52.7128 15.6519 52.7457 15.3115C52.789 14.953 52.7444 14.5895 52.6158 14.2521C52.6117 14.2075 52.6929 14.1628 52.6929 14.2075Z" fill="#73463B"/>
<path d="M51.881 12.8802C50.9676 11.9345 49.4777 12.3729 48.5116 12.9695C48.0062 13.2631 47.6036 13.7053 47.3587 14.2359C47.1443 14.794 47.0651 15.3948 47.1273 15.9893C47.1273 16.2166 46.8025 16.2085 46.7782 15.9893C46.6895 15.3281 46.7691 14.6552 47.0095 14.033C47.3265 13.4352 47.8236 12.9524 48.4304 12.6529C49.5305 11.9954 51.0244 11.6991 51.9419 12.8194C51.9744 12.8599 51.9216 12.9168 51.8851 12.8802H51.881Z" fill="#73463B"/>
<path d="M56.7281 12.3161C57.1541 13.7437 57.0175 15.2802 56.3465 16.6104C55.675 17.8871 54.5693 18.8818 53.2287 19.415C52.553 19.7032 51.826 19.8517 51.0914 19.8517C50.3568 19.8517 49.6298 19.7032 48.954 19.415C48.289 19.1395 47.726 18.6642 47.3427 18.0549C46.9595 17.4456 46.775 16.7324 46.8147 16.0137C46.8219 15.9602 46.8484 15.9111 46.889 15.8756C46.9297 15.8401 46.9819 15.8205 47.0359 15.8205C47.0899 15.8205 47.1421 15.8401 47.1828 15.8756C47.2235 15.9111 47.2499 15.9602 47.2572 16.0137C47.4561 18.997 50.9107 19.8331 53.2531 18.8265C54.4489 18.2875 55.4237 17.3548 56.0147 16.184C56.6058 15.0132 56.7773 13.6752 56.5007 12.3932C56.4683 12.2511 56.6834 12.1903 56.7199 12.3323L56.7281 12.3161Z" fill="#73463B"/>
<path d="M55.3113 0.00116523C56.3465 -0.0394233 57.0772 0.987467 57.0934 1.96971C57.1178 3.35784 56.0258 4.49432 55.4696 5.67544C54.7836 7.1001 54.5116 9.06053 55.973 10.1158C57.1381 10.956 59.0907 10.5217 59.3587 8.95905C59.4926 8.16758 59.0948 7.2381 58.2545 7.04328C57.2639 6.81598 56.6307 8.14323 57.6415 8.5694C58.2058 8.80482 57.9744 9.73024 57.3817 9.507C56.9873 9.36952 56.655 9.09549 56.4451 8.73446C56.2351 8.37342 56.1613 7.94919 56.2369 7.53846C56.3156 7.14366 56.5344 6.79061 56.8529 6.54445C57.1715 6.29829 57.5684 6.1756 57.9703 6.19903C59.6388 6.30862 60.4385 8.25687 59.7565 9.65312C59.0298 11.1427 57.0041 11.4512 55.7294 10.5177C54.2152 9.4177 54.1828 7.48569 54.8485 5.89462C55.287 4.84338 56.0664 3.96667 56.4723 2.90325C56.8133 1.99406 56.586 0.415168 55.3194 0.467933C55.0271 0.467933 55.0312 0.0295772 55.3194 0.0174006L55.3113 0.00116523Z" fill="#73463B"/>
<path d="M54.4547 8.1557C54.3329 7.2871 54.6942 6.39822 54.8404 5.55803C54.9865 4.71785 54.9865 3.7762 54.3167 3.21608C53.6469 2.65595 52.839 2.99284 52.4615 3.68284C52.373 3.83201 52.3291 4.00336 52.3348 4.17668C52.3406 4.35 52.3958 4.51805 52.4939 4.66103C52.532 4.72111 52.5829 4.77203 52.643 4.81016C52.7031 4.84829 52.7708 4.87269 52.8414 4.88161C52.912 4.89052 52.9837 4.88375 53.0513 4.86175C53.119 4.83976 53.1809 4.8031 53.2328 4.75438C53.659 4.31602 54.3492 5.03038 53.8945 5.41191C53.7348 5.5484 53.5465 5.64732 53.3435 5.7014C53.1405 5.75548 52.9279 5.76333 52.7214 5.72439C52.515 5.68544 52.3199 5.60068 52.1506 5.47636C51.9812 5.35204 51.8419 5.19131 51.7429 5.00603C51.562 4.60199 51.5217 4.14899 51.6284 3.71934C51.7351 3.28969 51.9826 2.90817 52.3316 2.63566C52.6479 2.34744 53.0575 2.18269 53.4853 2.17151C53.9132 2.16033 54.3308 2.30347 54.6617 2.57478C54.9857 2.87047 55.2299 3.24302 55.3718 3.65802C55.5138 4.07303 55.5488 4.5171 55.4737 4.94921C55.4056 5.47405 55.2901 5.99165 55.1286 6.49563C54.9662 7.04357 54.885 7.63211 54.682 8.16788C54.6455 8.25717 54.4791 8.28964 54.4628 8.16788L54.4547 8.1557Z" fill="#73463B"/>
</svg>
