<svg width="149" height="119" viewBox="0 0 149 119" fill="none" xmlns="http://www.w3.org/2000/svg">
<g clip-path="url(#clip0_53_101)">
<path d="M114.364 93.2697C118.079 93.8634 119.661 99.1463 115.896 100.917C112.351 102.578 109.637 98.5828 109.557 95.403C109.557 93.8408 109.919 92.3001 110.614 90.9029C111.309 89.5056 112.319 88.2902 113.562 87.3529C114.998 86.3071 116.728 85.7499 118.501 85.7626C120.273 85.7752 121.996 86.3572 123.416 87.4234C124.992 88.4944 126.27 89.9522 127.129 91.6586C127.987 93.365 128.398 95.2634 128.322 97.174C128.126 99.0496 127.513 100.857 126.528 102.463C125.544 104.069 124.213 105.432 122.635 106.452C115.024 111.553 106.102 107.146 100.144 101.571C93.3751 95.242 88.7188 86.8599 80.8883 81.7581C77.0099 79.2476 72.6734 77.5373 68.131 76.7269C63.5949 75.9218 58.6182 75.8112 54.2322 77.4312C51.0189 78.7074 48.2681 80.9359 46.3454 83.8207C44.4226 86.7055 43.4189 90.1099 43.4677 93.5817C43.4122 97.1514 44.6028 100.628 46.8327 103.407C49.0626 106.187 52.1909 108.093 55.6742 108.796C57.4248 109.228 59.251 109.248 61.0103 108.853C62.7696 108.459 64.4143 107.661 65.8161 106.522C67.2179 105.383 68.3388 103.934 69.0912 102.288C69.8437 100.642 70.2073 98.8437 70.1538 97.0331C70.1116 95.1301 69.5218 93.2801 68.4556 91.7069C67.3893 90.1336 65.8923 88.9044 64.1456 88.168C62.2989 87.3892 60.2621 87.1849 58.2986 87.5813C56.3351 87.9777 54.5349 88.9567 53.1308 90.3918C51.799 91.7639 50.8823 93.4877 50.4872 95.3627C50.4523 95.5714 50.4957 95.7857 50.6089 95.9641C50.7221 96.1425 50.8971 96.2725 51.1001 96.3288C51.3031 96.3851 51.5196 96.3638 51.7079 96.269C51.8961 96.1742 52.0428 96.0127 52.1194 95.8156C52.6688 93.8918 53.9279 92.2511 55.6398 91.2283C57.3517 90.2054 59.3875 89.8775 61.3318 90.3113C63.0722 90.6838 64.6245 91.6651 65.712 93.0804C66.7995 94.4957 67.3516 96.2531 67.2699 98.0394C67.2063 99.73 66.7128 101.376 65.8363 102.821C64.9598 104.265 63.7296 105.46 62.2631 106.291C58.6582 108.203 54.2523 107.468 50.9078 105.365C44.2788 101.219 43.0772 92.4144 46.5619 85.7731C50.8777 77.5419 61.2718 77.0489 69.2626 79.1821C73.8658 80.4107 78.1475 82.6323 81.8095 85.6926C85.346 88.8636 88.5717 92.368 91.4425 96.1577C97.0501 103.01 103.769 110.245 113.042 111.252C121.053 112.177 129.484 106.713 130.706 98.4419C131.847 90.6132 124.768 82.5128 116.757 83.4386C109.917 84.1933 105.001 92.2937 107.574 98.7538C109.046 102.457 112.841 105.003 116.737 103.312C117.591 102.961 118.353 102.416 118.964 101.721C119.575 101.025 120.018 100.198 120.259 99.3024C120.5 98.407 120.533 97.4678 120.354 96.5577C120.176 95.6476 119.791 94.7911 119.23 94.0546C118.669 93.3626 117.962 92.8042 117.16 92.4196C116.359 92.0351 115.482 91.834 114.594 91.8308C113.803 91.8308 113.592 93.1389 114.404 93.2697H114.364Z" fill="#73463B"/>
<path d="M113.943 93.0287C114.036 93.2644 114.078 93.5175 114.066 93.7708C114.054 94.0242 113.988 94.2721 113.873 94.4978C113.612 94.986 113.196 95.3722 112.691 95.5946L112.501 95.6751C112.641 95.6148 112.391 95.6751 112.361 95.6751C112.174 95.7361 111.983 95.7832 111.79 95.816C111.91 95.816 111.61 95.816 111.62 95.816H111.329C111.149 95.8311 110.969 95.8311 110.789 95.816C110.04 95.7878 109.303 95.6206 108.616 95.3229C108.447 95.2602 108.26 95.2674 108.097 95.3429C107.934 95.4184 107.807 95.556 107.744 95.7254C107.682 95.8949 107.689 96.0823 107.764 96.2465C107.839 96.4107 107.976 96.5382 108.145 96.6009C109.827 97.6071 112.08 98.1405 113.733 96.7921C114.351 96.3081 114.789 95.6282 114.974 94.8628C115.16 94.0973 115.082 93.2914 114.754 92.5759C114.691 92.4681 114.589 92.3897 114.469 92.3576C114.349 92.3256 114.221 92.3426 114.113 92.4048C114.008 92.4696 113.931 92.5727 113.9 92.6926C113.868 92.8125 113.884 92.94 113.943 93.0488V93.0287Z" fill="#73463B"/>
<path d="M51.5786 96.4698C53.1295 95.9155 54.8344 95.9913 56.3305 96.681C57.8267 97.3707 58.9959 98.6199 59.5894 100.163C59.8583 100.877 59.9835 101.638 59.9577 102.402C59.9319 103.165 59.7557 103.916 59.4392 104.61C58.7783 105.949 57.5166 107.307 55.9145 107.086C55.2235 106.995 54.9131 108.032 55.6141 108.163C58.9986 108.786 61.7724 105.939 62.0427 102.709C62.162 100.991 61.6954 99.2833 60.7197 97.8675C59.7441 96.4518 58.3177 95.4123 56.6755 94.9202C55.7452 94.6742 54.7778 94.6026 53.8216 94.7089C52.8975 94.8425 52.0032 95.1352 51.1781 95.5742C50.6774 95.8057 51.0379 96.6811 51.5486 96.4698H51.5786Z" fill="#73463B"/>
<path d="M53.2509 78.3168C44.1786 81.4362 41.7954 92.2132 36.2279 98.9249C30.8767 105.217 23.6322 109.586 15.59 111.372C11.0299 112.379 6.32257 112.519 1.71125 111.785L2.1218 112.791C4.95563 109.068 5.97701 104.469 7.77944 100.223C9.37417 96.3133 11.6953 92.7446 14.6187 89.7076C17.5259 86.6861 21.2165 84.5424 25.2731 83.5191C29.6991 82.5128 34.2853 82.7543 38.8214 82.7141C43.6379 82.7141 48.5946 82.211 52.7602 79.5645L51.9692 78.5583C48.7748 81.0538 44.6993 81.9493 40.8141 82.704C36.9072 83.3031 33.0741 84.315 29.3786 85.7228C25.6858 87.3111 22.2972 89.5347 19.3651 92.2937C16.5852 95.0557 14.1201 98.1202 12.0152 101.43C9.4517 105.174 6.84819 108.947 3.23331 111.745C3.17095 111.783 3.11731 111.834 3.07587 111.894C3.03442 111.955 3.0061 112.023 2.99275 112.096C2.9794 112.168 2.98132 112.242 2.99839 112.313C3.01545 112.385 3.04728 112.452 3.09179 112.51C3.1363 112.568 3.19251 112.616 3.25676 112.651C3.32101 112.686 3.39186 112.707 3.46471 112.713C3.53756 112.719 3.61077 112.709 3.67959 112.684C3.74841 112.659 3.81129 112.62 3.86415 112.57C10.1526 107.669 13.4571 100.122 18.8144 94.3666C21.658 91.3249 25.0577 88.8618 28.8279 87.1114C32.6101 85.5027 36.586 84.3998 40.6539 83.831C44.9296 83.0864 49.2054 82.1607 52.7903 79.5746C53.4612 79.0916 52.8704 78.0149 52.1294 78.4476C43.9583 83.1971 33.9148 79.5645 25.0928 81.567C16.7816 83.4487 10.6033 90.1906 7.11855 97.6671C4.92558 102.396 4.06443 107.79 0.920181 112.036C0.867306 112.127 0.835983 112.229 0.828644 112.334C0.821304 112.439 0.838142 112.544 0.877857 112.642C0.917576 112.739 0.979092 112.826 1.05764 112.895C1.13618 112.965 1.22963 113.015 1.33073 113.043C9.461 114.552 17.8599 113.299 25.203 109.481C28.8793 107.616 32.236 105.173 35.1464 102.246C38.2341 98.9408 40.8006 95.1809 42.7567 91.0962C45.2701 86.2662 48.0539 80.9733 53.4712 79.0211C53.9218 78.8601 53.7315 78.1356 53.2709 78.2966L53.2509 78.3168Z" fill="#73463B"/>
<path d="M3.60382 111.966C10.6133 110.095 16.5313 105.838 21.6282 100.676C24.0815 98.1704 26.4347 95.5441 29.0482 93.1895C31.7114 90.8159 34.7032 88.8432 37.9302 87.333C41.5351 85.6224 45.3202 84.103 48.3843 81.4766L47.383 80.4704C36.8888 90.2612 28.0569 102.719 14.6387 108.736C11.0624 110.357 7.22742 111.324 3.31343 111.594C2.31208 111.664 2.31208 113.174 3.31343 113.133C18.1735 112.469 29.2685 100.736 38.8915 90.6738C41.8802 87.4605 45.0284 84.401 48.3243 81.5068C49.0252 80.9131 48.0339 79.9672 47.3229 80.5005C44.4991 82.7043 41.2146 84.0728 37.9803 85.5318C34.863 86.8462 31.9468 88.5977 29.3186 90.7342C24.0414 95.1919 20.0961 101.008 14.6588 105.295C11.2458 107.91 7.45763 109.99 3.42358 111.463C3.36473 111.492 3.31788 111.541 3.2912 111.601C3.26452 111.662 3.25968 111.729 3.27754 111.793C3.2954 111.856 3.33484 111.911 3.38896 111.948C3.44308 111.986 3.50848 112.003 3.57378 111.996L3.60382 111.966Z" fill="#73463B"/>
<path d="M52.2495 78.5486C50.8078 79.4894 49.1939 80.132 47.5023 80.439C45.8106 80.7459 44.075 80.711 42.3969 80.3362C40.7188 79.9615 39.1319 79.2545 37.7288 78.2564C36.3257 77.2584 35.1346 75.9894 34.2251 74.5235C32.2224 71.2129 32.1423 67.1779 32.9434 63.4547C33.7445 59.7316 35.5569 56.4813 38.9515 54.7405C43.0571 52.6576 47.8535 53.7343 51.5786 56.1292L51.8189 55.2537C48.945 55.2537 45.6806 55.9883 44.2587 58.7957C42.8368 61.6032 44.6392 63.7365 45.8709 66.1314C47.4129 69.1501 45.3101 71.8771 45.3401 74.9361C45.3645 76.2301 45.8635 77.4695 46.7413 78.4166C47.619 79.3636 48.8139 79.9517 50.0966 80.068C50.0465 79.6555 49.9864 79.2429 49.9364 78.8303C44.459 80.9636 38.541 76.8178 36.4882 71.7865C34.3052 66.3829 35.5669 59.7114 40.824 56.6423C42.0966 55.8797 43.5252 55.4181 45.0017 55.2926C46.4781 55.1671 47.9636 55.3809 49.3456 55.9178C50.0966 56.2197 50.4571 54.9619 49.686 54.6801C44.0384 52.6676 37.5696 56.109 35.4368 61.5931C34.3632 64.6023 34.2977 67.8817 35.2504 70.9317C36.2031 73.9817 38.1216 76.6353 40.7139 78.4882C42.0686 79.4918 43.6421 80.156 45.3036 80.4255C46.9651 80.695 48.6667 80.5621 50.2668 80.0378C50.7875 79.8466 50.9377 78.9309 50.2668 78.8203C47.4931 78.3574 46.4817 75.8015 47.0625 73.2456C47.5732 71.0016 48.5945 68.7577 47.7634 66.4534C47.0124 64.4408 44.7594 62.5189 45.2701 60.1743C45.941 57.2763 49.2755 56.4612 51.8189 56.1493C51.9192 56.1422 52.0148 56.1037 52.0922 56.0392C52.1696 55.9747 52.2249 55.8874 52.2503 55.7896C52.2758 55.6918 52.27 55.5885 52.234 55.4942C52.1979 55.3998 52.1333 55.3193 52.0492 55.2638C50.289 54.1215 48.3174 53.3482 46.2526 52.9903C44.1878 52.6324 42.0723 52.6972 40.033 53.1808C38.0732 53.668 36.2715 54.6545 34.8017 56.0451C33.3318 57.4358 32.2435 59.1837 31.6416 61.1202C30.1648 65.3044 30.2145 69.8796 31.7818 74.0305C32.5256 75.7903 33.6201 77.3785 34.9978 78.6972C36.3755 80.0159 38.0073 81.0372 39.7926 81.6982C41.9643 82.4199 44.2817 82.5817 46.5319 82.1685C48.782 81.7553 50.8927 80.7804 52.67 79.3334C53.1106 78.9813 52.6701 78.2064 52.2094 78.5486H52.2495Z" fill="#73463B"/>
<path d="M50.1867 54.9717C44.3288 54.8409 40.3634 60.003 39.6024 65.4569C39.1226 68.3763 39.4304 71.3715 40.4936 74.1308C41.0965 75.4492 41.9729 76.623 43.064 77.5734C44.1551 78.5237 45.4357 79.2288 46.8201 79.6414C48.2044 80.054 49.6605 80.1645 51.0908 79.9655C52.5211 79.7666 53.8926 79.2628 55.1133 78.4879C55.7442 78.0653 55.1734 77.049 54.5025 77.4816C53.1633 78.3333 51.6225 78.8111 50.0385 78.866C48.4546 78.9208 46.8847 78.5506 45.4903 77.7936C44.1336 76.949 42.9993 75.7883 42.1835 74.4098C41.3678 73.0313 40.8946 71.4756 40.804 69.8743C40.3646 66.6342 40.998 63.3387 42.6064 60.496C43.3856 59.1551 44.4949 58.038 45.8276 57.2521C47.1603 56.4662 48.6717 56.0378 50.2167 56.0081C50.3255 55.9769 50.4212 55.9109 50.4894 55.8201C50.5575 55.7293 50.5944 55.6187 50.5944 55.505C50.5944 55.3913 50.5575 55.2807 50.4894 55.1899C50.4212 55.0991 50.3255 55.0331 50.2167 55.0019L50.1867 54.9717Z" fill="#73463B"/>
<path d="M46.6019 82.9054C43.0142 88.4957 40.4661 94.6941 39.0817 101.199C37.8701 107.237 38.6511 114.431 43.6279 118.638C45.0197 119.805 47.0224 117.863 45.6306 116.625C41.1345 112.6 40.6238 106.381 41.3848 100.666C42.2758 94.5795 44.3587 88.7311 47.5131 83.4588C47.8736 82.8651 46.9523 82.3217 46.5818 82.9154L46.6019 82.9054Z" fill="#73463B"/>
<path d="M43.2674 81.6577C34.5256 79.8666 23.7811 76.3648 21.7083 66.3525C21.3979 64.8432 19.1849 65.5073 19.4252 66.9865C20.2163 71.8065 23.5808 75.7208 27.5962 78.2767C32.2525 81.2452 37.7299 82.1508 43.1172 82.7445C43.728 82.8049 43.8682 81.7382 43.2674 81.6577Z" fill="#73463B"/>
<path d="M62.4133 76.7876C59.4274 76.8582 56.5154 77.7341 53.9819 79.3234C52.7133 80.1145 51.5663 81.0874 50.5773 82.2113C49.4624 83.2911 48.7817 84.7452 48.6647 86.2967C48.6647 87.0414 49.7562 87.0212 49.8062 86.2967C50.0674 84.8762 50.7977 83.5858 51.879 82.634C52.7774 81.6727 53.7858 80.8215 54.8831 80.0982C57.1366 78.6623 59.7189 77.8308 62.3832 77.6832C62.4899 77.667 62.5873 77.613 62.6577 77.5308C62.7281 77.4486 62.7668 77.3438 62.7668 77.2354C62.7668 77.127 62.7281 77.0221 62.6577 76.94C62.5873 76.8578 62.4899 76.8037 62.3832 76.7876H62.4133Z" fill="#73463B"/>
<path d="M76.7026 80.8224C84.3329 85.7128 94.4365 91.378 103.309 85.9241C110.108 81.7381 112.1 72.1585 107.895 65.4569C103.479 58.4131 93.8758 55.3943 86.616 59.9728C84.9047 61.0503 83.4693 62.5169 82.4257 64.2543C81.3821 65.9917 80.7594 67.9513 80.6079 69.975C80.422 71.9253 80.7842 73.889 81.6533 75.6428C82.5224 77.3967 83.8636 78.8704 85.5245 79.8967C89.0693 81.9092 94.2062 80.5708 95.4779 76.4251C96.9599 71.585 92.534 67.2178 87.8176 67.5499C87.6429 67.5567 87.475 67.6194 87.3383 67.7288C87.2015 67.8382 87.1031 67.9887 87.0573 68.1582C87.0115 68.3277 87.0207 68.5074 87.0836 68.6713C87.1465 68.8352 87.2598 68.9746 87.407 69.0693C87.8104 69.3634 88.1038 69.7852 88.24 70.267C88.3762 70.7488 88.3473 71.2625 88.1581 71.7258C87.9584 72.2684 87.5809 72.7264 87.0877 73.0245C86.5944 73.3226 86.0148 73.4431 85.4444 73.366C82.0097 73.1245 81.439 69.0593 82.6606 66.5034C82.6876 66.4373 82.7013 66.3665 82.7011 66.2951C82.7008 66.2237 82.6866 66.1531 82.6591 66.0872C82.6317 66.0213 82.5916 65.9615 82.5412 65.9112C82.4908 65.8609 82.431 65.821 82.3652 65.794C82.2995 65.7669 82.2291 65.7531 82.158 65.7533C82.0869 65.7536 82.0166 65.7679 81.9511 65.7955C81.8855 65.823 81.826 65.8633 81.7759 65.914C81.7259 65.9646 81.6862 66.0247 81.6593 66.0908C81.2324 67.0265 81.0198 68.0465 81.0371 69.0757C81.0544 70.1049 81.3012 71.1171 81.7594 72.0378C82.2066 72.789 82.8363 73.4139 83.5893 73.8538C84.3424 74.2938 85.1943 74.5345 86.0652 74.5534C86.8537 74.5256 87.6141 74.2521 88.2412 73.7709C88.8682 73.2897 89.3309 72.6245 89.5651 71.8674C89.7994 71.1103 89.7937 70.2987 89.5488 69.545C89.3039 68.7914 88.8319 68.1328 88.1981 67.6606C88.0579 68.1637 87.9277 68.6668 87.7876 69.18C88.7051 69.1227 89.6244 69.2587 90.4866 69.5793C91.3488 69.8999 92.1348 70.3979 92.7943 71.0416C93.449 71.7362 93.9044 72.5958 94.1125 73.5294C94.3205 74.463 94.2733 75.4357 93.9759 76.3446C92.7342 79.8866 88.088 80.2488 85.3743 78.3571C82.3702 76.2741 81.3689 72.2592 82.1399 68.8379C82.5301 67.0612 83.3281 65.4007 84.4704 63.989C85.6126 62.5773 87.0675 61.4535 88.7188 60.7073C91.9107 59.291 95.5089 59.1008 98.8311 60.1728C102.153 61.2448 104.969 63.5045 106.743 66.5235C108.406 69.4155 108.905 72.8371 108.138 76.087C107.371 79.3368 105.396 82.1687 102.618 84.0022C98.9927 86.3166 94.3765 86.4172 90.2909 85.5317C85.6647 84.5254 81.439 82.1809 77.2733 79.9369C77.2155 79.9025 77.1515 79.88 77.0849 79.8705C77.0184 79.861 76.9506 79.8648 76.8855 79.8816C76.8205 79.8984 76.7593 79.9279 76.7056 79.9685C76.6518 80.0091 76.6066 80.0599 76.5724 80.118C76.5382 80.1762 76.5157 80.2405 76.5063 80.3074C76.4969 80.3742 76.5006 80.4423 76.5173 80.5077C76.5341 80.5731 76.5635 80.6346 76.6039 80.6886C76.6442 80.7426 76.6948 80.788 76.7526 80.8224H76.7026Z" fill="#73463B"/>
<path d="M92.1334 79.313C84.9637 80.7117 78.6552 76.1735 72.2466 73.7786C66.3586 71.5749 59.5895 70.7598 53.8717 73.8591C51.1091 75.2965 48.9185 77.6399 47.6633 80.5004C47.3129 81.3356 48.5245 82.0702 48.895 81.2148C51.2782 75.7509 57.3264 73.1648 62.984 73.3459C66.3195 73.4846 69.6058 74.2029 72.6972 75.4691C75.7914 76.6666 78.7053 78.2665 81.8696 79.3231C85.2141 80.44 88.829 80.9834 92.2536 79.8665C92.328 79.8451 92.3908 79.795 92.4284 79.727C92.466 79.6591 92.4751 79.5789 92.4539 79.5042C92.4326 79.4295 92.3827 79.3663 92.3151 79.3286C92.2475 79.2908 92.1677 79.2816 92.0934 79.303L92.1334 79.313Z" fill="#73463B"/>
<path d="M63.3044 96.4596C63.8605 98.5566 63.7908 100.772 63.1041 102.829C62.5133 104.57 61.3518 106.271 59.4492 106.643C58.7082 106.784 59.0186 107.931 59.7596 107.78C61.8524 107.347 63.034 105.274 63.6949 103.383C64.4665 101.107 64.5224 98.6476 63.8551 96.3388C63.8256 96.2776 63.7757 96.2286 63.714 96.2005C63.6523 96.1723 63.5828 96.1667 63.5174 96.1846C63.4521 96.2025 63.395 96.2428 63.3561 96.2986C63.3172 96.3543 63.2989 96.4219 63.3044 96.4898V96.4596Z" fill="#73463B"/>
<path d="M62.1129 93.3606C60.3744 92.228 58.3652 91.5852 56.295 91.499C55.4295 91.5282 54.5798 91.7408 53.8017 92.1229C52.9633 92.4802 52.2858 93.1359 51.8991 93.9644C51.7289 94.5077 52.4098 94.7995 52.7903 94.4876C53.1708 94.1757 53.271 93.9342 53.5413 93.6927C53.813 93.4531 54.1122 93.247 54.4325 93.0788C55.1013 92.7466 55.8304 92.5548 56.5754 92.5153C58.4047 92.4989 60.203 92.9898 61.7724 93.9342C62.153 94.1254 62.4834 93.5618 62.1129 93.3606Z" fill="#73463B"/>
<path d="M98.8725 82.2714C104.23 79.4941 105.742 72.7421 103.319 67.4895C102.191 64.8797 100.169 62.763 97.6208 61.524C95.0721 60.285 92.1657 60.0059 89.4297 60.7375C86.3893 61.5597 83.7882 63.5418 82.18 66.2618C82.0097 66.5436 82.4303 66.765 82.6105 66.5134C84.1147 64.5602 86.1788 63.1174 88.5244 62.3797C90.87 61.642 93.3843 61.6448 95.7283 62.3878C100.545 63.9575 103.599 69.18 103.158 74.1509C103.031 75.6932 102.544 77.1837 101.736 78.5018C100.929 79.8199 99.8246 80.9285 98.512 81.7381C98.4752 81.7592 98.4429 81.7875 98.4169 81.8211C98.391 81.8548 98.3718 81.8933 98.3607 81.9345C98.3495 81.9756 98.3465 82.0185 98.3519 82.0608C98.3572 82.103 98.3708 82.1438 98.3919 82.1808C98.4129 82.2178 98.441 82.2503 98.4745 82.2764C98.508 82.3025 98.5464 82.3217 98.5873 82.3329C98.6699 82.3556 98.7581 82.3443 98.8325 82.3016L98.8725 82.2714Z" fill="#73463B"/>
<path d="M98.7323 71.6254C98.1816 67.1878 93.335 64.3401 89.2395 63.9678C84.9136 63.5754 80.9983 67.6205 81.0784 71.8871C81.0784 72.0338 81.1365 72.1746 81.2398 72.2784C81.343 72.3822 81.4831 72.4405 81.6292 72.4405C81.7753 72.4405 81.9153 72.3822 82.0186 72.2784C82.1219 72.1746 82.1799 72.0338 82.1799 71.8871C82.2186 70.9863 82.4381 70.1026 82.8251 69.2892C83.2121 68.4758 83.7587 67.7493 84.4321 67.1535C85.1054 66.5576 85.8917 66.1046 86.7436 65.8218C87.5956 65.5389 88.4956 65.432 89.3897 65.5074C92.9845 65.7187 97.5807 67.8318 98.4019 71.6657C98.4019 71.8267 98.7123 71.7965 98.6922 71.6657L98.7323 71.6254Z" fill="#73463B"/>
<path d="M86.5058 87.6754C90.3367 93.1526 95.3741 97.6672 101.226 100.867C106.072 103.413 114.173 106.09 118.579 101.31C119.2 100.636 118.209 99.6297 117.578 100.304C115.525 102.407 112.391 102.316 109.697 101.843C106.702 101.301 103.803 100.314 101.096 98.9153C95.71 96.004 91.0373 91.9237 87.4171 86.971C87.0165 86.4578 86.1253 87.1421 86.5058 87.6754Z" fill="#73463B"/>
<path d="M122.444 102.366C123.615 100.825 124.309 98.9706 124.44 97.0354C124.571 95.1002 124.132 93.169 123.179 91.4822C122.226 89.7954 120.801 88.4274 119.08 87.5483C117.36 86.6692 115.42 86.3179 113.502 86.538C112.523 86.6459 111.59 87.0167 110.803 87.6116C110.015 88.2065 109.402 89.0036 109.026 89.9191C108.736 90.7241 110.028 91.2574 110.418 90.5027C112.421 86.7896 117.668 87.9669 120.301 90.2008C121.949 91.6605 123.026 93.6609 123.342 95.845C123.657 98.0292 123.19 100.255 122.024 102.125C121.864 102.397 122.264 102.608 122.444 102.377V102.366Z" fill="#73463B"/>
<path d="M80.0571 84.2639C84.4523 88.2236 87.9024 93.1284 90.1508 98.6131C92.0934 103.453 91.1521 109.823 86.3056 112.61C81.9397 115.136 75.7012 113.496 74.2893 108.313C73.9607 107.217 73.9001 106.058 74.1128 104.933C74.3255 103.808 74.8051 102.752 75.511 101.853C76.4236 100.814 77.6463 100.1 78.9963 99.817C80.3464 99.534 81.7513 99.6977 83.0011 100.283C83.6902 100.581 84.2972 101.043 84.7699 101.628C85.2425 102.213 85.5668 102.905 85.7148 103.644C85.8639 104.347 85.7939 105.078 85.5143 105.739C85.2348 106.4 84.7593 106.958 84.1526 107.337C83.5384 107.721 82.8043 107.863 82.0923 107.735C81.3802 107.606 80.7407 107.218 80.2974 106.643C79.9593 106.07 79.856 105.388 80.0092 104.74C80.1624 104.093 80.5602 103.53 81.1186 103.171L80.2874 102.839C80.5219 103.503 81.0044 104.048 81.6326 104.36C82.2608 104.672 82.9851 104.726 83.652 104.51C84.2952 104.237 84.8112 103.729 85.0957 103.088C85.3801 102.447 85.4117 101.722 85.184 101.058C84.9437 100.354 83.8022 100.666 84.0625 101.37C84.1497 101.549 84.1998 101.744 84.2098 101.943C84.2198 102.142 84.1894 102.34 84.1205 102.527C84.0516 102.714 83.9457 102.885 83.8092 103.029C83.6726 103.173 83.5083 103.288 83.3262 103.367C83.1441 103.445 82.948 103.486 82.7498 103.486C82.5516 103.486 82.3555 103.445 82.1734 103.367C81.9913 103.288 81.8269 103.173 81.6903 103.029C81.5538 102.885 81.4478 102.714 81.3789 102.527C81.3541 102.445 81.3111 102.369 81.2529 102.305C81.1948 102.241 81.1231 102.192 81.0432 102.16C80.9633 102.128 80.8772 102.114 80.7914 102.121C80.7056 102.127 80.6223 102.152 80.5478 102.195C80.0336 102.542 79.6089 103.006 79.3089 103.55C79.0089 104.094 78.8422 104.702 78.8226 105.323C78.8031 105.945 78.9312 106.562 79.1964 107.124C79.4615 107.686 79.8561 108.177 80.3475 108.555C82.961 110.447 86.5058 108.736 87.2969 105.788C88.1981 102.437 85.905 99.2873 82.7508 98.3414C81.1759 97.8922 79.503 97.9293 77.9494 98.4479C76.3958 98.9665 75.0333 99.9426 74.039 101.249C73.1922 102.47 72.6578 103.882 72.4832 105.36C72.3085 106.838 72.4989 108.336 73.0376 109.722C73.5701 111.151 74.4613 112.417 75.6246 113.397C76.7879 114.378 78.1838 115.039 79.6766 115.317C81.231 115.622 82.8322 115.592 84.3739 115.227C85.9156 114.863 87.3626 114.173 88.6187 113.204C89.888 112.137 90.9312 110.825 91.6863 109.345C92.4415 107.866 92.8932 106.249 93.0146 104.59C93.4352 100.223 91.3524 96.3088 89.1093 92.7366C86.8663 89.1643 84.2227 85.7632 80.5978 83.6802C80.2173 83.4689 79.7767 83.9922 80.1272 84.3041L80.0571 84.2639Z" fill="#73463B"/>
<path d="M146.397 25.418C146.597 29.4431 146.957 33.4681 146.937 37.4931C146.917 41.5181 146.937 45.5432 146.847 49.5682C146.787 56.0485 147.608 63.5049 143.433 68.989C141.585 71.5917 138.821 73.3905 135.702 74.0203C134.317 74.2078 132.907 74.0279 131.612 73.4983C130.318 72.9687 129.183 72.1079 128.322 71.0015C124.577 66.1513 127.261 57.729 133.75 57.2158C136.864 56.9743 140.158 59.2283 140.509 62.4382C140.609 63.1919 140.535 63.9586 140.293 64.679C140.051 65.3994 139.647 66.054 139.112 66.5921C138.578 67.1303 137.927 67.5375 137.211 67.7821C136.494 68.0267 135.731 68.1023 134.981 68.0028C133.79 67.8318 133.82 65.8193 134.981 65.6079C136.704 65.296 138.055 63.2835 137.104 61.6433C135.943 59.6308 133.349 59.6308 131.637 60.8282C127.391 63.7665 128.432 70.8908 133.569 72.0983C136.313 72.7323 139.207 71.092 141.13 69.2707C142.939 67.4204 144.174 65.0816 144.684 62.5389C145.906 57.246 145.445 51.47 145.395 46.0966C145.395 42.7458 145.335 39.3949 145.395 36.034C145.445 32.5021 145.786 28.9902 145.986 25.4784C145.986 25.4224 146.008 25.3686 146.048 25.329C146.087 25.2894 146.141 25.2671 146.196 25.2671C146.252 25.2671 146.306 25.2894 146.345 25.329C146.385 25.3686 146.407 25.4224 146.407 25.4784L146.397 25.418Z" fill="#73463B"/>
<path d="M146.227 30.3082C146.703 33.693 146.282 37.144 145.008 40.3134C143.733 43.4828 141.649 46.2585 138.967 48.3604C133.78 52.3251 126.109 52.9389 120.762 48.8938C115.755 45.0901 113.552 38.0262 117.087 32.4716C120.422 27.229 128.412 25.1763 133.109 29.9661C134.37 31.2408 135.232 32.8589 135.588 34.6204C135.944 36.3819 135.778 38.2097 135.112 39.8777C134.408 41.5046 133.219 42.8715 131.708 43.7891C130.198 44.7068 128.441 45.1298 126.68 44.9995C125.489 44.8989 125.448 43.0575 126.68 43.0977C128.023 43.1242 129.347 42.7665 130.495 42.0663C131.644 41.3662 132.571 40.3524 133.169 39.1431C133.704 37.9094 133.904 36.555 133.747 35.2183C133.591 33.8817 133.083 32.6109 132.278 31.5358C131.373 30.3331 130.163 29.3962 128.775 28.8228C127.388 28.2493 125.872 28.0604 124.387 28.2755C122.926 28.4913 121.539 29.0624 120.347 29.9392C119.155 30.816 118.194 31.9721 117.548 33.3068C114.904 38.4891 117.257 44.909 121.874 48.0787C126.49 51.2484 132.778 50.5239 137.395 47.5353C143.212 43.792 145.265 36.9595 145.636 30.4289C145.636 30.1069 146.166 29.9962 146.227 30.3484V30.3082Z" fill="#73463B"/>
<path d="M125.679 43.1686C128.332 41.1561 128.422 36.8996 125.378 35.2091C122.334 33.5186 118.679 36.7185 117.868 39.6668C117.609 40.6022 117.564 41.5846 117.737 42.5398C117.911 43.4951 118.298 44.3982 118.87 45.1811C119.26 45.7044 118.389 46.3786 117.978 45.8755C117.3 45.0749 116.811 44.13 116.549 43.112C116.287 42.094 116.259 41.0295 116.466 39.9989C116.914 37.9859 118.065 36.2008 119.711 34.9676C120.485 34.2662 121.436 33.7913 122.459 33.5944C123.483 33.3975 124.541 33.4861 125.518 33.8507C126.403 34.2292 127.174 34.833 127.755 35.6024C128.336 36.3718 128.708 37.2802 128.833 38.238C128.93 39.3392 128.756 40.4475 128.327 41.4652C127.897 42.483 127.225 43.379 126.37 44.0742C126.312 44.1293 126.243 44.1715 126.167 44.1981C126.092 44.2247 126.012 44.2352 125.932 44.2287C125.853 44.2223 125.775 44.1991 125.705 44.1608C125.635 44.1224 125.574 44.0697 125.525 44.006C125.476 43.9423 125.442 43.8691 125.423 43.791C125.404 43.713 125.402 43.6319 125.417 43.553C125.431 43.4741 125.462 43.3991 125.507 43.3329C125.552 43.2667 125.611 43.2107 125.679 43.1686Z" fill="#73463B"/>
<path d="M130.776 35.2192C131.015 35.6025 131.219 36.0067 131.386 36.4267C131.512 36.8748 131.562 37.3406 131.537 37.8053C131.521 38.7273 131.313 39.6358 130.926 40.4719C130.089 42.144 128.82 43.5588 127.251 44.5673C126.74 44.9195 126.249 44.0642 126.76 43.7221C128.155 42.9034 129.325 41.7483 130.165 40.3612C130.573 39.6188 130.825 38.8003 130.906 37.9562C131.013 37.0676 130.903 36.1662 130.585 35.3299C130.575 35.2192 130.776 35.1085 130.776 35.2192Z" fill="#73463B"/>
<path d="M128.773 31.9287C126.52 29.5841 122.845 30.6709 120.462 32.1501C119.215 32.8778 118.222 33.9741 117.618 35.2896C117.089 36.6731 116.894 38.1627 117.047 39.6366C117.047 40.2001 116.246 40.18 116.186 39.6366C115.967 37.9974 116.163 36.3292 116.757 34.7865C117.539 33.3046 118.765 32.1077 120.261 31.3652C122.975 29.7351 126.66 29.0005 128.923 31.7778C129.003 31.8784 128.873 32.0193 128.783 31.9287H128.773Z" fill="#73463B"/>
<path d="M140.729 30.5298C141.78 34.0691 141.443 37.8783 139.788 41.176C138.132 44.3412 135.404 46.8073 132.097 48.1293C130.431 48.8437 128.637 49.2119 126.825 49.2119C125.013 49.2119 123.22 48.8437 121.553 48.1293C119.913 47.4462 118.524 46.2679 117.579 44.7574C116.633 43.2468 116.178 41.4785 116.276 39.6968C116.294 39.5642 116.359 39.4425 116.459 39.3545C116.56 39.2664 116.689 39.2179 116.822 39.2179C116.955 39.2179 117.084 39.2664 117.184 39.3545C117.284 39.4425 117.35 39.5642 117.368 39.6968C117.858 47.0928 126.38 49.1657 132.158 46.6702C135.107 45.3341 137.512 43.0217 138.97 40.1191C140.427 37.2165 140.851 33.8993 140.168 30.721C140.088 30.3688 140.619 30.2179 140.709 30.5701L140.729 30.5298Z" fill="#73463B"/>
<path d="M137.234 -4.08993e-05C139.788 -0.100667 141.59 2.44516 141.63 4.88031C141.69 8.32171 138.997 11.1392 137.625 14.0674C135.933 17.5994 135.262 22.4596 138.867 25.0759C141.74 27.1588 146.557 26.0822 147.218 22.2081C147.548 20.2459 146.567 17.9415 144.494 17.4585C142.051 16.895 140.489 20.1855 142.982 21.2421C144.374 21.8257 143.803 24.1199 142.341 23.5665C141.368 23.2257 140.549 22.5463 140.031 21.6512C139.513 20.7562 139.331 19.7044 139.517 18.6862C139.712 17.7074 140.251 16.8321 141.037 16.2219C141.823 15.6116 142.802 15.3074 143.793 15.3655C147.909 15.6372 149.881 20.4672 148.199 23.9288C146.407 27.6217 141.41 28.3865 138.266 26.0721C134.531 23.3451 134.451 18.5553 136.093 14.6108C137.174 12.0046 139.097 9.83109 140.098 7.1947C140.939 4.94068 140.379 1.02634 137.254 1.15716C136.533 1.15716 136.543 0.0703971 137.254 0.0402094L137.234 -4.08993e-05Z" fill="#73463B"/>
<path d="M135.121 20.2157C134.821 18.0623 135.712 15.8586 136.073 13.7757C136.433 11.6927 136.433 9.35822 134.781 7.96959C133.129 6.58095 131.136 7.41614 130.205 9.12678C129.987 9.49659 129.878 9.92139 129.892 10.3511C129.907 10.7808 130.043 11.1974 130.285 11.5519C130.379 11.7008 130.504 11.8271 130.653 11.9216C130.801 12.0161 130.968 12.0766 131.142 12.0987C131.316 12.1208 131.493 12.104 131.66 12.0495C131.827 11.995 131.98 11.9041 132.107 11.7833C133.159 10.6965 134.861 12.4676 133.74 13.4134C133.346 13.7518 132.881 13.9971 132.38 14.1311C131.88 14.2652 131.355 14.2847 130.846 14.1881C130.337 14.0916 129.856 13.8814 129.438 13.5732C129.02 13.265 128.677 12.8665 128.432 12.4072C127.986 11.4055 127.887 10.2824 128.15 9.21726C128.413 8.15209 129.024 7.20623 129.884 6.53064C130.665 5.8161 131.675 5.40764 132.73 5.37993C133.786 5.35221 134.816 5.70709 135.632 6.3797C136.431 7.11276 137.034 8.03639 137.384 9.06525C137.734 10.0941 137.82 11.195 137.635 12.2663C137.467 13.5675 137.182 14.8507 136.784 16.1001C136.383 17.4586 136.183 18.9177 135.682 20.2459C135.592 20.4673 135.182 20.5478 135.142 20.2459L135.121 20.2157Z" fill="#73463B"/>
</g>
<defs>
<clipPath id="clip0_53_101">
<rect width="148" height="119" fill="white" transform="matrix(-1 0 0 1 148.8 0)"/>
</clipPath>
</defs>
</svg>
