<svg width="148" height="119" viewBox="0 0 148 119" fill="none" xmlns="http://www.w3.org/2000/svg">
<g clip-path="url(#clip0_53_131)">
<path d="M34.4365 25.73C30.7215 25.1363 29.1394 19.8535 32.9044 18.0825C36.4492 16.4221 39.1629 20.417 39.243 23.5968C39.243 25.1589 38.8811 26.6996 38.1859 28.0969C37.4906 29.4941 36.4812 30.7095 35.2376 31.6468C33.8025 32.6926 32.0721 33.2499 30.2994 33.2372C28.5267 33.2245 26.8045 32.6426 25.3843 31.5764C23.808 30.5053 22.53 29.0475 21.6713 27.3412C20.8126 25.6348 20.4018 23.7364 20.4777 21.8258C20.6742 19.9501 21.2873 18.1427 22.2717 16.537C23.2561 14.9312 24.5867 13.5681 26.1653 12.5481C33.7756 7.44633 42.6977 11.8537 48.6557 17.4284C55.4249 23.7578 60.0812 32.1399 67.9118 37.2416C71.7901 39.7522 76.1267 41.4625 80.669 42.2729C85.2051 43.0779 90.1818 43.1886 94.5678 41.5685C97.7811 40.2924 100.532 38.0638 102.455 35.1791C104.377 32.2943 105.381 28.8898 105.332 25.4181C105.388 21.8483 104.197 18.3718 101.967 15.5924C99.7374 12.813 96.6091 10.9063 93.1258 10.2035C91.3753 9.77154 89.549 9.75206 87.7897 10.1466C86.0304 10.5411 84.3857 11.3389 82.9839 12.4777C81.5821 13.6165 80.4612 15.0654 79.7088 16.7115C78.9564 18.3575 78.5927 20.156 78.6463 21.9666C78.6884 23.8696 79.2782 25.7196 80.3445 27.2929C81.4107 28.8662 82.9077 30.0953 84.6544 30.8318C86.5012 31.6105 88.5379 31.8149 90.5014 31.4184C92.465 31.022 94.2651 30.043 95.6693 28.6079C97.001 27.2359 97.9177 25.5121 98.3128 23.637C98.3477 23.4283 98.3043 23.2141 98.1911 23.0356C98.0779 22.8572 97.9029 22.7273 97.6999 22.671C97.4969 22.6147 97.2804 22.636 97.0921 22.7307C96.9039 22.8255 96.7573 22.9871 96.6806 23.1842C96.1312 25.108 94.8722 26.7487 93.1602 27.7715C91.4483 28.7943 89.4125 29.1223 87.4682 28.6884C85.7278 28.316 84.1755 27.3347 83.088 25.9193C82.0005 24.504 81.4484 22.7466 81.5302 20.9604C81.5937 19.2697 82.0872 17.6237 82.9637 16.1792C83.8402 14.7347 85.0704 13.54 86.5369 12.7091C90.1418 10.7972 94.5477 11.5317 97.8923 13.6348C104.521 17.7806 105.723 26.5854 102.238 33.2267C97.9223 41.4578 87.5283 41.9509 79.5375 39.8176C74.9342 38.5891 70.6526 36.3674 66.9905 33.3071C63.4541 30.1362 60.2283 26.6318 57.3575 22.8421C51.7499 15.9895 45.0308 8.75447 35.7583 7.74821C27.7475 6.82246 19.3161 12.2864 18.0944 20.5579C16.9529 28.3865 24.0325 36.4869 32.0433 35.5612C38.8825 34.8065 43.7992 26.7061 41.2257 20.2459C39.7537 16.5429 35.9586 13.9971 32.0633 15.6876C31.2091 16.0391 30.447 16.5837 29.8361 17.2791C29.2252 17.9745 28.782 18.802 28.5409 19.6974C28.2997 20.5928 28.2671 21.532 28.4456 22.442C28.624 23.3521 29.0088 24.2087 29.5699 24.9452C30.1311 25.6372 30.8379 26.1956 31.6396 26.5801C32.4413 26.9647 33.3179 27.1658 34.2062 27.169C34.9973 27.169 35.2076 25.8608 34.3965 25.73H34.4365Z" fill="#73463B"/>
<path d="M34.8571 25.9716C34.764 25.7358 34.7221 25.4828 34.7342 25.2294C34.7463 24.976 34.8121 24.7282 34.9272 24.5024C35.1878 24.0143 35.6039 23.6281 36.1088 23.4056L36.299 23.3251C36.1589 23.3855 36.4092 23.3251 36.4392 23.3251C36.6258 23.2642 36.8166 23.2171 37.01 23.1842C36.8898 23.1842 37.1903 23.1842 37.1802 23.1842H37.4706C37.6506 23.1692 37.8314 23.1692 38.0114 23.1842C38.7597 23.2124 39.4965 23.3796 40.1843 23.6773C40.3529 23.74 40.5395 23.7328 40.7028 23.6574C40.8662 23.5819 40.9931 23.4443 41.0555 23.2748C41.1179 23.1053 41.1107 22.9179 41.0356 22.7537C40.9605 22.5895 40.8236 22.4621 40.6549 22.3994C38.9727 21.3931 36.7196 20.8598 35.0674 22.2082C34.4488 22.6921 34.0112 23.372 33.8258 24.1375C33.6404 24.9029 33.718 25.7089 34.046 26.4244C34.1087 26.5321 34.2113 26.6106 34.3314 26.6426C34.4514 26.6746 34.5792 26.6577 34.6869 26.5955C34.7921 26.5306 34.8685 26.4276 34.9002 26.3077C34.9319 26.1878 34.9165 26.0602 34.8571 25.9514V25.9716Z" fill="#73463B"/>
<path d="M97.2214 22.5302C95.6705 23.0845 93.9656 23.0087 92.4694 22.319C90.9733 21.6293 89.804 20.3801 89.2105 18.8372C88.9417 18.1227 88.8165 17.3617 88.8423 16.5983C88.868 15.8348 89.0443 15.0841 89.3607 14.3896C90.0216 13.0512 91.2833 11.6928 92.8855 11.9142C93.5764 12.0047 93.8869 10.9683 93.1859 10.8375C89.8013 10.2136 87.0276 13.0613 86.7572 16.2914C86.638 18.0093 87.1046 19.7167 88.0802 21.1325C89.0558 22.5482 90.4823 23.5877 92.1245 24.0798C93.0548 24.3258 94.0222 24.3974 94.9783 24.2911C95.9025 24.1575 96.7968 23.8648 97.6219 23.4258C98.1226 23.1943 97.7621 22.3189 97.2514 22.5302H97.2214Z" fill="#73463B"/>
<path d="M95.5491 40.683C104.621 37.5636 107.005 26.7866 112.572 20.0749C117.923 13.7831 125.168 9.41365 133.21 7.62745C137.77 6.62063 142.477 6.4807 147.089 7.21489L146.678 6.20863C143.844 9.93179 142.823 14.5304 141.021 18.7768C139.426 22.6865 137.105 26.2552 134.181 29.2922C131.274 32.3137 127.583 34.4573 123.527 35.4807C119.101 36.4869 114.515 36.2454 109.979 36.2857C105.162 36.2857 100.205 36.7888 96.0398 39.4352L96.8308 40.4415C100.025 37.946 104.101 37.0504 107.986 36.2957C111.893 35.6966 115.726 34.6848 119.421 33.2769C123.114 31.6887 126.503 29.465 129.435 26.7061C132.215 23.9441 134.68 20.8796 136.785 17.5693C139.348 13.826 141.952 10.0525 145.567 7.25513C145.629 7.21687 145.683 7.16584 145.724 7.10538C145.766 7.04491 145.794 6.97635 145.807 6.90417C145.821 6.83198 145.819 6.75778 145.802 6.68639C145.785 6.615 145.753 6.54801 145.708 6.48979C145.664 6.43156 145.607 6.38341 145.543 6.34845C145.479 6.31349 145.408 6.29251 145.335 6.28687C145.262 6.28123 145.189 6.29106 145.12 6.31572C145.052 6.34039 144.989 6.37932 144.936 6.43C138.647 11.3305 135.343 18.8774 129.986 24.6332C127.142 27.6748 123.742 30.138 119.972 31.8883C116.19 33.497 112.214 34.5999 108.146 35.1687C103.87 35.9133 99.5946 36.8391 96.0097 39.4252C95.3388 39.9082 95.9296 40.9849 96.6706 40.5522C104.842 35.8027 114.885 39.4352 123.707 37.4328C132.018 35.5511 138.197 28.8092 141.681 21.3327C143.874 16.6033 144.736 11.2097 147.88 6.96333C147.933 6.87252 147.964 6.77068 147.971 6.66572C147.979 6.56077 147.962 6.45553 147.922 6.35818C147.882 6.26084 147.821 6.17401 147.742 6.10444C147.664 6.03487 147.57 5.98444 147.469 5.95707C139.339 4.44785 130.94 5.7011 123.597 9.51921C119.921 11.3841 116.564 13.8264 113.654 16.7542C110.566 20.0589 107.999 23.8189 106.043 27.9035C103.53 32.7336 100.746 38.0265 95.3288 39.9786C94.8782 40.1396 95.0685 40.8641 95.5291 40.7031L95.5491 40.683Z" fill="#73463B"/>
<path d="M145.196 7.03378C138.187 8.90542 132.269 13.1619 127.172 18.324C124.719 20.8296 122.365 23.4559 119.752 25.8105C117.089 28.1841 114.097 30.1568 110.87 31.667C107.265 33.3776 103.48 34.897 100.416 37.5234L101.417 38.5296C111.911 28.7388 120.743 16.2813 134.161 10.2639C137.738 8.64325 141.573 7.67555 145.487 7.4061C146.488 7.33566 146.488 5.82627 145.487 5.86652C130.627 6.53065 119.532 18.2636 109.909 28.3262C106.92 31.5395 103.772 34.599 100.476 37.4932C99.7748 38.0869 100.766 39.0328 101.477 38.4995C104.301 36.2957 107.585 34.9272 110.82 33.4682C113.937 32.1538 116.853 30.4023 119.481 28.2658C124.759 23.8081 128.704 17.9919 134.141 13.7053C137.554 11.0898 141.342 9.00997 145.376 7.53691C145.435 7.50782 145.482 7.45891 145.509 7.3987C145.535 7.33849 145.54 7.27078 145.522 7.20737C145.505 7.14395 145.465 7.08882 145.411 7.05159C145.357 7.01436 145.292 6.99737 145.226 7.00359L145.196 7.03378Z" fill="#73463B"/>
<path d="M96.5504 40.4517C97.9922 39.5109 99.606 38.8682 101.298 38.5613C102.989 38.2544 104.725 38.2893 106.403 38.664C108.081 39.0387 109.668 39.7458 111.071 40.7438C112.474 41.7418 113.665 43.0109 114.575 44.4767C116.578 47.7873 116.658 51.8224 115.857 55.5455C115.055 59.2687 113.243 62.5189 109.848 64.2597C105.743 66.3427 100.946 65.266 97.2213 62.8711L96.981 63.7465C99.8549 63.7465 103.119 63.012 104.541 60.2045C105.963 57.397 104.161 55.2638 102.929 52.8689C101.387 49.8501 103.49 47.1232 103.46 44.0641C103.435 42.7701 102.936 41.5308 102.059 40.5837C101.181 39.6366 99.9861 39.0485 98.7034 38.9322C98.7534 39.3448 98.8135 39.7574 98.8636 40.1699C104.341 38.0367 110.259 42.1824 112.312 47.2137C114.495 52.6173 113.233 59.2888 107.976 62.3579C106.703 63.1205 105.275 63.5821 103.798 63.7076C102.322 63.8332 100.836 63.6194 99.4544 63.0824C98.7034 62.7805 98.3429 64.0383 99.1139 64.3201C104.762 66.3326 111.23 62.8912 113.363 57.4071C114.437 54.3979 114.502 51.1186 113.55 48.0686C112.597 45.0185 110.678 42.365 108.086 40.5121C106.731 39.5084 105.158 38.8443 103.496 38.5747C101.835 38.3052 100.133 38.4381 98.5331 38.9624C98.0124 39.1536 97.8622 40.0693 98.5331 40.18C101.307 40.6429 102.318 43.1988 101.737 45.7547C101.227 47.9986 100.205 50.2426 101.037 52.5469C101.788 54.5594 104.041 56.4814 103.53 58.8259C102.859 61.724 99.5245 62.539 96.981 62.851C96.8807 62.858 96.7851 62.8965 96.7077 62.9611C96.6303 63.0256 96.575 63.1129 96.5496 63.2107C96.5242 63.3084 96.5299 63.4117 96.566 63.5061C96.6021 63.6004 96.6667 63.681 96.7507 63.7365C98.5109 64.8787 100.483 65.652 102.547 66.01C104.612 66.3679 106.728 66.3031 108.767 65.8194C110.727 65.3323 112.528 64.3458 113.998 62.9551C115.468 61.5644 116.556 59.8165 117.158 57.8801C118.635 53.6958 118.585 49.1206 117.018 44.9698C116.274 43.2099 115.18 41.6218 113.802 40.3031C112.424 38.9844 110.793 37.9631 109.007 37.3021C106.836 36.5803 104.518 36.4186 102.268 36.8318C100.018 37.245 97.9072 38.2198 96.1299 39.6668C95.6893 40.019 96.1299 40.7938 96.5905 40.4517H96.5504Z" fill="#73463B"/>
<path d="M98.6133 64.0283C104.471 64.1591 108.437 58.997 109.198 53.5431C109.677 50.6237 109.37 47.6285 108.306 44.8692C107.703 43.5508 106.827 42.377 105.736 41.4266C104.645 40.4763 103.364 39.7712 101.98 39.3586C100.596 38.946 99.1394 38.8355 97.7091 39.0345C96.2788 39.2334 94.9074 39.7372 93.6866 40.5121C93.0557 40.9347 93.6265 41.951 94.2974 41.5184C95.6366 40.6667 97.1775 40.1889 98.7614 40.134C100.345 40.0792 101.915 40.4494 103.31 41.2064C104.666 42.051 105.801 43.2117 106.616 44.5902C107.432 45.9687 107.905 47.5244 107.996 49.1257C108.435 52.3658 107.802 55.6613 106.193 58.504C105.414 59.8449 104.305 60.962 102.972 61.7479C101.64 62.5338 100.128 62.9622 98.5832 62.9919C98.4744 63.0231 98.3787 63.0891 98.3105 63.1799C98.2424 63.2707 98.2055 63.3813 98.2055 63.495C98.2055 63.6087 98.2424 63.7193 98.3105 63.8101C98.3787 63.9009 98.4744 63.9669 98.5832 63.9981L98.6133 64.0283Z" fill="#73463B"/>
<path d="M102.198 36.0946C105.786 30.5043 108.334 24.3059 109.718 17.8009C110.93 11.7633 110.149 4.56859 105.172 0.362434C103.78 -0.804825 101.778 1.13725 103.169 2.37495C107.665 6.39998 108.176 12.6187 107.415 18.3342C106.524 24.4205 104.441 30.2689 101.287 35.5412C100.926 36.1349 101.848 36.6783 102.218 36.0846L102.198 36.0946Z" fill="#73463B"/>
<path d="M105.533 37.3423C114.274 39.1334 125.019 42.6352 127.092 52.6475C127.402 54.1568 129.615 53.4927 129.375 52.0135C128.584 47.1935 125.219 43.2792 121.204 40.7233C116.547 37.7548 111.07 36.8492 105.683 36.2555C105.072 36.1951 104.932 37.2618 105.533 37.3423Z" fill="#73463B"/>
<path d="M86.3867 42.2126C89.3725 42.142 92.2846 41.2662 94.8181 39.6769C96.0867 38.8857 97.2336 37.9128 98.2227 36.7889C99.3376 35.7091 100.018 34.255 100.135 32.7035C100.135 31.9589 99.0438 31.979 98.9938 32.7035C98.7326 34.124 98.0023 35.4145 96.921 36.3663C96.0225 37.3275 95.0142 38.1787 93.9169 38.9021C91.6633 40.338 89.0811 41.1694 86.4168 41.3171C86.3101 41.3332 86.2127 41.3873 86.1423 41.4694C86.0719 41.5516 86.0331 41.6564 86.0331 41.7649C86.0331 41.8733 86.0719 41.9781 86.1423 42.0603C86.2127 42.1425 86.3101 42.1965 86.4168 42.2126H86.3867Z" fill="#73463B"/>
<path d="M72.0974 38.1773C64.4671 33.2869 54.3635 27.6217 45.4915 33.0756C38.6923 37.2617 36.6996 46.8412 40.9053 53.5429C45.3212 60.5867 54.9242 63.6055 62.184 59.027C63.8953 57.9494 65.3306 56.4828 66.3743 54.7454C67.4179 53.008 68.0406 51.0485 68.1921 49.0248C68.378 47.0744 68.0158 45.1108 67.1467 43.357C66.2775 41.6031 64.9364 40.1293 63.2755 39.1031C59.7307 37.0906 54.5938 38.4289 53.322 42.5747C51.84 47.4148 56.266 51.782 60.9824 51.4499C61.1571 51.443 61.325 51.3803 61.4617 51.2709C61.5985 51.1615 61.6969 51.0111 61.7427 50.8416C61.7885 50.6721 61.7793 50.4923 61.7164 50.3284C61.6535 50.1646 61.5402 50.0251 61.393 49.9304C60.9895 49.6363 60.6962 49.2145 60.56 48.7328C60.4238 48.251 60.4527 47.7372 60.6419 47.2739C60.8416 46.7314 61.2191 46.2734 61.7123 45.9752C62.2056 45.6771 62.7851 45.5567 63.3556 45.6337C66.7902 45.8752 67.361 49.9405 66.1394 52.4964C66.1124 52.5625 66.0987 52.6332 66.0989 52.7046C66.0992 52.776 66.1134 52.8467 66.1409 52.9126C66.1683 52.9784 66.2084 53.0383 66.2588 53.0886C66.3092 53.1389 66.369 53.1787 66.4348 53.2058C66.5005 53.2329 66.5709 53.2467 66.642 53.2464C66.7131 53.2462 66.7834 53.2319 66.8489 53.2043C66.9145 53.1767 66.974 53.1365 67.024 53.0858C67.0741 53.0351 67.1138 52.975 67.1407 52.909C67.5676 51.9733 67.7802 50.9532 67.7629 49.924C67.7456 48.8948 67.4987 47.8826 67.0406 46.962C66.5934 46.2108 65.9637 45.5859 65.2106 45.1459C64.4576 44.7059 63.6057 44.4652 62.7348 44.4463C61.9463 44.4742 61.1859 44.7476 60.5588 45.2289C59.9318 45.7101 59.4691 46.3753 59.2349 47.1324C59.0006 47.8895 59.0063 48.701 59.2512 49.4547C59.4961 50.2084 59.9681 50.8669 60.6019 51.3392C60.7421 50.8361 60.8722 50.3329 61.0124 49.8197C60.0949 49.877 59.1756 49.741 58.3134 49.4205C57.4512 49.0999 56.6651 48.6018 56.0057 47.9582C55.351 47.2636 54.8955 46.4039 54.6875 45.4703C54.4795 44.5368 54.5267 43.564 54.8241 42.6552C56.0658 39.1132 60.712 38.7509 63.4257 40.6427C66.4298 42.7256 67.4311 46.7406 66.6601 50.1619C66.2699 51.9386 65.4719 53.5991 64.3296 55.0107C63.1873 56.4224 61.7325 57.5462 60.0812 58.2924C56.8892 59.7088 53.2911 59.8989 49.9689 58.8269C46.6468 57.7549 43.8315 55.4952 42.0568 52.4763C40.394 49.5843 39.895 46.1627 40.662 42.9128C41.4291 39.6629 43.4042 36.831 46.1824 34.9976C49.8073 32.6832 54.4235 32.5826 58.5091 33.4681C63.1353 34.4743 67.361 36.8189 71.5266 39.0629C71.5845 39.0972 71.6485 39.1198 71.7151 39.1293C71.7816 39.1388 71.8494 39.135 71.9144 39.1182C71.9795 39.1014 72.0407 39.0718 72.0944 39.0312C72.1482 38.9907 72.1934 38.9399 72.2276 38.8817C72.2618 38.8236 72.2842 38.7592 72.2937 38.6924C72.3031 38.6255 72.2994 38.5574 72.2826 38.492C72.2659 38.4266 72.2365 38.3652 72.1961 38.3112C72.1558 38.2572 72.1052 38.2117 72.0473 38.1773H72.0974Z" fill="#73463B"/>
<path d="M56.6666 39.6867C63.8363 38.288 70.1448 42.8263 76.5534 45.2212C82.4414 47.4249 89.2105 48.2399 94.9283 45.1407C97.6909 43.7032 99.8815 41.3599 101.137 38.4994C101.487 37.6642 100.275 36.9296 99.905 37.7849C97.5218 43.2489 91.4736 45.835 85.816 45.6538C82.4805 45.5152 79.1942 44.7968 76.1028 43.5306C73.0087 42.3332 70.0947 40.7332 66.9304 39.6767C63.5859 38.5597 59.971 38.0163 56.5464 39.1333C56.472 39.1546 56.4092 39.2048 56.3716 39.2727C56.3341 39.3407 56.3249 39.4208 56.3461 39.4955C56.3674 39.5703 56.4173 39.6335 56.4849 39.6712C56.5525 39.7089 56.6323 39.7182 56.7066 39.6968L56.6666 39.6867Z" fill="#73463B"/>
<path d="M85.4955 22.5402C84.9395 20.4431 85.0091 18.2281 85.6958 16.1706C86.2866 14.4297 87.4482 12.7292 89.3507 12.3568C90.0917 12.216 89.7813 11.0688 89.0403 11.2198C86.9475 11.6525 85.7659 13.7254 85.105 15.6171C84.3335 17.8929 84.2775 20.3521 84.9448 22.6609C84.9743 22.7222 85.0243 22.7711 85.0859 22.7993C85.1476 22.8275 85.2171 22.8331 85.2825 22.8152C85.3479 22.7972 85.4049 22.7569 85.4438 22.7012C85.4827 22.6455 85.501 22.5778 85.4955 22.51V22.5402Z" fill="#73463B"/>
<path d="M86.6871 25.6394C88.4257 26.772 90.4348 27.4148 92.505 27.501C93.3705 27.4718 94.2202 27.2592 94.9983 26.8771C95.8367 26.5198 96.5142 25.8641 96.9009 25.0356C97.0711 24.4923 96.3902 24.2005 96.0097 24.5124C95.6292 24.8243 95.5291 25.0658 95.2587 25.3073C94.987 25.5469 94.6878 25.753 94.3675 25.9212C93.6987 26.2534 92.9696 26.4452 92.2246 26.4847C90.3954 26.5011 88.5971 26.0102 87.0276 25.0658C86.6471 24.8746 86.3166 25.4382 86.6871 25.6394Z" fill="#73463B"/>
<path d="M49.9274 36.7284C44.5702 39.5056 43.0582 46.2576 45.4814 51.5103C46.6089 54.12 48.6306 56.2367 51.1792 57.4757C53.7278 58.7148 56.6342 58.9938 59.3702 58.2623C62.4106 57.44 65.0117 55.458 66.62 52.7379C66.7902 52.4562 66.3697 52.2348 66.1894 52.4863C64.6852 54.4396 62.6211 55.8824 60.2756 56.6201C57.93 57.3578 55.4156 57.355 53.0717 56.612C48.2552 55.0422 45.2011 49.8198 45.6417 44.8488C45.7693 43.3065 46.2564 41.816 47.0636 40.498C47.8708 39.1799 48.9753 38.0712 50.2879 37.2617C50.3248 37.2405 50.3571 37.2123 50.383 37.1786C50.409 37.1449 50.4281 37.1064 50.4393 37.0653C50.4504 37.0242 50.4534 36.9813 50.4481 36.939C50.4427 36.8967 50.4291 36.8559 50.4081 36.8189C50.3871 36.7819 50.359 36.7494 50.3254 36.7234C50.2919 36.6973 50.2536 36.6781 50.2127 36.6668C50.1301 36.6442 50.0419 36.6555 49.9675 36.6982L49.9274 36.7284Z" fill="#73463B"/>
<path d="M50.0676 47.3746C50.6184 51.8122 55.4649 54.6599 59.5605 55.0322C63.8863 55.4246 67.8016 51.3795 67.7215 47.1129C67.7215 46.9662 67.6635 46.8254 67.5602 46.7216C67.4569 46.6178 67.3168 46.5595 67.1708 46.5595C67.0247 46.5595 66.8846 46.6178 66.7813 46.7216C66.678 46.8254 66.62 46.9662 66.62 47.1129C66.5813 48.0137 66.3619 48.8974 65.9749 49.7108C65.5879 50.5242 65.0413 51.2507 64.3679 51.8465C63.6945 52.4424 62.9082 52.8954 62.0563 53.1782C61.2044 53.4611 60.3044 53.568 59.4103 53.4926C55.8154 53.2813 51.2192 51.1682 50.3981 47.3343C50.3981 47.1733 50.0877 47.2035 50.1077 47.3343L50.0676 47.3746Z" fill="#73463B"/>
<path d="M62.2942 31.3249C58.4633 25.8476 53.4259 21.3331 47.5743 18.1328C42.7277 15.587 34.6268 12.9104 30.2208 17.6901C29.6 18.3643 30.5913 19.3705 31.2222 18.6963C33.275 16.5933 36.4092 16.6838 39.1028 17.1568C42.0985 17.6995 44.9973 18.6863 47.7045 20.085C53.09 22.9963 57.7627 27.0765 61.3829 32.0293C61.7835 32.5424 62.6747 31.8582 62.2942 31.3249Z" fill="#73463B"/>
<path d="M26.3556 16.6335C25.1846 18.1755 24.4906 20.0294 24.3599 21.9646C24.2292 23.8998 24.6676 25.831 25.6205 27.5178C26.5735 29.2046 27.9989 30.5726 29.7195 31.4517C31.4401 32.3308 33.3799 32.6821 35.2977 32.462C36.2771 32.3541 37.2096 31.9833 37.9972 31.3884C38.7848 30.7935 39.3984 29.9964 39.7737 29.0809C40.0641 28.2759 38.7724 27.7426 38.3819 28.4973C36.3791 32.2104 31.1321 31.0331 28.4985 28.7992C26.8512 27.3395 25.7737 25.3391 25.4582 23.155C25.1428 20.9708 25.6099 18.7451 26.7762 16.875C26.9364 16.6034 26.5358 16.392 26.3556 16.6235V16.6335Z" fill="#73463B"/>
<path d="M68.7429 34.7361C64.3477 30.7764 60.8976 25.8716 58.6492 20.3869C56.7066 15.5468 57.6479 9.17719 62.4944 6.38986C66.8603 3.86415 73.0988 5.50436 74.5107 10.6866C74.8393 11.7827 74.8999 12.9423 74.6872 14.067C74.4745 15.1917 73.9949 16.2482 73.289 17.1468C72.3764 18.1857 71.1537 18.9001 69.8037 19.183C68.4536 19.466 67.0487 19.3023 65.7989 18.7165C65.1097 18.4187 64.5028 17.9573 64.0301 17.3719C63.5575 16.7865 63.2332 16.0946 63.0852 15.3556C62.9361 14.6534 63.0061 13.922 63.2857 13.2611C63.5652 12.6003 64.0407 12.0421 64.6473 11.6627C65.2616 11.2786 65.9957 11.1371 66.7077 11.2653C67.4198 11.3936 68.0593 11.7825 68.5026 12.357C68.8407 12.9296 68.944 13.6119 68.7908 14.2597C68.6376 14.9075 68.2398 15.47 67.6814 15.8286L68.5126 16.1606C68.2781 15.4972 67.7955 14.9516 67.1674 14.6398C66.5392 14.3279 65.8149 14.2743 65.148 14.4902C64.5048 14.7632 63.9888 15.2714 63.7043 15.9122C63.4199 16.553 63.3883 17.2784 63.6159 17.9417C63.8563 18.6461 64.9978 18.3341 64.7375 17.6298C64.6503 17.4509 64.6002 17.2562 64.5902 17.0573C64.5802 16.8584 64.6106 16.6595 64.6795 16.4728C64.7484 16.2861 64.8543 16.1154 64.9908 15.971C65.1274 15.8267 65.2917 15.7118 65.4738 15.6333C65.6559 15.5547 65.852 15.5142 66.0502 15.5142C66.2484 15.5142 66.4445 15.5547 66.6266 15.6332C66.8087 15.7117 66.9731 15.8266 67.1097 15.9709C67.2462 16.1152 67.3522 16.2858 67.4211 16.4726C67.4459 16.5553 67.4889 16.6314 67.547 16.6951C67.6052 16.7588 67.6769 16.8085 67.7568 16.8404C67.8367 16.8723 67.9228 16.8857 68.0086 16.8795C68.0944 16.8733 68.1777 16.8477 68.2522 16.8046C68.7664 16.4584 69.1911 15.9941 69.4911 15.4501C69.7911 14.9062 69.9578 14.2982 69.9773 13.6765C69.9969 13.0549 69.8688 12.4375 69.6036 11.8756C69.3385 11.3136 68.9438 10.8232 68.4525 10.4451C65.839 8.55332 62.2942 10.264 61.5031 13.2123C60.6019 16.5631 62.895 19.7127 66.0492 20.6586C67.6241 21.1078 69.297 21.0707 70.8506 20.5521C72.4042 20.0335 73.7667 19.0574 74.761 17.7505C75.6078 16.5296 76.1422 15.1179 76.3168 13.6401C76.4915 12.1623 76.301 10.664 75.7624 9.27782C75.2299 7.84907 74.3387 6.58301 73.1754 5.60267C72.0121 4.62233 70.6162 3.96103 69.1234 3.68303C67.569 3.37778 65.9678 3.40833 64.4261 3.77266C62.8843 4.137 61.4374 4.82677 60.1813 5.79617C58.912 6.86298 57.8688 8.17512 57.1137 9.65475C56.3585 11.1344 55.9068 12.7514 55.7854 14.4097C55.3648 18.7769 57.4476 22.6912 59.6906 26.2634C61.9337 29.8357 64.5772 33.2368 68.2021 35.3198C68.5827 35.5311 69.0233 35.0078 68.6728 34.6959L68.7429 34.7361Z" fill="#73463B"/>
<path d="M2.40323 93.582C2.20296 89.5569 1.84247 85.5319 1.8625 81.5069C1.88252 77.4819 1.8625 73.4568 1.95262 69.4318C2.0127 62.9515 1.19159 55.4951 5.36723 50.011C7.21478 47.4083 9.97857 45.6095 13.0977 44.9797C14.483 44.7922 15.893 44.9721 17.1876 45.5017C18.4823 46.0313 19.6165 46.8921 20.4777 47.9985C24.2227 52.8487 21.5391 61.271 15.0503 61.7842C11.9361 62.0257 8.64166 59.7717 8.29118 56.5618C8.19087 55.8081 8.26465 55.0414 8.50681 54.321C8.74896 53.6006 9.15298 52.946 9.68753 52.4079C10.2221 51.8697 10.8728 51.4625 11.5892 51.2179C12.3056 50.9733 13.0685 50.8977 13.8187 50.9972C15.0103 51.1682 14.9802 53.1807 13.8187 53.3921C12.0963 53.704 10.7445 55.7165 11.6958 57.3567C12.8574 59.3692 15.4509 59.3692 17.1632 58.1718C21.4089 55.2335 20.3675 48.1092 15.2306 46.9017C12.4869 46.2677 9.59294 47.908 7.67034 49.7293C5.86123 51.5796 4.62621 53.9184 4.11554 56.4611C2.89389 61.754 3.35451 67.53 3.40458 72.9034C3.40458 76.2542 3.46466 79.6051 3.40458 82.966C3.35451 86.4979 3.01405 90.0098 2.81378 93.5216C2.81378 93.5776 2.79163 93.6314 2.75219 93.671C2.71275 93.7106 2.65927 93.7329 2.6035 93.7329C2.54773 93.7329 2.49424 93.7106 2.4548 93.671C2.41537 93.6314 2.39321 93.5776 2.39321 93.5216L2.40323 93.582Z" fill="#73463B"/>
<path d="M2.57347 88.6916C2.09734 85.3068 2.51777 81.8557 3.79236 78.6863C5.06695 75.5169 7.15063 72.7413 9.83328 70.6393C15.0203 66.6747 22.6907 66.0608 28.0379 70.106C33.0446 73.9097 35.2476 80.9736 31.7128 86.5281C28.3783 91.7707 20.3875 93.8235 15.6912 89.0337C14.4301 87.759 13.5683 86.1409 13.2123 84.3794C12.8564 82.6178 13.022 80.7901 13.6885 79.1221C14.3919 77.4952 15.5812 76.1283 17.0918 75.2106C18.6024 74.293 20.3595 73.87 22.1199 74.0002C23.3115 74.1008 23.3515 75.9423 22.1199 75.902C20.7766 75.8756 19.4534 76.2333 18.3046 76.9334C17.1558 77.6336 16.2286 78.6473 15.6311 79.8566C15.0958 81.0903 14.8962 82.4448 15.0528 83.7814C15.2094 85.1181 15.7165 86.3889 16.5223 87.4639C17.4273 88.6667 18.6367 89.6036 20.0246 90.177C21.4124 90.7504 22.9278 90.9394 24.413 90.7242C25.8744 90.5085 27.2614 89.9374 28.4533 89.0605C29.6451 88.1837 30.606 87.0277 31.2522 85.6929C33.8958 80.5107 31.5426 74.0908 26.9264 70.9211C22.3101 67.7514 16.0216 68.4759 11.4054 71.4644C5.58754 75.2077 3.53477 82.0402 3.16426 88.5708C3.16426 88.8928 2.63355 89.0035 2.57347 88.6513V88.6916Z" fill="#73463B"/>
<path d="M23.1212 75.8316C20.4676 77.8441 20.3775 82.1006 23.4216 83.7911C26.4657 85.4816 30.1207 82.2817 30.9318 79.3334C31.1914 78.3981 31.2362 77.4157 31.0627 76.4604C30.8893 75.5052 30.5021 74.602 29.9304 73.8191C29.5399 73.2959 30.4111 72.6217 30.8216 73.1248C31.5 73.9253 31.9886 74.8702 32.2505 75.8882C32.5125 76.9062 32.5409 77.9707 32.3337 79.0013C31.8858 81.0144 30.7348 82.7994 29.0893 84.0326C28.315 84.734 27.3644 85.2089 26.3405 85.4058C25.3167 85.6027 24.2587 85.5141 23.2814 85.1496C22.397 84.771 21.6262 84.1673 21.0449 83.3979C20.4636 82.6285 20.0921 81.7201 19.967 80.7623C19.8699 79.6611 20.0438 78.5528 20.4734 77.535C20.903 76.5173 21.575 75.6213 22.4303 74.926C22.4884 74.8709 22.5573 74.8287 22.6327 74.8021C22.708 74.7755 22.7881 74.7651 22.8677 74.7715C22.9473 74.778 23.0247 74.8011 23.0948 74.8395C23.165 74.8778 23.2263 74.9306 23.2749 74.9943C23.3235 75.058 23.3582 75.1312 23.3769 75.2092C23.3956 75.2872 23.3977 75.3683 23.3832 75.4473C23.3688 75.5262 23.338 75.6012 23.2928 75.6674C23.2477 75.7336 23.1892 75.7895 23.1212 75.8316Z" fill="#73463B"/>
<path d="M18.0244 83.7811C17.7852 83.3977 17.5808 82.9936 17.4135 82.5735C17.2884 82.1254 17.2377 81.6597 17.2633 81.195C17.2788 80.2729 17.4869 79.3644 17.8742 78.5284C18.7107 76.8562 19.9802 75.4415 21.5491 74.4329C22.0598 74.0807 22.5505 74.9361 22.0398 75.2782C20.6447 76.0969 19.4746 77.2519 18.6352 78.6391C18.2273 79.3815 17.9751 80.1999 17.8942 81.044C17.7873 81.9326 17.8973 82.834 18.2146 83.6704C18.2246 83.7811 18.0244 83.8917 18.0244 83.7811Z" fill="#73463B"/>
<path d="M20.027 87.0716C22.2801 89.4161 25.9551 88.3294 28.3383 86.8502C29.585 86.1225 30.578 85.0262 31.1821 83.7107C31.7108 82.3271 31.9064 80.8376 31.7529 79.3636C31.7529 78.8001 32.554 78.8202 32.6141 79.3636C32.8328 81.0028 32.6365 82.671 32.0433 84.2138C31.2614 85.6956 30.0352 86.8926 28.5385 87.6351C25.8249 89.2652 22.1399 89.9998 19.8768 87.2225C19.7967 87.1219 19.9269 86.981 20.017 87.0716H20.027Z" fill="#73463B"/>
<path d="M8.0709 88.4702C7.0201 84.9309 7.35688 81.1217 9.01217 77.824C10.6684 74.6588 13.3959 72.1927 16.7026 70.8707C18.3693 70.1563 20.1626 69.7881 21.9747 69.7881C23.7867 69.7881 25.58 70.1563 27.2468 70.8707C28.8873 71.5538 30.2761 72.7321 31.2214 74.2426C32.1667 75.7532 32.6219 77.5215 32.5239 79.3032C32.506 79.4358 32.4408 79.5575 32.3405 79.6455C32.2401 79.7336 32.1114 79.7821 31.9782 79.7821C31.845 79.7821 31.7163 79.7336 31.6159 79.6455C31.5156 79.5575 31.4504 79.4358 31.4325 79.3032C30.9418 71.9072 22.4203 69.8343 16.6425 72.3298C13.6928 73.6659 11.2883 75.9783 9.83044 78.8809C8.37254 81.7835 7.94941 85.1007 8.63165 88.279C8.71176 88.6312 8.18104 88.7821 8.09092 88.4299L8.0709 88.4702Z" fill="#73463B"/>
<path d="M11.5656 119C9.01217 119.101 7.20973 116.555 7.16968 114.12C7.1096 110.678 9.80324 107.861 11.1751 104.933C12.8674 101.401 13.5383 96.5404 9.93341 93.9241C7.05953 91.8412 2.24302 92.9178 1.58213 96.7919C1.25168 98.7541 2.23301 101.058 4.30581 101.541C6.74911 102.105 8.31122 98.8145 5.81785 97.7579C4.42597 97.1743 4.99674 94.8801 6.45872 95.4335C7.43162 95.7743 8.25109 96.4537 8.76899 97.3488C9.28689 98.2438 9.46905 99.2956 9.28253 100.314C9.08849 101.293 8.54878 102.168 7.76296 102.778C6.97714 103.388 5.99822 103.693 5.00675 103.634C0.891192 103.363 -1.08147 98.5328 0.6008 95.0712C2.39322 91.3783 7.38998 90.6135 10.5342 92.9279C14.2693 95.6549 14.3494 100.445 12.7072 104.389C11.6257 106.995 9.7031 109.169 8.70175 111.805C7.86061 114.059 8.42137 117.974 11.5456 117.843C12.2666 117.843 12.2566 118.93 11.5456 118.96L11.5656 119Z" fill="#73463B"/>
<path d="M13.6785 98.7843C13.9789 100.938 13.0877 103.141 12.7272 105.224C12.3667 107.307 12.3667 109.642 14.0189 111.03C15.6712 112.419 17.6639 111.584 18.5951 109.873C18.8133 109.503 18.9217 109.079 18.9075 108.649C18.8933 108.219 18.7571 107.803 18.515 107.448C18.421 107.299 18.2955 107.173 18.1474 107.078C17.9992 106.984 17.8321 106.923 17.658 106.901C17.4839 106.879 17.3071 106.896 17.1402 106.951C16.9733 107.005 16.8204 107.096 16.6925 107.217C15.6411 108.303 13.9388 106.532 15.0603 105.587C15.4543 105.248 15.9187 105.003 16.4195 104.869C16.9203 104.735 17.4446 104.715 17.9538 104.812C18.4631 104.908 18.9443 105.119 19.362 105.427C19.7798 105.735 20.1234 106.133 20.3675 106.593C20.8138 107.595 20.9133 108.718 20.6501 109.783C20.387 110.848 19.7763 111.794 18.9156 112.469C18.1352 113.184 17.125 113.592 16.0696 113.62C15.0143 113.648 13.9842 113.293 13.1678 112.62C12.3686 111.887 11.7662 110.964 11.4162 109.935C11.0662 108.906 10.9798 107.805 11.1651 106.734C11.3328 105.433 11.6177 104.149 12.0162 102.9C12.4168 101.541 12.617 100.082 13.1177 98.7541C13.2078 98.5327 13.6184 98.4522 13.6584 98.7541L13.6785 98.7843Z" fill="#73463B"/>
</g>
<defs>
<clipPath id="clip0_53_131">
<rect width="148" height="119" fill="white" transform="matrix(1 0 0 -1 0 119)"/>
</clipPath>
</defs>
</svg>
