<svg width="148" height="119" viewBox="0 0 148 119" fill="none" xmlns="http://www.w3.org/2000/svg">
<g clip-path="url(#clip0_53_71)">
<path d="M34.4365 93.2697C30.7215 93.8634 29.1394 99.1463 32.9044 100.917C36.4492 102.578 39.1629 98.5828 39.243 95.403C39.243 93.8408 38.8811 92.3001 38.1859 90.9029C37.4906 89.5056 36.4812 88.2902 35.2376 87.3529C33.8025 86.3071 32.0721 85.7499 30.2994 85.7626C28.5267 85.7752 26.8045 86.3572 25.3843 87.4234C23.808 88.4944 22.53 89.9522 21.6713 91.6586C20.8126 93.365 20.4018 95.2634 20.4777 97.174C20.6742 99.0496 21.2873 100.857 22.2717 102.463C23.2561 104.069 24.5867 105.432 26.1653 106.452C33.7756 111.553 42.6977 107.146 48.6557 101.571C55.4249 95.242 60.0812 86.8599 67.9118 81.7581C71.7901 79.2476 76.1267 77.5373 80.669 76.7269C85.2051 75.9218 90.1818 75.8112 94.5678 77.4312C97.7811 78.7074 100.532 80.9359 102.455 83.8207C104.377 86.7055 105.381 90.1099 105.332 93.5817C105.388 97.1514 104.197 100.628 101.967 103.407C99.7374 106.187 96.6091 108.093 93.1258 108.796C91.3753 109.228 89.549 109.248 87.7897 108.853C86.0304 108.459 84.3857 107.661 82.9839 106.522C81.5821 105.383 80.4612 103.934 79.7088 102.288C78.9564 100.642 78.5927 98.8437 78.6463 97.0331C78.6884 95.1301 79.2782 93.2801 80.3445 91.7069C81.4107 90.1336 82.9077 88.9044 84.6544 88.168C86.5012 87.3892 88.5379 87.1849 90.5014 87.5813C92.465 87.9777 94.2651 88.9567 95.6693 90.3918C97.001 91.7639 97.9177 93.4877 98.3128 95.3627C98.3477 95.5714 98.3043 95.7857 98.1911 95.9641C98.0779 96.1425 97.9029 96.2725 97.6999 96.3288C97.4969 96.3851 97.2804 96.3638 97.0921 96.269C96.9039 96.1742 96.7573 96.0127 96.6806 95.8156C96.1312 93.8918 94.8722 92.2511 93.1602 91.2283C91.4483 90.2054 89.4125 89.8775 87.4682 90.3113C85.7278 90.6838 84.1755 91.6651 83.088 93.0804C82.0005 94.4957 81.4484 96.2531 81.5302 98.0394C81.5937 99.73 82.0872 101.376 82.9637 102.821C83.8402 104.265 85.0704 105.46 86.5369 106.291C90.1418 108.203 94.5477 107.468 97.8923 105.365C104.521 101.219 105.723 92.4144 102.238 85.7731C97.9223 77.5419 87.5283 77.0489 79.5375 79.1821C74.9342 80.4107 70.6526 82.6323 66.9905 85.6926C63.4541 88.8636 60.2283 92.368 57.3575 96.1577C51.7499 103.01 45.0308 110.245 35.7583 111.252C27.7475 112.177 19.3161 106.713 18.0944 98.4419C16.9529 90.6132 24.0325 82.5128 32.0433 83.4386C38.8825 84.1933 43.7992 92.2937 41.2257 98.7538C39.7537 102.457 35.9586 105.003 32.0633 103.312C31.2091 102.961 30.447 102.416 29.8361 101.721C29.2252 101.025 28.782 100.198 28.5409 99.3024C28.2997 98.407 28.2671 97.4678 28.4456 96.5577C28.624 95.6476 29.0088 94.7911 29.5699 94.0546C30.1311 93.3626 30.8379 92.8042 31.6396 92.4196C32.4413 92.0351 33.3179 91.834 34.2062 91.8308C34.9973 91.8308 35.2076 93.1389 34.3965 93.2697H34.4365Z" fill="#73463B"/>
<path d="M34.8571 93.0287C34.764 93.2644 34.7221 93.5175 34.7342 93.7708C34.7463 94.0242 34.8121 94.2721 34.9272 94.4978C35.1878 94.986 35.6039 95.3722 36.1088 95.5946L36.299 95.6751C36.1589 95.6148 36.4092 95.6751 36.4392 95.6751C36.6258 95.7361 36.8166 95.7832 37.01 95.816C36.8898 95.816 37.1903 95.816 37.1802 95.816H37.4706C37.6506 95.8311 37.8314 95.8311 38.0114 95.816C38.7597 95.7878 39.4965 95.6206 40.1843 95.3229C40.3529 95.2602 40.5395 95.2674 40.7028 95.3429C40.8662 95.4184 40.9931 95.556 41.0555 95.7254C41.1179 95.8949 41.1107 96.0823 41.0356 96.2465C40.9605 96.4107 40.8236 96.5382 40.6549 96.6009C38.9727 97.6071 36.7196 98.1405 35.0674 96.7921C34.4488 96.3081 34.0112 95.6282 33.8258 94.8628C33.6404 94.0973 33.718 93.2914 34.046 92.5759C34.1087 92.4681 34.2113 92.3897 34.3314 92.3576C34.4514 92.3256 34.5792 92.3426 34.6869 92.4048C34.7921 92.4696 34.8685 92.5727 34.9002 92.6926C34.9319 92.8125 34.9165 92.94 34.8571 93.0488V93.0287Z" fill="#73463B"/>
<path d="M97.2214 96.4698C95.6705 95.9155 93.9656 95.9913 92.4694 96.681C90.9733 97.3707 89.804 98.6199 89.2105 100.163C88.9417 100.877 88.8165 101.638 88.8423 102.402C88.868 103.165 89.0443 103.916 89.3607 104.61C90.0216 105.949 91.2833 107.307 92.8855 107.086C93.5764 106.995 93.8869 108.032 93.1859 108.163C89.8013 108.786 87.0276 105.939 86.7572 102.709C86.638 100.991 87.1046 99.2833 88.0802 97.8675C89.0558 96.4518 90.4823 95.4123 92.1245 94.9202C93.0548 94.6742 94.0222 94.6026 94.9783 94.7089C95.9025 94.8425 96.7968 95.1352 97.6219 95.5742C98.1226 95.8057 97.7621 96.6811 97.2514 96.4698H97.2214Z" fill="#73463B"/>
<path d="M95.5491 78.3168C104.621 81.4362 107.005 92.2132 112.572 98.9249C117.923 105.217 125.168 109.586 133.21 111.372C137.77 112.379 142.477 112.519 147.089 111.785L146.678 112.791C143.844 109.068 142.823 104.469 141.021 100.223C139.426 96.3133 137.105 92.7446 134.181 89.7076C131.274 86.6861 127.583 84.5424 123.527 83.5191C119.101 82.5128 114.515 82.7543 109.979 82.7141C105.162 82.7141 100.205 82.211 96.0398 79.5645L96.8308 78.5583C100.025 81.0538 104.101 81.9493 107.986 82.704C111.893 83.3031 115.726 84.315 119.421 85.7228C123.114 87.3111 126.503 89.5347 129.435 92.2937C132.215 95.0557 134.68 98.1202 136.785 101.43C139.348 105.174 141.952 108.947 145.567 111.745C145.629 111.783 145.683 111.834 145.724 111.894C145.766 111.955 145.794 112.023 145.807 112.096C145.821 112.168 145.819 112.242 145.802 112.313C145.785 112.385 145.753 112.452 145.708 112.51C145.664 112.568 145.607 112.616 145.543 112.651C145.479 112.686 145.408 112.707 145.335 112.713C145.262 112.719 145.189 112.709 145.12 112.684C145.052 112.659 144.989 112.62 144.936 112.57C138.647 107.669 135.343 100.122 129.986 94.3666C127.142 91.3249 123.742 88.8618 119.972 87.1114C116.19 85.5027 112.214 84.3998 108.146 83.831C103.87 83.0864 99.5946 82.1607 96.0097 79.5746C95.3388 79.0916 95.9296 78.0149 96.6706 78.4476C104.842 83.1971 114.885 79.5645 123.707 81.567C132.018 83.4487 138.197 90.1906 141.681 97.6671C143.874 102.396 144.736 107.79 147.88 112.036C147.933 112.127 147.964 112.229 147.971 112.334C147.979 112.439 147.962 112.544 147.922 112.642C147.882 112.739 147.821 112.826 147.742 112.895C147.664 112.965 147.57 113.015 147.469 113.043C139.339 114.552 130.94 113.299 123.597 109.481C119.921 107.616 116.564 105.173 113.654 102.246C110.566 98.9408 107.999 95.1809 106.043 91.0962C103.53 86.2662 100.746 80.9733 95.3288 79.0211C94.8782 78.8601 95.0685 78.1356 95.5291 78.2966L95.5491 78.3168Z" fill="#73463B"/>
<path d="M145.196 111.966C138.187 110.095 132.269 105.838 127.172 100.676C124.719 98.1704 122.365 95.5441 119.752 93.1895C117.089 90.8159 114.097 88.8432 110.87 87.333C107.265 85.6224 103.48 84.103 100.416 81.4766L101.417 80.4704C111.911 90.2612 120.743 102.719 134.161 108.736C137.738 110.357 141.573 111.324 145.487 111.594C146.488 111.664 146.488 113.174 145.487 113.133C130.627 112.469 119.532 100.736 109.909 90.6738C106.92 87.4605 103.772 84.401 100.476 81.5068C99.7748 80.9131 100.766 79.9672 101.477 80.5005C104.301 82.7043 107.585 84.0728 110.82 85.5318C113.937 86.8462 116.853 88.5977 119.481 90.7342C124.759 95.1919 128.704 101.008 134.141 105.295C137.554 107.91 141.342 109.99 145.376 111.463C145.435 111.492 145.482 111.541 145.509 111.601C145.535 111.662 145.54 111.729 145.522 111.793C145.505 111.856 145.465 111.911 145.411 111.948C145.357 111.986 145.292 112.003 145.226 111.996L145.196 111.966Z" fill="#73463B"/>
<path d="M96.5504 78.5486C97.9922 79.4894 99.606 80.132 101.298 80.439C102.989 80.7459 104.725 80.711 106.403 80.3362C108.081 79.9615 109.668 79.2545 111.071 78.2564C112.474 77.2584 113.665 75.9894 114.575 74.5235C116.578 71.2129 116.658 67.1779 115.857 63.4547C115.055 59.7316 113.243 56.4813 109.848 54.7405C105.743 52.6576 100.946 53.7343 97.2213 56.1292L96.981 55.2537C99.8549 55.2537 103.119 55.9883 104.541 58.7957C105.963 61.6032 104.161 63.7365 102.929 66.1314C101.387 69.1501 103.49 71.8771 103.46 74.9361C103.435 76.2301 102.936 77.4695 102.059 78.4166C101.181 79.3636 99.9861 79.9517 98.7034 80.068C98.7534 79.6555 98.8135 79.2429 98.8636 78.8303C104.341 80.9636 110.259 76.8178 112.312 71.7865C114.495 66.3829 113.233 59.7114 107.976 56.6423C106.703 55.8797 105.275 55.4181 103.798 55.2926C102.322 55.1671 100.836 55.3809 99.4544 55.9178C98.7034 56.2197 98.3429 54.9619 99.1139 54.6801C104.762 52.6676 111.23 56.109 113.363 61.5931C114.437 64.6023 114.502 67.8817 113.55 70.9317C112.597 73.9817 110.678 76.6353 108.086 78.4882C106.731 79.4918 105.158 80.156 103.496 80.4255C101.835 80.695 100.133 80.5621 98.5331 80.0378C98.0124 79.8466 97.8622 78.9309 98.5331 78.8203C101.307 78.3574 102.318 75.8015 101.737 73.2456C101.227 71.0016 100.205 68.7577 101.037 66.4534C101.788 64.4408 104.041 62.5189 103.53 60.1743C102.859 57.2763 99.5245 56.4612 96.981 56.1493C96.8807 56.1422 96.7851 56.1037 96.7077 56.0392C96.6303 55.9747 96.575 55.8874 96.5496 55.7896C96.5242 55.6918 96.5299 55.5885 96.566 55.4942C96.6021 55.3998 96.6667 55.3193 96.7507 55.2638C98.5109 54.1215 100.483 53.3482 102.547 52.9903C104.612 52.6324 106.728 52.6972 108.767 53.1808C110.727 53.668 112.528 54.6545 113.998 56.0451C115.468 57.4358 116.556 59.1837 117.158 61.1202C118.635 65.3044 118.585 69.8796 117.018 74.0305C116.274 75.7903 115.18 77.3785 113.802 78.6972C112.424 80.0159 110.793 81.0372 109.007 81.6982C106.836 82.4199 104.518 82.5817 102.268 82.1685C100.018 81.7553 97.9072 80.7804 96.1299 79.3334C95.6893 78.9813 96.1299 78.2064 96.5905 78.5486H96.5504Z" fill="#73463B"/>
<path d="M98.6133 54.9717C104.471 54.8409 108.437 60.003 109.198 65.4569C109.677 68.3763 109.37 71.3715 108.306 74.1308C107.703 75.4492 106.827 76.623 105.736 77.5734C104.645 78.5237 103.364 79.2288 101.98 79.6414C100.596 80.054 99.1394 80.1645 97.7091 79.9655C96.2788 79.7666 94.9074 79.2628 93.6866 78.4879C93.0557 78.0653 93.6265 77.049 94.2974 77.4816C95.6366 78.3333 97.1775 78.8111 98.7614 78.866C100.345 78.9208 101.915 78.5506 103.31 77.7936C104.666 76.949 105.801 75.7883 106.616 74.4098C107.432 73.0313 107.905 71.4756 107.996 69.8743C108.435 66.6342 107.802 63.3387 106.193 60.496C105.414 59.1551 104.305 58.038 102.972 57.2521C101.64 56.4662 100.128 56.0378 98.5832 56.0081C98.4744 55.9769 98.3787 55.9109 98.3105 55.8201C98.2424 55.7293 98.2055 55.6187 98.2055 55.505C98.2055 55.3913 98.2424 55.2807 98.3105 55.1899C98.3787 55.0991 98.4744 55.0331 98.5832 55.0019L98.6133 54.9717Z" fill="#73463B"/>
<path d="M102.198 82.9054C105.786 88.4957 108.334 94.6941 109.718 101.199C110.93 107.237 110.149 114.431 105.172 118.638C103.78 119.805 101.778 117.863 103.169 116.625C107.665 112.6 108.176 106.381 107.415 100.666C106.524 94.5795 104.441 88.7311 101.287 83.4588C100.926 82.8651 101.848 82.3217 102.218 82.9154L102.198 82.9054Z" fill="#73463B"/>
<path d="M105.533 81.6577C114.274 79.8666 125.019 76.3648 127.092 66.3525C127.402 64.8432 129.615 65.5073 129.375 66.9865C128.584 71.8065 125.219 75.7208 121.204 78.2767C116.547 81.2452 111.07 82.1508 105.683 82.7445C105.072 82.8049 104.932 81.7382 105.533 81.6577Z" fill="#73463B"/>
<path d="M86.3867 76.7876C89.3725 76.8582 92.2846 77.7341 94.8181 79.3234C96.0867 80.1145 97.2336 81.0874 98.2227 82.2113C99.3376 83.2911 100.018 84.7452 100.135 86.2967C100.135 87.0414 99.0438 87.0212 98.9938 86.2967C98.7326 84.8762 98.0023 83.5858 96.921 82.634C96.0225 81.6727 95.0142 80.8215 93.9169 80.0982C91.6633 78.6623 89.0811 77.8308 86.4168 77.6832C86.3101 77.667 86.2127 77.613 86.1423 77.5308C86.0719 77.4486 86.0331 77.3438 86.0331 77.2354C86.0331 77.127 86.0719 77.0221 86.1423 76.94C86.2127 76.8578 86.3101 76.8037 86.4168 76.7876H86.3867Z" fill="#73463B"/>
<path d="M72.0974 80.8224C64.4671 85.7128 54.3635 91.378 45.4915 85.9241C38.6923 81.7381 36.6996 72.1585 40.9053 65.4569C45.3212 58.4131 54.9242 55.3943 62.184 59.9728C63.8953 61.0503 65.3306 62.5169 66.3743 64.2543C67.4179 65.9917 68.0406 67.9513 68.1921 69.975C68.378 71.9253 68.0158 73.889 67.1467 75.6428C66.2775 77.3967 64.9364 78.8704 63.2755 79.8967C59.7307 81.9092 54.5938 80.5708 53.322 76.4251C51.84 71.585 56.266 67.2178 60.9824 67.5499C61.1571 67.5567 61.325 67.6194 61.4617 67.7288C61.5985 67.8382 61.6969 67.9887 61.7427 68.1582C61.7885 68.3277 61.7793 68.5074 61.7164 68.6713C61.6535 68.8352 61.5402 68.9746 61.393 69.0693C60.9895 69.3634 60.6962 69.7852 60.56 70.267C60.4238 70.7488 60.4527 71.2625 60.6419 71.7258C60.8416 72.2684 61.2191 72.7264 61.7123 73.0245C62.2056 73.3226 62.7851 73.4431 63.3556 73.366C66.7902 73.1245 67.361 69.0593 66.1394 66.5034C66.1124 66.4373 66.0987 66.3665 66.0989 66.2951C66.0992 66.2237 66.1134 66.1531 66.1409 66.0872C66.1683 66.0213 66.2084 65.9615 66.2588 65.9112C66.3092 65.8609 66.369 65.821 66.4348 65.794C66.5005 65.7669 66.5709 65.7531 66.642 65.7533C66.7131 65.7536 66.7834 65.7679 66.8489 65.7955C66.9145 65.823 66.974 65.8633 67.024 65.914C67.0741 65.9646 67.1138 66.0247 67.1407 66.0908C67.5676 67.0265 67.7802 68.0465 67.7629 69.0757C67.7456 70.1049 67.4987 71.1171 67.0406 72.0378C66.5934 72.789 65.9637 73.4139 65.2106 73.8538C64.4576 74.2938 63.6057 74.5345 62.7348 74.5534C61.9463 74.5256 61.1859 74.2521 60.5588 73.7709C59.9318 73.2897 59.4691 72.6245 59.2349 71.8674C59.0006 71.1103 59.0063 70.2987 59.2512 69.545C59.4961 68.7914 59.9681 68.1328 60.6019 67.6606C60.7421 68.1637 60.8722 68.6668 61.0124 69.18C60.0949 69.1227 59.1756 69.2587 58.3134 69.5793C57.4512 69.8999 56.6651 70.3979 56.0057 71.0416C55.351 71.7362 54.8955 72.5958 54.6875 73.5294C54.4795 74.463 54.5267 75.4357 54.8241 76.3446C56.0658 79.8866 60.712 80.2488 63.4257 78.3571C66.4298 76.2741 67.4311 72.2592 66.6601 68.8379C66.2699 67.0612 65.4719 65.4007 64.3296 63.989C63.1873 62.5773 61.7325 61.4535 60.0812 60.7073C56.8892 59.291 53.2911 59.1008 49.9689 60.1728C46.6468 61.2448 43.8315 63.5045 42.0568 66.5235C40.394 69.4155 39.895 72.8371 40.662 76.087C41.4291 79.3368 43.4042 82.1687 46.1824 84.0022C49.8073 86.3166 54.4235 86.4172 58.5091 85.5317C63.1353 84.5254 67.361 82.1809 71.5266 79.9369C71.5845 79.9025 71.6485 79.88 71.7151 79.8705C71.7816 79.861 71.8494 79.8648 71.9144 79.8816C71.9795 79.8984 72.0407 79.9279 72.0944 79.9685C72.1482 80.0091 72.1934 80.0599 72.2276 80.118C72.2618 80.1762 72.2842 80.2405 72.2937 80.3074C72.3031 80.3742 72.2994 80.4423 72.2826 80.5077C72.2659 80.5731 72.2365 80.6346 72.1961 80.6886C72.1558 80.7426 72.1052 80.788 72.0473 80.8224H72.0974Z" fill="#73463B"/>
<path d="M56.6666 79.313C63.8363 80.7117 70.1448 76.1735 76.5534 73.7786C82.4414 71.5749 89.2105 70.7598 94.9283 73.8591C97.6909 75.2965 99.8815 77.6399 101.137 80.5004C101.487 81.3356 100.275 82.0702 99.905 81.2148C97.5218 75.7509 91.4736 73.1648 85.816 73.3459C82.4805 73.4846 79.1942 74.2029 76.1028 75.4691C73.0087 76.6666 70.0947 78.2665 66.9304 79.3231C63.5859 80.44 59.971 80.9834 56.5464 79.8665C56.472 79.8451 56.4092 79.795 56.3716 79.727C56.3341 79.6591 56.3249 79.5789 56.3461 79.5042C56.3674 79.4295 56.4173 79.3663 56.4849 79.3286C56.5525 79.2908 56.6323 79.2816 56.7066 79.303L56.6666 79.313Z" fill="#73463B"/>
<path d="M85.4955 96.4596C84.9395 98.5566 85.0091 100.772 85.6958 102.829C86.2866 104.57 87.4482 106.271 89.3507 106.643C90.0917 106.784 89.7813 107.931 89.0403 107.78C86.9475 107.347 85.7659 105.274 85.105 103.383C84.3335 101.107 84.2775 98.6476 84.9448 96.3388C84.9743 96.2776 85.0243 96.2286 85.0859 96.2005C85.1476 96.1723 85.2171 96.1667 85.2825 96.1846C85.3479 96.2025 85.4049 96.2428 85.4438 96.2986C85.4827 96.3543 85.501 96.4219 85.4955 96.4898V96.4596Z" fill="#73463B"/>
<path d="M86.6871 93.3606C88.4257 92.228 90.4348 91.5852 92.505 91.499C93.3705 91.5282 94.2202 91.7408 94.9983 92.1229C95.8367 92.4802 96.5142 93.1359 96.9009 93.9644C97.0711 94.5077 96.3902 94.7995 96.0097 94.4876C95.6292 94.1757 95.5291 93.9342 95.2587 93.6927C94.987 93.4531 94.6878 93.247 94.3675 93.0788C93.6987 92.7466 92.9696 92.5548 92.2246 92.5153C90.3954 92.4989 88.5971 92.9898 87.0276 93.9342C86.6471 94.1254 86.3166 93.5618 86.6871 93.3606Z" fill="#73463B"/>
<path d="M49.9274 82.2714C44.5702 79.4941 43.0582 72.7421 45.4814 67.4895C46.6089 64.8797 48.6306 62.763 51.1792 61.524C53.7278 60.285 56.6342 60.0059 59.3702 60.7375C62.4106 61.5597 65.0117 63.5418 66.62 66.2618C66.7902 66.5436 66.3697 66.765 66.1894 66.5134C64.6852 64.5602 62.6211 63.1174 60.2756 62.3797C57.93 61.642 55.4156 61.6448 53.0717 62.3878C48.2552 63.9575 45.2011 69.18 45.6417 74.1509C45.7693 75.6932 46.2564 77.1837 47.0636 78.5018C47.8708 79.8199 48.9753 80.9285 50.2879 81.7381C50.3248 81.7592 50.3571 81.7875 50.383 81.8211C50.409 81.8548 50.4281 81.8933 50.4393 81.9345C50.4504 81.9756 50.4534 82.0185 50.4481 82.0608C50.4427 82.103 50.4291 82.1438 50.4081 82.1808C50.3871 82.2178 50.359 82.2503 50.3254 82.2764C50.2919 82.3025 50.2536 82.3217 50.2127 82.3329C50.1301 82.3556 50.0419 82.3443 49.9675 82.3016L49.9274 82.2714Z" fill="#73463B"/>
<path d="M50.0676 71.6254C50.6184 67.1878 55.4649 64.3401 59.5605 63.9678C63.8863 63.5754 67.8016 67.6205 67.7215 71.8871C67.7215 72.0338 67.6635 72.1746 67.5602 72.2784C67.4569 72.3822 67.3168 72.4405 67.1708 72.4405C67.0247 72.4405 66.8846 72.3822 66.7813 72.2784C66.678 72.1746 66.62 72.0338 66.62 71.8871C66.5813 70.9863 66.3619 70.1026 65.9749 69.2892C65.5879 68.4758 65.0413 67.7493 64.3679 67.1535C63.6945 66.5576 62.9082 66.1046 62.0563 65.8218C61.2044 65.5389 60.3044 65.432 59.4103 65.5074C55.8154 65.7187 51.2192 67.8318 50.3981 71.6657C50.3981 71.8267 50.0877 71.7965 50.1077 71.6657L50.0676 71.6254Z" fill="#73463B"/>
<path d="M62.2942 87.6754C58.4633 93.1526 53.4259 97.6672 47.5743 100.867C42.7277 103.413 34.6268 106.09 30.2208 101.31C29.6 100.636 30.5913 99.6297 31.2222 100.304C33.275 102.407 36.4092 102.316 39.1028 101.843C42.0985 101.301 44.9973 100.314 47.7045 98.9153C53.09 96.004 57.7627 91.9237 61.3829 86.971C61.7835 86.4578 62.6747 87.1421 62.2942 87.6754Z" fill="#73463B"/>
<path d="M26.3556 102.366C25.1846 100.825 24.4906 98.9706 24.3599 97.0354C24.2292 95.1002 24.6676 93.169 25.6205 91.4822C26.5735 89.7954 27.9989 88.4274 29.7195 87.5483C31.4401 86.6692 33.3799 86.3179 35.2977 86.538C36.2771 86.6459 37.2096 87.0167 37.9972 87.6116C38.7848 88.2065 39.3984 89.0036 39.7737 89.9191C40.0641 90.7241 38.7724 91.2574 38.3819 90.5027C36.3791 86.7896 31.1321 87.9669 28.4985 90.2008C26.8512 91.6605 25.7737 93.6609 25.4582 95.845C25.1428 98.0292 25.6099 100.255 26.7762 102.125C26.9364 102.397 26.5358 102.608 26.3556 102.377V102.366Z" fill="#73463B"/>
<path d="M68.7429 84.2639C64.3477 88.2236 60.8976 93.1284 58.6492 98.6131C56.7066 103.453 57.6479 109.823 62.4944 112.61C66.8603 115.136 73.0988 113.496 74.5107 108.313C74.8393 107.217 74.8999 106.058 74.6872 104.933C74.4745 103.808 73.9949 102.752 73.289 101.853C72.3764 100.814 71.1537 100.1 69.8037 99.817C68.4536 99.534 67.0487 99.6977 65.7989 100.283C65.1097 100.581 64.5028 101.043 64.0301 101.628C63.5575 102.213 63.2332 102.905 63.0852 103.644C62.9361 104.347 63.0061 105.078 63.2857 105.739C63.5652 106.4 64.0407 106.958 64.6473 107.337C65.2616 107.721 65.9957 107.863 66.7077 107.735C67.4198 107.606 68.0593 107.218 68.5026 106.643C68.8407 106.07 68.944 105.388 68.7908 104.74C68.6376 104.093 68.2398 103.53 67.6814 103.171L68.5126 102.839C68.2781 103.503 67.7955 104.048 67.1674 104.36C66.5392 104.672 65.8149 104.726 65.148 104.51C64.5048 104.237 63.9888 103.729 63.7043 103.088C63.4199 102.447 63.3883 101.722 63.6159 101.058C63.8563 100.354 64.9978 100.666 64.7375 101.37C64.6503 101.549 64.6002 101.744 64.5902 101.943C64.5802 102.142 64.6106 102.34 64.6795 102.527C64.7484 102.714 64.8543 102.885 64.9908 103.029C65.1274 103.173 65.2917 103.288 65.4738 103.367C65.6559 103.445 65.852 103.486 66.0502 103.486C66.2484 103.486 66.4445 103.445 66.6266 103.367C66.8087 103.288 66.9731 103.173 67.1097 103.029C67.2462 102.885 67.3522 102.714 67.4211 102.527C67.4459 102.445 67.4889 102.369 67.547 102.305C67.6052 102.241 67.6769 102.192 67.7568 102.16C67.8367 102.128 67.9228 102.114 68.0086 102.121C68.0944 102.127 68.1777 102.152 68.2522 102.195C68.7664 102.542 69.1911 103.006 69.4911 103.55C69.7911 104.094 69.9578 104.702 69.9773 105.323C69.9969 105.945 69.8688 106.562 69.6036 107.124C69.3385 107.686 68.9438 108.177 68.4525 108.555C65.839 110.447 62.2942 108.736 61.5031 105.788C60.6019 102.437 62.895 99.2873 66.0492 98.3414C67.6241 97.8922 69.297 97.9293 70.8506 98.4479C72.4042 98.9665 73.7667 99.9426 74.761 101.249C75.6078 102.47 76.1422 103.882 76.3168 105.36C76.4915 106.838 76.301 108.336 75.7624 109.722C75.2299 111.151 74.3387 112.417 73.1754 113.397C72.0121 114.378 70.6162 115.039 69.1234 115.317C67.569 115.622 65.9678 115.592 64.4261 115.227C62.8843 114.863 61.4374 114.173 60.1813 113.204C58.912 112.137 57.8688 110.825 57.1137 109.345C56.3585 107.866 55.9068 106.249 55.7854 104.59C55.3648 100.223 57.4476 96.3088 59.6906 92.7366C61.9337 89.1643 64.5772 85.7632 68.2021 83.6802C68.5827 83.4689 69.0233 83.9922 68.6728 84.3041L68.7429 84.2639Z" fill="#73463B"/>
<path d="M2.40323 25.418C2.20296 29.4431 1.84247 33.4681 1.8625 37.4931C1.88252 41.5181 1.8625 45.5432 1.95262 49.5682C2.0127 56.0485 1.19159 63.5049 5.36723 68.989C7.21478 71.5917 9.97857 73.3905 13.0977 74.0203C14.483 74.2078 15.893 74.0279 17.1876 73.4983C18.4823 72.9687 19.6165 72.1079 20.4777 71.0015C24.2227 66.1513 21.5391 57.729 15.0503 57.2158C11.9361 56.9743 8.64166 59.2283 8.29118 62.4382C8.19087 63.1919 8.26465 63.9586 8.50681 64.679C8.74896 65.3994 9.15298 66.054 9.68753 66.5921C10.2221 67.1303 10.8728 67.5375 11.5892 67.7821C12.3056 68.0267 13.0685 68.1023 13.8187 68.0028C15.0103 67.8318 14.9802 65.8193 13.8187 65.6079C12.0963 65.296 10.7445 63.2835 11.6958 61.6433C12.8574 59.6308 15.4509 59.6308 17.1632 60.8282C21.4089 63.7665 20.3675 70.8908 15.2306 72.0983C12.4869 72.7323 9.59294 71.092 7.67034 69.2707C5.86123 67.4204 4.62621 65.0816 4.11554 62.5389C2.89389 57.246 3.35451 51.47 3.40458 46.0966C3.40458 42.7458 3.46466 39.3949 3.40458 36.034C3.35451 32.5021 3.01405 28.9902 2.81378 25.4784C2.81378 25.4224 2.79163 25.3686 2.75219 25.329C2.71275 25.2894 2.65927 25.2671 2.6035 25.2671C2.54773 25.2671 2.49424 25.2894 2.4548 25.329C2.41537 25.3686 2.39321 25.4224 2.39321 25.4784L2.40323 25.418Z" fill="#73463B"/>
<path d="M2.57347 30.3082C2.09734 33.693 2.51777 37.144 3.79236 40.3134C5.06695 43.4828 7.15063 46.2585 9.83328 48.3604C15.0203 52.3251 22.6907 52.9389 28.0379 48.8938C33.0446 45.0901 35.2476 38.0262 31.7128 32.4716C28.3783 27.229 20.3875 25.1763 15.6912 29.9661C14.4301 31.2408 13.5683 32.8589 13.2123 34.6204C12.8564 36.3819 13.022 38.2097 13.6885 39.8777C14.3919 41.5046 15.5812 42.8715 17.0918 43.7891C18.6024 44.7068 20.3595 45.1298 22.1199 44.9995C23.3115 44.8989 23.3515 43.0575 22.1199 43.0977C20.7766 43.1242 19.4534 42.7665 18.3046 42.0663C17.1558 41.3662 16.2286 40.3524 15.6311 39.1431C15.0958 37.9094 14.8962 36.555 15.0528 35.2183C15.2094 33.8817 15.7165 32.6109 16.5223 31.5358C17.4273 30.3331 18.6367 29.3962 20.0246 28.8228C21.4124 28.2493 22.9278 28.0604 24.413 28.2755C25.8744 28.4913 27.2614 29.0624 28.4533 29.9392C29.6451 30.816 30.606 31.9721 31.2522 33.3068C33.8958 38.4891 31.5426 44.909 26.9264 48.0787C22.3101 51.2484 16.0216 50.5239 11.4054 47.5353C5.58754 43.792 3.53477 36.9595 3.16426 30.4289C3.16426 30.1069 2.63355 29.9962 2.57347 30.3484V30.3082Z" fill="#73463B"/>
<path d="M23.1212 43.1686C20.4677 41.1561 20.3775 36.8996 23.4217 35.2091C26.4658 33.5186 30.1207 36.7185 30.9318 39.6668C31.1914 40.6022 31.2362 41.5846 31.0627 42.5398C30.8893 43.4951 30.5021 44.3982 29.9304 45.1811C29.5399 45.7044 30.4111 46.3786 30.8217 45.8755C31.5 45.0749 31.9886 44.13 32.2506 43.112C32.5125 42.094 32.5409 41.0295 32.3337 39.9989C31.8858 37.9859 30.7348 36.2008 29.0893 34.9676C28.315 34.2662 27.3644 33.7913 26.3405 33.5944C25.3167 33.3975 24.2587 33.4861 23.2815 33.8507C22.3971 34.2292 21.6262 34.833 21.0449 35.6024C20.4636 36.3718 20.0921 37.2802 19.967 38.238C19.8699 39.3392 20.0439 40.4475 20.4734 41.4652C20.903 42.483 21.575 43.379 22.4303 44.0742C22.4884 44.1293 22.5574 44.1715 22.6327 44.1981C22.708 44.2247 22.7881 44.2352 22.8677 44.2287C22.9473 44.2223 23.0247 44.1991 23.0948 44.1608C23.165 44.1224 23.2263 44.0697 23.2749 44.006C23.3235 43.9423 23.3583 43.8691 23.3769 43.791C23.3956 43.713 23.3977 43.6319 23.3833 43.553C23.3688 43.4741 23.338 43.3991 23.2928 43.3329C23.2477 43.2667 23.1892 43.2107 23.1212 43.1686Z" fill="#73463B"/>
<path d="M18.0244 35.2192C17.7852 35.6025 17.5808 36.0067 17.4135 36.4267C17.2884 36.8748 17.2377 37.3406 17.2633 37.8053C17.2788 38.7273 17.4869 39.6358 17.8742 40.4719C18.7107 42.144 19.9802 43.5588 21.5491 44.5673C22.0598 44.9195 22.5505 44.0642 22.0398 43.7221C20.6447 42.9034 19.4746 41.7483 18.6352 40.3612C18.2273 39.6188 17.9751 38.8003 17.8942 37.9562C17.7873 37.0676 17.8973 36.1662 18.2146 35.3299C18.2246 35.2192 18.0244 35.1085 18.0244 35.2192Z" fill="#73463B"/>
<path d="M20.027 31.9287C22.2801 29.5841 25.9551 30.6709 28.3383 32.1501C29.585 32.8778 30.578 33.9741 31.1821 35.2896C31.7108 36.6731 31.9064 38.1627 31.7529 39.6366C31.7529 40.2001 32.554 40.18 32.6141 39.6366C32.8328 37.9974 32.6365 36.3292 32.0433 34.7865C31.2614 33.3046 30.0352 32.1077 28.5385 31.3652C25.8249 29.7351 22.1399 29.0005 19.8768 31.7778C19.7967 31.8784 19.9269 32.0193 20.017 31.9287H20.027Z" fill="#73463B"/>
<path d="M8.0709 30.5298C7.0201 34.0691 7.35688 37.8783 9.01217 41.176C10.6684 44.3412 13.3959 46.8073 16.7026 48.1293C18.3693 48.8437 20.1626 49.2119 21.9747 49.2119C23.7867 49.2119 25.58 48.8437 27.2468 48.1293C28.8873 47.4462 30.2761 46.2679 31.2214 44.7574C32.1667 43.2468 32.6219 41.4785 32.5239 39.6968C32.506 39.5642 32.4408 39.4425 32.3405 39.3545C32.2401 39.2664 32.1114 39.2179 31.9782 39.2179C31.845 39.2179 31.7163 39.2664 31.6159 39.3545C31.5156 39.4425 31.4504 39.5642 31.4325 39.6968C30.9418 47.0928 22.4203 49.1657 16.6425 46.6702C13.6928 45.3341 11.2883 43.0217 9.83044 40.1191C8.37254 37.2165 7.94941 33.8993 8.63165 30.721C8.71176 30.3688 8.18104 30.2179 8.09092 30.5701L8.0709 30.5298Z" fill="#73463B"/>
<path d="M11.5656 -4.08993e-05C9.01217 -0.100667 7.20973 2.44516 7.16968 4.88031C7.1096 8.32171 9.80324 11.1392 11.1751 14.0674C12.8674 17.5994 13.5383 22.4596 9.93341 25.0759C7.05953 27.1588 2.24302 26.0822 1.58213 22.2081C1.25168 20.2459 2.23301 17.9415 4.30581 17.4585C6.74911 16.895 8.31122 20.1855 5.81785 21.2421C4.42597 21.8257 4.99674 24.1199 6.45872 23.5665C7.43162 23.2257 8.25109 22.5463 8.76899 21.6512C9.28689 20.7562 9.46905 19.7044 9.28253 18.6862C9.08849 17.7074 8.54878 16.8321 7.76296 16.2219C6.97714 15.6116 5.99822 15.3074 5.00675 15.3655C0.891192 15.6372 -1.08147 20.4672 0.6008 23.9288C2.39322 27.6217 7.38998 28.3865 10.5342 26.0721C14.2693 23.3451 14.3494 18.5553 12.7072 14.6108C11.6257 12.0046 9.7031 9.83109 8.70175 7.1947C7.86061 4.94068 8.42137 1.02634 11.5456 1.15716C12.2666 1.15716 12.2566 0.0703971 11.5456 0.0402094L11.5656 -4.08993e-05Z" fill="#73463B"/>
<path d="M13.6785 20.2157C13.9789 18.0623 13.0877 15.8586 12.7272 13.7757C12.3667 11.6927 12.3667 9.35822 14.0189 7.96959C15.6712 6.58095 17.6639 7.41614 18.5951 9.12678C18.8133 9.49659 18.9217 9.92139 18.9075 10.3511C18.8933 10.7808 18.7571 11.1974 18.515 11.5519C18.421 11.7008 18.2955 11.8271 18.1474 11.9216C17.9992 12.0161 17.8321 12.0766 17.658 12.0987C17.4839 12.1208 17.3071 12.104 17.1402 12.0495C16.9733 11.995 16.8204 11.9041 16.6925 11.7833C15.6411 10.6965 13.9388 12.4676 15.0603 13.4134C15.4543 13.7518 15.9187 13.9971 16.4195 14.1311C16.9203 14.2652 17.4446 14.2847 17.9538 14.1881C18.4631 14.0916 18.9443 13.8814 19.362 13.5732C19.7798 13.265 20.1234 12.8665 20.3675 12.4072C20.8138 11.4055 20.9133 10.2824 20.6501 9.21726C20.387 8.15209 19.7763 7.20623 18.9156 6.53064C18.1352 5.8161 17.125 5.40764 16.0696 5.37993C15.0143 5.35221 13.9842 5.70709 13.1678 6.3797C12.3686 7.11276 11.7662 8.03639 11.4162 9.06525C11.0662 10.0941 10.9798 11.195 11.1651 12.2663C11.3328 13.5675 11.6177 14.8507 12.0162 16.1001C12.4168 17.4586 12.617 18.9177 13.1177 20.2459C13.2078 20.4673 13.6184 20.5478 13.6584 20.2459L13.6785 20.2157Z" fill="#73463B"/>
</g>
<defs>
<clipPath id="clip0_53_71">
<rect width="148" height="119" fill="white"/>
</clipPath>
</defs>
</svg>
