<svg width="149" height="119" viewBox="0 0 149 119" fill="none" xmlns="http://www.w3.org/2000/svg">
<g clip-path="url(#clip0_53_161)">
<path d="M114.364 25.73C118.079 25.1363 119.661 19.8535 115.896 18.0825C112.351 16.4221 109.637 20.417 109.557 23.5968C109.557 25.1589 109.919 26.6996 110.614 28.0969C111.309 29.4941 112.319 30.7095 113.562 31.6468C114.998 32.6926 116.728 33.2499 118.501 33.2372C120.273 33.2245 121.996 32.6426 123.416 31.5764C124.992 30.5053 126.27 29.0475 127.129 27.3412C127.987 25.6348 128.398 23.7364 128.322 21.8258C128.126 19.9501 127.513 18.1427 126.528 16.537C125.544 14.9312 124.213 13.5681 122.635 12.5481C115.024 7.44633 106.102 11.8537 100.144 17.4284C93.3751 23.7578 88.7188 32.1399 80.8883 37.2416C77.0099 39.7522 72.6734 41.4625 68.131 42.2729C63.5949 43.0779 58.6182 43.1886 54.2322 41.5685C51.0189 40.2924 48.2681 38.0638 46.3454 35.1791C44.4226 32.2943 43.4189 28.8898 43.4677 25.4181C43.4122 21.8483 44.6028 18.3718 46.8327 15.5924C49.0626 12.813 52.1909 10.9063 55.6742 10.2035C57.4248 9.77154 59.251 9.75206 61.0103 10.1466C62.7696 10.5411 64.4143 11.3389 65.8161 12.4777C67.2179 13.6165 68.3388 15.0654 69.0912 16.7115C69.8437 18.3575 70.2073 20.156 70.1538 21.9666C70.1116 23.8696 69.5218 25.7196 68.4556 27.2929C67.3893 28.8662 65.8923 30.0953 64.1456 30.8318C62.2989 31.6105 60.2621 31.8149 58.2986 31.4184C56.3351 31.022 54.5349 30.043 53.1308 28.6079C51.799 27.2359 50.8823 25.5121 50.4872 23.637C50.4523 23.4283 50.4957 23.2141 50.6089 23.0356C50.7221 22.8572 50.8971 22.7273 51.1001 22.671C51.3031 22.6147 51.5196 22.636 51.7079 22.7307C51.8961 22.8255 52.0428 22.9871 52.1194 23.1842C52.6688 25.108 53.9279 26.7487 55.6398 27.7715C57.3517 28.7943 59.3875 29.1223 61.3318 28.6884C63.0722 28.316 64.6245 27.3347 65.712 25.9193C66.7995 24.504 67.3516 22.7466 67.2699 20.9604C67.2063 19.2697 66.7128 17.6237 65.8363 16.1792C64.9598 14.7347 63.7296 13.54 62.2631 12.7091C58.6582 10.7972 54.2523 11.5317 50.9078 13.6348C44.2788 17.7806 43.0772 26.5854 46.5619 33.2267C50.8777 41.4578 61.2718 41.9509 69.2626 39.8176C73.8658 38.5891 78.1475 36.3674 81.8095 33.3071C85.346 30.1362 88.5717 26.6318 91.4425 22.8421C97.0501 15.9895 103.769 8.75447 113.042 7.74821C121.053 6.82246 129.484 12.2864 130.706 20.5579C131.847 28.3865 124.768 36.4869 116.757 35.5612C109.917 34.8065 105.001 26.7061 107.574 20.2459C109.046 16.5429 112.841 13.9971 116.737 15.6876C117.591 16.0391 118.353 16.5837 118.964 17.2791C119.575 17.9745 120.018 18.802 120.259 19.6974C120.5 20.5928 120.533 21.532 120.354 22.442C120.176 23.3521 119.791 24.2087 119.23 24.9452C118.669 25.6372 117.962 26.1956 117.16 26.5801C116.359 26.9647 115.482 27.1658 114.594 27.169C113.803 27.169 113.592 25.8608 114.404 25.73H114.364Z" fill="#73463B"/>
<path d="M113.943 25.9716C114.036 25.7358 114.078 25.4828 114.066 25.2294C114.054 24.976 113.988 24.7282 113.873 24.5024C113.612 24.0143 113.196 23.6281 112.691 23.4056L112.501 23.3251C112.641 23.3855 112.391 23.3251 112.361 23.3251C112.174 23.2642 111.983 23.2171 111.79 23.1842C111.91 23.1842 111.61 23.1842 111.62 23.1842H111.329C111.149 23.1692 110.969 23.1692 110.789 23.1842C110.04 23.2124 109.303 23.3796 108.616 23.6773C108.447 23.74 108.26 23.7328 108.097 23.6574C107.934 23.5819 107.807 23.4443 107.744 23.2748C107.682 23.1053 107.689 22.9179 107.764 22.7537C107.839 22.5895 107.976 22.4621 108.145 22.3994C109.827 21.3931 112.08 20.8598 113.733 22.2082C114.351 22.6921 114.789 23.372 114.974 24.1375C115.16 24.9029 115.082 25.7089 114.754 26.4244C114.691 26.5321 114.589 26.6106 114.469 26.6426C114.349 26.6746 114.221 26.6577 114.113 26.5955C114.008 26.5306 113.931 26.4276 113.9 26.3077C113.868 26.1878 113.884 26.0602 113.943 25.9514V25.9716Z" fill="#73463B"/>
<path d="M51.5786 22.5302C53.1295 23.0845 54.8344 23.0087 56.3305 22.319C57.8267 21.6293 58.9959 20.3801 59.5894 18.8372C59.8583 18.1227 59.9835 17.3617 59.9577 16.5983C59.9319 15.8348 59.7557 15.0841 59.4392 14.3896C58.7783 13.0512 57.5166 11.6928 55.9145 11.9142C55.2235 12.0047 54.9131 10.9683 55.6141 10.8375C58.9986 10.2136 61.7724 13.0613 62.0427 16.2914C62.162 18.0093 61.6954 19.7167 60.7197 21.1325C59.7441 22.5482 58.3177 23.5877 56.6755 24.0798C55.7452 24.3258 54.7778 24.3974 53.8216 24.2911C52.8975 24.1575 52.0032 23.8648 51.1781 23.4258C50.6774 23.1943 51.0379 22.3189 51.5486 22.5302H51.5786Z" fill="#73463B"/>
<path d="M53.2509 40.683C44.1786 37.5636 41.7954 26.7866 36.2279 20.0749C30.8767 13.7831 23.6322 9.41365 15.59 7.62745C11.0299 6.62063 6.32257 6.4807 1.71125 7.21489L2.1218 6.20863C4.95563 9.93179 5.97701 14.5304 7.77944 18.7768C9.37417 22.6865 11.6953 26.2552 14.6187 29.2922C17.5259 32.3137 21.2165 34.4573 25.2731 35.4807C29.6991 36.4869 34.2853 36.2454 38.8214 36.2857C43.6379 36.2857 48.5946 36.7888 52.7602 39.4352L51.9692 40.4415C48.7748 37.946 44.6993 37.0504 40.8141 36.2957C36.9072 35.6966 33.0741 34.6848 29.3786 33.2769C25.6858 31.6887 22.2972 29.465 19.3651 26.7061C16.5852 23.9441 14.1201 20.8796 12.0152 17.5693C9.4517 13.826 6.84819 10.0525 3.23331 7.25513C3.17095 7.21687 3.11731 7.16584 3.07587 7.10538C3.03442 7.04491 3.0061 6.97635 2.99275 6.90417C2.9794 6.83198 2.98132 6.75778 2.99839 6.68639C3.01545 6.615 3.04728 6.54801 3.09179 6.48979C3.1363 6.43156 3.19251 6.38341 3.25676 6.34845C3.32101 6.31349 3.39186 6.29251 3.46471 6.28687C3.53756 6.28123 3.61077 6.29106 3.67959 6.31572C3.74841 6.34039 3.81129 6.37932 3.86415 6.43C10.1526 11.3305 13.4571 18.8774 18.8144 24.6332C21.658 27.6748 25.0577 30.138 28.8279 31.8883C32.6101 33.497 36.586 34.5999 40.6539 35.1687C44.9296 35.9133 49.2054 36.8391 52.7903 39.4252C53.4612 39.9082 52.8704 40.9849 52.1294 40.5522C43.9583 35.8027 33.9148 39.4352 25.0928 37.4328C16.7816 35.5511 10.6033 28.8092 7.11855 21.3327C4.92558 16.6033 4.06443 11.2097 0.920181 6.96333C0.867306 6.87252 0.835983 6.77068 0.828644 6.66572C0.821304 6.56077 0.838142 6.45553 0.877857 6.35818C0.917576 6.26084 0.979092 6.17401 1.05764 6.10444C1.13618 6.03487 1.22963 5.98444 1.33073 5.95707C9.461 4.44785 17.8599 5.7011 25.203 9.51921C28.8793 11.3841 32.236 13.8264 35.1464 16.7542C38.2341 20.0589 40.8006 23.8189 42.7567 27.9035C45.2701 32.7336 48.0539 38.0265 53.4712 39.9786C53.9218 40.1396 53.7315 40.8641 53.2709 40.7031L53.2509 40.683Z" fill="#73463B"/>
<path d="M3.60382 7.03378C10.6133 8.90542 16.5313 13.1619 21.6282 18.324C24.0815 20.8296 26.4347 23.4559 29.0482 25.8105C31.7114 28.1841 34.7032 30.1568 37.9302 31.667C41.5351 33.3776 45.3202 34.897 48.3843 37.5234L47.383 38.5296C36.8888 28.7388 28.0569 16.2813 14.6387 10.2639C11.0624 8.64325 7.22742 7.67555 3.31343 7.4061C2.31208 7.33566 2.31208 5.82627 3.31343 5.86652C18.1735 6.53065 29.2685 18.2636 38.8915 28.3262C41.8802 31.5395 45.0284 34.599 48.3243 37.4932C49.0252 38.0869 48.0339 39.0328 47.3229 38.4995C44.4991 36.2957 41.2146 34.9272 37.9803 33.4682C34.863 32.1538 31.9468 30.4023 29.3186 28.2658C24.0414 23.8081 20.0961 17.9919 14.6588 13.7053C11.2458 11.0898 7.45763 9.00997 3.42358 7.53691C3.36473 7.50782 3.31788 7.45891 3.2912 7.3987C3.26452 7.33849 3.25968 7.27078 3.27754 7.20737C3.2954 7.14395 3.33484 7.08882 3.38896 7.05159C3.44308 7.01436 3.50848 6.99737 3.57378 7.00359L3.60382 7.03378Z" fill="#73463B"/>
<path d="M52.2495 40.4517C50.8078 39.5109 49.1939 38.8682 47.5023 38.5613C45.8106 38.2544 44.075 38.2893 42.3969 38.664C40.7188 39.0387 39.1319 39.7458 37.7288 40.7438C36.3257 41.7418 35.1346 43.0109 34.2251 44.4767C32.2224 47.7873 32.1423 51.8224 32.9434 55.5455C33.7445 59.2687 35.5569 62.5189 38.9515 64.2597C43.0571 66.3427 47.8535 65.266 51.5786 62.8711L51.8189 63.7465C48.945 63.7465 45.6806 63.012 44.2587 60.2045C42.8368 57.397 44.6392 55.2638 45.8709 52.8689C47.4129 49.8501 45.3101 47.1232 45.3401 44.0641C45.3645 42.7701 45.8635 41.5308 46.7413 40.5837C47.619 39.6366 48.8139 39.0485 50.0966 38.9322C50.0465 39.3448 49.9864 39.7574 49.9364 40.1699C44.459 38.0367 38.541 42.1824 36.4882 47.2137C34.3052 52.6173 35.5669 59.2888 40.824 62.3579C42.0966 63.1205 43.5252 63.5821 45.0017 63.7076C46.4781 63.8332 47.9636 63.6194 49.3456 63.0824C50.0966 62.7805 50.4571 64.0383 49.686 64.3201C44.0384 66.3326 37.5696 62.8912 35.4368 57.4071C34.3632 54.3979 34.2977 51.1186 35.2504 48.0686C36.2031 45.0185 38.1216 42.365 40.7139 40.5121C42.0686 39.5084 43.6421 38.8443 45.3036 38.5747C46.9651 38.3052 48.6667 38.4381 50.2668 38.9624C50.7875 39.1536 50.9377 40.0693 50.2668 40.18C47.4931 40.6429 46.4817 43.1988 47.0625 45.7547C47.5732 47.9986 48.5945 50.2426 47.7634 52.5469C47.0124 54.5594 44.7594 56.4814 45.2701 58.8259C45.941 61.724 49.2755 62.539 51.8189 62.851C51.9192 62.858 52.0148 62.8965 52.0922 62.9611C52.1696 63.0256 52.2249 63.1129 52.2503 63.2107C52.2758 63.3084 52.27 63.4117 52.234 63.5061C52.1979 63.6004 52.1333 63.681 52.0492 63.7365C50.289 64.8787 48.3174 65.652 46.2526 66.01C44.1878 66.3679 42.0723 66.3031 40.033 65.8194C38.0732 65.3323 36.2715 64.3458 34.8017 62.9551C33.3318 61.5644 32.2435 59.8165 31.6416 57.8801C30.1648 53.6958 30.2145 49.1206 31.7818 44.9698C32.5256 43.2099 33.6201 41.6218 34.9978 40.3031C36.3755 38.9844 38.0073 37.9631 39.7926 37.3021C41.9643 36.5803 44.2817 36.4186 46.5319 36.8318C48.782 37.245 50.8927 38.2198 52.67 39.6668C53.1106 40.019 52.6701 40.7938 52.2094 40.4517H52.2495Z" fill="#73463B"/>
<path d="M50.1867 64.0283C44.3288 64.1591 40.3634 58.997 39.6024 53.5431C39.1226 50.6237 39.4304 47.6285 40.4936 44.8692C41.0965 43.5508 41.9729 42.377 43.064 41.4266C44.1551 40.4763 45.4357 39.7712 46.8201 39.3586C48.2044 38.946 49.6605 38.8355 51.0908 39.0345C52.5211 39.2334 53.8926 39.7372 55.1133 40.5121C55.7442 40.9347 55.1734 41.951 54.5025 41.5184C53.1633 40.6667 51.6225 40.1889 50.0385 40.134C48.4546 40.0792 46.8847 40.4494 45.4903 41.2064C44.1336 42.051 42.9993 43.2117 42.1835 44.5902C41.3678 45.9687 40.8946 47.5244 40.804 49.1257C40.3646 52.3658 40.998 55.6613 42.6064 58.504C43.3856 59.8449 44.4949 60.962 45.8276 61.7479C47.1603 62.5338 48.6717 62.9622 50.2167 62.9919C50.3255 63.0231 50.4212 63.0891 50.4894 63.1799C50.5575 63.2707 50.5944 63.3813 50.5944 63.495C50.5944 63.6087 50.5575 63.7193 50.4894 63.8101C50.4212 63.9009 50.3255 63.9669 50.2167 63.9981L50.1867 64.0283Z" fill="#73463B"/>
<path d="M46.6019 36.0946C43.0142 30.5043 40.4661 24.3059 39.0817 17.8009C37.8701 11.7633 38.6511 4.56859 43.6279 0.362434C45.0197 -0.804825 47.0224 1.13725 45.6306 2.37495C41.1345 6.39998 40.6238 12.6187 41.3848 18.3342C42.2758 24.4205 44.3587 30.2689 47.5131 35.5412C47.8736 36.1349 46.9523 36.6783 46.5818 36.0846L46.6019 36.0946Z" fill="#73463B"/>
<path d="M43.2674 37.3423C34.5256 39.1334 23.7811 42.6352 21.7083 52.6475C21.3979 54.1568 19.1849 53.4927 19.4252 52.0135C20.2163 47.1935 23.5808 43.2792 27.5962 40.7233C32.2525 37.7548 37.7299 36.8492 43.1172 36.2555C43.728 36.1951 43.8682 37.2618 43.2674 37.3423Z" fill="#73463B"/>
<path d="M62.4133 42.2126C59.4274 42.142 56.5154 41.2662 53.9819 39.6769C52.7133 38.8857 51.5663 37.9128 50.5773 36.7889C49.4624 35.7091 48.7817 34.255 48.6647 32.7035C48.6647 31.9589 49.7562 31.979 49.8062 32.7035C50.0674 34.124 50.7977 35.4145 51.879 36.3663C52.7774 37.3275 53.7858 38.1787 54.8831 38.9021C57.1366 40.338 59.7189 41.1694 62.3832 41.3171C62.4899 41.3332 62.5873 41.3873 62.6577 41.4694C62.7281 41.5516 62.7668 41.6564 62.7668 41.7649C62.7668 41.8733 62.7281 41.9781 62.6577 42.0603C62.5873 42.1425 62.4899 42.1965 62.3832 42.2126H62.4133Z" fill="#73463B"/>
<path d="M76.7026 38.1773C84.3329 33.2869 94.4365 27.6217 103.309 33.0756C110.108 37.2617 112.1 46.8412 107.895 53.5429C103.479 60.5867 93.8758 63.6055 86.616 59.027C84.9047 57.9494 83.4693 56.4828 82.4257 54.7454C81.3821 53.008 80.7594 51.0485 80.6079 49.0248C80.422 47.0744 80.7842 45.1108 81.6533 43.357C82.5224 41.6031 83.8636 40.1293 85.5245 39.1031C89.0693 37.0906 94.2062 38.4289 95.4779 42.5747C96.9599 47.4148 92.534 51.782 87.8176 51.4499C87.6429 51.443 87.475 51.3803 87.3383 51.2709C87.2015 51.1615 87.1031 51.0111 87.0573 50.8416C87.0115 50.6721 87.0207 50.4923 87.0836 50.3284C87.1465 50.1646 87.2598 50.0251 87.407 49.9304C87.8104 49.6363 88.1038 49.2145 88.24 48.7328C88.3762 48.251 88.3473 47.7372 88.1581 47.2739C87.9584 46.7314 87.5809 46.2734 87.0877 45.9752C86.5944 45.6771 86.0148 45.5567 85.4444 45.6337C82.0097 45.8752 81.439 49.9405 82.6606 52.4964C82.6876 52.5625 82.7013 52.6332 82.7011 52.7046C82.7008 52.776 82.6866 52.8467 82.6591 52.9126C82.6317 52.9784 82.5916 53.0383 82.5412 53.0886C82.4908 53.1389 82.431 53.1787 82.3652 53.2058C82.2995 53.2329 82.2291 53.2467 82.158 53.2464C82.0869 53.2462 82.0166 53.2319 81.9511 53.2043C81.8855 53.1767 81.826 53.1365 81.7759 53.0858C81.7259 53.0351 81.6862 52.975 81.6593 52.909C81.2324 51.9733 81.0198 50.9532 81.0371 49.924C81.0544 48.8948 81.3012 47.8826 81.7594 46.962C82.2066 46.2108 82.8363 45.5859 83.5893 45.1459C84.3424 44.7059 85.1943 44.4652 86.0652 44.4463C86.8537 44.4742 87.6141 44.7476 88.2412 45.2289C88.8682 45.7101 89.3309 46.3753 89.5651 47.1324C89.7994 47.8895 89.7937 48.701 89.5488 49.4547C89.3039 50.2084 88.8319 50.8669 88.1981 51.3392C88.0579 50.8361 87.9277 50.3329 87.7876 49.8197C88.7051 49.877 89.6244 49.741 90.4866 49.4205C91.3488 49.0999 92.1348 48.6018 92.7943 47.9582C93.449 47.2636 93.9044 46.4039 94.1125 45.4703C94.3205 44.5368 94.2733 43.564 93.9759 42.6552C92.7342 39.1132 88.088 38.7509 85.3743 40.6427C82.3702 42.7256 81.3689 46.7406 82.1399 50.1619C82.5301 51.9386 83.3281 53.5991 84.4704 55.0107C85.6126 56.4224 87.0675 57.5462 88.7188 58.2924C91.9107 59.7088 95.5089 59.8989 98.8311 58.8269C102.153 57.7549 104.969 55.4952 106.743 52.4763C108.406 49.5843 108.905 46.1627 108.138 42.9128C107.371 39.6629 105.396 36.831 102.618 34.9976C98.9927 32.6832 94.3765 32.5826 90.2909 33.4681C85.6647 34.4743 81.439 36.8189 77.2733 39.0629C77.2155 39.0972 77.1515 39.1198 77.0849 39.1293C77.0184 39.1388 76.9506 39.135 76.8855 39.1182C76.8205 39.1014 76.7593 39.0718 76.7056 39.0312C76.6518 38.9907 76.6066 38.9399 76.5724 38.8817C76.5382 38.8236 76.5157 38.7592 76.5063 38.6924C76.4969 38.6255 76.5006 38.5574 76.5173 38.492C76.5341 38.4266 76.5635 38.3652 76.6039 38.3112C76.6442 38.2572 76.6948 38.2117 76.7526 38.1773H76.7026Z" fill="#73463B"/>
<path d="M92.1334 39.6867C84.9637 38.288 78.6552 42.8263 72.2466 45.2212C66.3586 47.4249 59.5895 48.2399 53.8717 45.1407C51.1091 43.7032 48.9185 41.3599 47.6633 38.4994C47.3129 37.6642 48.5245 36.9296 48.895 37.7849C51.2782 43.2489 57.3264 45.835 62.984 45.6538C66.3195 45.5152 69.6058 44.7968 72.6972 43.5306C75.7914 42.3332 78.7053 40.7332 81.8696 39.6767C85.2141 38.5597 88.829 38.0163 92.2536 39.1333C92.328 39.1546 92.3908 39.2048 92.4284 39.2727C92.466 39.3407 92.4751 39.4208 92.4539 39.4955C92.4326 39.5703 92.3827 39.6335 92.3151 39.6712C92.2475 39.7089 92.1677 39.7182 92.0934 39.6968L92.1334 39.6867Z" fill="#73463B"/>
<path d="M63.3044 22.5402C63.8605 20.4431 63.7908 18.2281 63.1041 16.1706C62.5133 14.4297 61.3518 12.7292 59.4492 12.3568C58.7082 12.216 59.0186 11.0688 59.7596 11.2198C61.8524 11.6525 63.034 13.7254 63.6949 15.6171C64.4665 17.8929 64.5224 20.3521 63.8551 22.6609C63.8256 22.7222 63.7757 22.7711 63.714 22.7993C63.6523 22.8275 63.5828 22.8331 63.5174 22.8152C63.4521 22.7972 63.395 22.7569 63.3561 22.7012C63.3172 22.6455 63.2989 22.5778 63.3044 22.51V22.5402Z" fill="#73463B"/>
<path d="M62.1129 25.6394C60.3744 26.772 58.3652 27.4148 56.295 27.501C55.4295 27.4718 54.5798 27.2592 53.8017 26.8771C52.9633 26.5198 52.2858 25.8641 51.8991 25.0356C51.7289 24.4923 52.4098 24.2005 52.7903 24.5124C53.1708 24.8243 53.271 25.0658 53.5413 25.3073C53.813 25.5469 54.1122 25.753 54.4325 25.9212C55.1013 26.2534 55.8304 26.4452 56.5754 26.4847C58.4047 26.5011 60.203 26.0102 61.7724 25.0658C62.153 24.8746 62.4834 25.4382 62.1129 25.6394Z" fill="#73463B"/>
<path d="M98.8725 36.7284C104.23 39.5056 105.742 46.2576 103.319 51.5103C102.191 54.12 100.169 56.2367 97.6208 57.4757C95.0721 58.7148 92.1657 58.9938 89.4297 58.2623C86.3893 57.44 83.7882 55.458 82.18 52.7379C82.0097 52.4562 82.4303 52.2348 82.6105 52.4863C84.1147 54.4396 86.1788 55.8824 88.5244 56.6201C90.87 57.3578 93.3843 57.355 95.7283 56.612C100.545 55.0422 103.599 49.8198 103.158 44.8488C103.031 43.3065 102.544 41.816 101.736 40.498C100.929 39.1799 99.8246 38.0712 98.512 37.2617C98.4752 37.2405 98.4429 37.2123 98.4169 37.1786C98.391 37.1449 98.3718 37.1064 98.3607 37.0653C98.3495 37.0242 98.3465 36.9813 98.3519 36.939C98.3572 36.8967 98.3708 36.8559 98.3919 36.8189C98.4129 36.7819 98.441 36.7494 98.4745 36.7234C98.508 36.6973 98.5464 36.6781 98.5873 36.6668C98.6699 36.6442 98.7581 36.6555 98.8325 36.6982L98.8725 36.7284Z" fill="#73463B"/>
<path d="M98.7323 47.3746C98.1816 51.8122 93.335 54.6599 89.2395 55.0322C84.9136 55.4246 80.9983 51.3795 81.0784 47.1129C81.0784 46.9662 81.1365 46.8254 81.2398 46.7216C81.343 46.6178 81.4831 46.5595 81.6292 46.5595C81.7753 46.5595 81.9153 46.6178 82.0186 46.7216C82.1219 46.8254 82.1799 46.9662 82.1799 47.1129C82.2186 48.0137 82.4381 48.8974 82.8251 49.7108C83.2121 50.5242 83.7587 51.2507 84.4321 51.8465C85.1054 52.4424 85.8917 52.8954 86.7436 53.1782C87.5956 53.4611 88.4956 53.568 89.3897 53.4926C92.9845 53.2813 97.5807 51.1682 98.4019 47.3343C98.4019 47.1733 98.7123 47.2035 98.6922 47.3343L98.7323 47.3746Z" fill="#73463B"/>
<path d="M86.5058 31.3249C90.3367 25.8476 95.3741 21.3331 101.226 18.1328C106.072 15.587 114.173 12.9104 118.579 17.6901C119.2 18.3643 118.209 19.3705 117.578 18.6963C115.525 16.5933 112.391 16.6838 109.697 17.1568C106.702 17.6995 103.803 18.6863 101.096 20.085C95.71 22.9963 91.0373 27.0765 87.4171 32.0293C87.0165 32.5424 86.1253 31.8582 86.5058 31.3249Z" fill="#73463B"/>
<path d="M122.444 16.6335C123.615 18.1755 124.309 20.0294 124.44 21.9646C124.571 23.8998 124.132 25.831 123.179 27.5178C122.226 29.2046 120.801 30.5726 119.08 31.4517C117.36 32.3308 115.42 32.6821 113.502 32.462C112.523 32.3541 111.59 31.9833 110.803 31.3884C110.015 30.7935 109.402 29.9964 109.026 29.0809C108.736 28.2759 110.028 27.7426 110.418 28.4973C112.421 32.2104 117.668 31.0331 120.301 28.7992C121.949 27.3395 123.026 25.3391 123.342 23.155C123.657 20.9708 123.19 18.7451 122.024 16.875C121.864 16.6034 122.264 16.392 122.444 16.6235V16.6335Z" fill="#73463B"/>
<path d="M80.0571 34.7361C84.4523 30.7764 87.9024 25.8716 90.1508 20.3869C92.0934 15.5468 91.1521 9.17719 86.3056 6.38986C81.9397 3.86415 75.7012 5.50436 74.2893 10.6866C73.9607 11.7827 73.9001 12.9423 74.1128 14.067C74.3255 15.1917 74.8051 16.2482 75.511 17.1468C76.4236 18.1857 77.6463 18.9001 78.9963 19.183C80.3464 19.466 81.7513 19.3023 83.0011 18.7165C83.6902 18.4187 84.2972 17.9573 84.7699 17.3719C85.2425 16.7865 85.5668 16.0946 85.7148 15.3556C85.8639 14.6534 85.7939 13.922 85.5143 13.2611C85.2348 12.6003 84.7593 12.0421 84.1526 11.6627C83.5384 11.2786 82.8043 11.1371 82.0923 11.2653C81.3802 11.3936 80.7407 11.7825 80.2974 12.357C79.9593 12.9296 79.856 13.6119 80.0092 14.2597C80.1624 14.9075 80.5602 15.47 81.1186 15.8286L80.2874 16.1606C80.5219 15.4972 81.0044 14.9516 81.6326 14.6398C82.2608 14.3279 82.9851 14.2743 83.652 14.4902C84.2952 14.7632 84.8112 15.2714 85.0957 15.9122C85.3801 16.553 85.4117 17.2784 85.184 17.9417C84.9437 18.6461 83.8022 18.3341 84.0625 17.6298C84.1497 17.4509 84.1998 17.2562 84.2098 17.0573C84.2198 16.8584 84.1894 16.6595 84.1205 16.4728C84.0516 16.2861 83.9457 16.1154 83.8092 15.971C83.6726 15.8267 83.5083 15.7118 83.3262 15.6333C83.1441 15.5547 82.948 15.5142 82.7498 15.5142C82.5516 15.5142 82.3555 15.5547 82.1734 15.6332C81.9913 15.7117 81.8269 15.8266 81.6903 15.9709C81.5538 16.1152 81.4478 16.2858 81.3789 16.4726C81.3541 16.5553 81.3111 16.6314 81.2529 16.6951C81.1948 16.7588 81.1231 16.8085 81.0432 16.8404C80.9633 16.8723 80.8772 16.8857 80.7914 16.8795C80.7056 16.8733 80.6223 16.8477 80.5478 16.8046C80.0336 16.4584 79.6089 15.9941 79.3089 15.4501C79.0089 14.9062 78.8422 14.2982 78.8226 13.6765C78.8031 13.0549 78.9312 12.4375 79.1964 11.8756C79.4615 11.3136 79.8561 10.8232 80.3475 10.4451C82.961 8.55332 86.5058 10.264 87.2969 13.2123C88.1981 16.5631 85.905 19.7127 82.7508 20.6586C81.1759 21.1078 79.503 21.0707 77.9494 20.5521C76.3958 20.0335 75.0333 19.0574 74.039 17.7505C73.1922 16.5296 72.6578 15.1179 72.4832 13.6401C72.3085 12.1623 72.4989 10.664 73.0376 9.27782C73.5701 7.84907 74.4613 6.58301 75.6246 5.60267C76.7879 4.62233 78.1838 3.96103 79.6766 3.68303C81.231 3.37778 82.8322 3.40833 84.3739 3.77266C85.9156 4.137 87.3626 4.82677 88.6187 5.79617C89.888 6.86298 90.9312 8.17512 91.6863 9.65475C92.4415 11.1344 92.8932 12.7514 93.0146 14.4097C93.4352 18.7769 91.3524 22.6912 89.1093 26.2634C86.8663 29.8357 84.2227 33.2368 80.5978 35.3198C80.2173 35.5311 79.7767 35.0078 80.1272 34.6959L80.0571 34.7361Z" fill="#73463B"/>
<path d="M146.397 93.582C146.597 89.5569 146.957 85.5319 146.937 81.5069C146.917 77.4819 146.937 73.4568 146.847 69.4318C146.787 62.9515 147.608 55.4951 143.433 50.011C141.585 47.4083 138.821 45.6095 135.702 44.9797C134.317 44.7922 132.907 44.9721 131.612 45.5017C130.318 46.0313 129.183 46.8921 128.322 47.9985C124.577 52.8487 127.261 61.271 133.75 61.7842C136.864 62.0257 140.158 59.7717 140.509 56.5618C140.609 55.8081 140.535 55.0414 140.293 54.321C140.051 53.6006 139.647 52.946 139.112 52.4079C138.578 51.8697 137.927 51.4625 137.211 51.2179C136.494 50.9733 135.731 50.8977 134.981 50.9972C133.79 51.1682 133.82 53.1807 134.981 53.3921C136.704 53.704 138.055 55.7165 137.104 57.3567C135.943 59.3692 133.349 59.3692 131.637 58.1718C127.391 55.2335 128.432 48.1092 133.569 46.9017C136.313 46.2677 139.207 47.908 141.13 49.7293C142.939 51.5796 144.174 53.9184 144.684 56.4611C145.906 61.754 145.445 67.53 145.395 72.9034C145.395 76.2542 145.335 79.6051 145.395 82.966C145.445 86.4979 145.786 90.0098 145.986 93.5216C145.986 93.5776 146.008 93.6314 146.048 93.671C146.087 93.7106 146.141 93.7329 146.196 93.7329C146.252 93.7329 146.306 93.7106 146.345 93.671C146.385 93.6314 146.407 93.5776 146.407 93.5216L146.397 93.582Z" fill="#73463B"/>
<path d="M146.227 88.6916C146.703 85.3068 146.282 81.8557 145.008 78.6863C143.733 75.5169 141.649 72.7413 138.967 70.6393C133.78 66.6747 126.109 66.0608 120.762 70.106C115.755 73.9097 113.552 80.9736 117.087 86.5281C120.422 91.7707 128.412 93.8235 133.109 89.0337C134.37 87.759 135.232 86.1409 135.588 84.3794C135.944 82.6178 135.778 80.7901 135.112 79.1221C134.408 77.4952 133.219 76.1283 131.708 75.2106C130.198 74.293 128.441 73.87 126.68 74.0002C125.489 74.1008 125.448 75.9423 126.68 75.902C128.023 75.8756 129.347 76.2333 130.495 76.9334C131.644 77.6336 132.571 78.6473 133.169 79.8566C133.704 81.0903 133.904 82.4448 133.747 83.7814C133.591 85.1181 133.083 86.3889 132.278 87.4639C131.373 88.6667 130.163 89.6036 128.775 90.177C127.388 90.7504 125.872 90.9394 124.387 90.7242C122.926 90.5085 121.539 89.9374 120.347 89.0605C119.155 88.1837 118.194 87.0277 117.548 85.6929C114.904 80.5107 117.257 74.0908 121.874 70.9211C126.49 67.7514 132.778 68.4759 137.395 71.4644C143.212 75.2077 145.265 82.0402 145.636 88.5708C145.636 88.8928 146.166 89.0035 146.227 88.6513V88.6916Z" fill="#73463B"/>
<path d="M125.679 75.8316C128.332 77.8441 128.422 82.1006 125.378 83.7911C122.334 85.4816 118.679 82.2817 117.868 79.3334C117.609 78.3981 117.564 77.4157 117.737 76.4604C117.911 75.5052 118.298 74.602 118.87 73.8191C119.26 73.2959 118.389 72.6217 117.978 73.1248C117.3 73.9253 116.811 74.8702 116.549 75.8882C116.287 76.9062 116.259 77.9707 116.466 79.0013C116.914 81.0144 118.065 82.7994 119.711 84.0326C120.485 84.734 121.436 85.2089 122.459 85.4058C123.483 85.6027 124.541 85.5141 125.518 85.1496C126.403 84.771 127.174 84.1673 127.755 83.3979C128.336 82.6285 128.708 81.7201 128.833 80.7623C128.93 79.6611 128.756 78.5528 128.327 77.535C127.897 76.5173 127.225 75.6213 126.37 74.926C126.312 74.8709 126.243 74.8287 126.167 74.8021C126.092 74.7755 126.012 74.7651 125.932 74.7715C125.853 74.778 125.775 74.8011 125.705 74.8395C125.635 74.8778 125.574 74.9306 125.525 74.9943C125.476 75.058 125.442 75.1312 125.423 75.2092C125.404 75.2872 125.402 75.3683 125.417 75.4473C125.431 75.5262 125.462 75.6012 125.507 75.6674C125.552 75.7336 125.611 75.7895 125.679 75.8316Z" fill="#73463B"/>
<path d="M130.776 83.7811C131.015 83.3977 131.219 82.9936 131.386 82.5735C131.512 82.1254 131.562 81.6597 131.537 81.195C131.521 80.2729 131.313 79.3644 130.926 78.5284C130.089 76.8562 128.82 75.4415 127.251 74.4329C126.74 74.0807 126.249 74.9361 126.76 75.2782C128.155 76.0969 129.325 77.2519 130.165 78.6391C130.573 79.3815 130.825 80.1999 130.906 81.044C131.013 81.9326 130.903 82.834 130.585 83.6704C130.575 83.7811 130.776 83.8917 130.776 83.7811Z" fill="#73463B"/>
<path d="M128.773 87.0716C126.52 89.4161 122.845 88.3294 120.462 86.8502C119.215 86.1225 118.222 85.0262 117.618 83.7107C117.089 82.3271 116.894 80.8376 117.047 79.3636C117.047 78.8001 116.246 78.8202 116.186 79.3636C115.967 81.0028 116.163 82.671 116.757 84.2138C117.539 85.6956 118.765 86.8926 120.261 87.6351C122.975 89.2652 126.66 89.9998 128.923 87.2225C129.003 87.1219 128.873 86.981 128.783 87.0716H128.773Z" fill="#73463B"/>
<path d="M140.729 88.4702C141.78 84.9309 141.443 81.1217 139.788 77.824C138.132 74.6588 135.404 72.1927 132.097 70.8707C130.431 70.1563 128.637 69.7881 126.825 69.7881C125.013 69.7881 123.22 70.1563 121.553 70.8707C119.913 71.5538 118.524 72.7321 117.579 74.2426C116.633 75.7532 116.178 77.5215 116.276 79.3032C116.294 79.4358 116.359 79.5575 116.459 79.6455C116.56 79.7336 116.689 79.7821 116.822 79.7821C116.955 79.7821 117.084 79.7336 117.184 79.6455C117.284 79.5575 117.35 79.4358 117.368 79.3032C117.858 71.9072 126.38 69.8343 132.158 72.3298C135.107 73.6659 137.512 75.9783 138.97 78.8809C140.427 81.7835 140.851 85.1007 140.168 88.279C140.088 88.6312 140.619 88.7821 140.709 88.4299L140.729 88.4702Z" fill="#73463B"/>
<path d="M137.234 119C139.788 119.101 141.59 116.555 141.63 114.12C141.69 110.678 138.997 107.861 137.625 104.933C135.933 101.401 135.262 96.5404 138.867 93.9241C141.74 91.8412 146.557 92.9178 147.218 96.7919C147.548 98.7541 146.567 101.058 144.494 101.541C142.051 102.105 140.489 98.8145 142.982 97.7579C144.374 97.1743 143.803 94.8801 142.341 95.4335C141.368 95.7743 140.549 96.4537 140.031 97.3488C139.513 98.2438 139.331 99.2956 139.517 100.314C139.712 101.293 140.251 102.168 141.037 102.778C141.823 103.388 142.802 103.693 143.793 103.634C147.909 103.363 149.881 98.5328 148.199 95.0712C146.407 91.3783 141.41 90.6135 138.266 92.9279C134.531 95.6549 134.451 100.445 136.093 104.389C137.174 106.995 139.097 109.169 140.098 111.805C140.939 114.059 140.379 117.974 137.254 117.843C136.533 117.843 136.543 118.93 137.254 118.96L137.234 119Z" fill="#73463B"/>
<path d="M135.121 98.7843C134.821 100.938 135.712 103.141 136.073 105.224C136.433 107.307 136.433 109.642 134.781 111.03C133.129 112.419 131.136 111.584 130.205 109.873C129.987 109.503 129.878 109.079 129.892 108.649C129.907 108.219 130.043 107.803 130.285 107.448C130.379 107.299 130.504 107.173 130.653 107.078C130.801 106.984 130.968 106.923 131.142 106.901C131.316 106.879 131.493 106.896 131.66 106.951C131.827 107.005 131.98 107.096 132.107 107.217C133.159 108.303 134.861 106.532 133.74 105.587C133.346 105.248 132.881 105.003 132.38 104.869C131.88 104.735 131.355 104.715 130.846 104.812C130.337 104.908 129.856 105.119 129.438 105.427C129.02 105.735 128.677 106.133 128.432 106.593C127.986 107.595 127.887 108.718 128.15 109.783C128.413 110.848 129.024 111.794 129.884 112.469C130.665 113.184 131.675 113.592 132.73 113.62C133.786 113.648 134.816 113.293 135.632 112.62C136.431 111.887 137.034 110.964 137.384 109.935C137.734 108.906 137.82 107.805 137.635 106.734C137.467 105.433 137.182 104.149 136.784 102.9C136.383 101.541 136.183 100.082 135.682 98.7541C135.592 98.5327 135.182 98.4522 135.142 98.7541L135.121 98.7843Z" fill="#73463B"/>
</g>
<defs>
<clipPath id="clip0_53_161">
<rect width="148" height="119" fill="white" transform="matrix(-1 0 0 -1 148.8 119)"/>
</clipPath>
</defs>
</svg>
