<svg width="255" height="95" viewBox="0 0 255 95" fill="none" xmlns="http://www.w3.org/2000/svg">
<path d="M243.667 89C243.667 86.0545 246.054 83.6667 249 83.6667C251.946 83.6667 254.333 86.0545 254.333 89C254.333 91.9455 251.946 94.3333 249 94.3333C246.054 94.3333 243.667 91.9455 243.667 89ZM143.811 89V90H143.257L142.963 89.5304L143.811 89ZM91.8822 6V5H92.4361L92.7299 5.4696L91.8822 6ZM0.666667 6C0.666667 3.05448 3.05448 0.666664 6 0.666664C8.94552 0.666664 11.3333 3.05448 11.3333 6C11.3333 8.94552 8.94552 11.3333 6 11.3333C3.05448 11.3333 0.666667 8.94552 0.666667 6ZM249 90H143.811V88H249V90ZM142.963 89.5304L91.0344 6.5304L92.7299 5.4696L144.659 88.4696L142.963 89.5304ZM91.8822 7H6V5H91.8822V7Z" fill="#73463B"/>
</svg>
