<svg width="377" height="97" viewBox="0 0 377 97" fill="none" xmlns="http://www.w3.org/2000/svg">
<path d="M365.667 6C365.667 8.94552 368.054 11.3333 371 11.3333C373.946 11.3333 376.333 8.94552 376.333 6C376.333 3.05448 373.946 0.666667 371 0.666667C368.054 0.666667 365.667 3.05448 365.667 6ZM213 6V5H212.56L212.263 5.32388L213 6ZM135 91V92H135.44L135.737 91.6761L135 91ZM0.666667 91C0.666667 93.9455 3.05448 96.3333 6 96.3333C8.94552 96.3333 11.3333 93.9455 11.3333 91C11.3333 88.0545 8.94552 85.6667 6 85.6667C3.05448 85.6667 0.666667 88.0545 0.666667 91ZM371 5H213V7H371V5ZM212.263 5.32388L134.263 90.3239L135.737 91.6761L213.737 6.67612L212.263 5.32388ZM135 90H6V92H135V90Z" fill="#73463B"/>
</svg>
