<svg width="377" height="13" viewBox="0 0 377 13" fill="none" xmlns="http://www.w3.org/2000/svg">
<path d="M365.667 7C365.667 4.05448 368.054 1.66667 371 1.66667C373.946 1.66667 376.333 4.05448 376.333 7C376.333 9.94552 373.946 12.3333 371 12.3333C368.054 12.3333 365.667 9.94552 365.667 7ZM213 7V8.00008L212.987 7.99992L213 7ZM135 6V4.99992L135.013 5.00008L135 6ZM0.666667 6C0.666667 3.05448 3.05448 0.666667 6 0.666667C8.94552 0.666667 11.3333 3.05448 11.3333 6C11.3333 8.94552 8.94552 11.3333 6 11.3333C3.05448 11.3333 0.666667 8.94552 0.666667 6ZM371 8H213V6H371V8ZM212.987 7.99992L134.987 6.99992L135.013 5.00008L213.013 6.00008L212.987 7.99992ZM135 7H6V5H135V7Z" fill="#73463B"/>
</svg>
