<svg width="406" height="42" viewBox="0 0 406 42" fill="none" xmlns="http://www.w3.org/2000/svg">
<path d="M394.667 36C394.667 33.0545 397.054 30.6667 400 30.6667C402.946 30.6667 405.333 33.0545 405.333 36C405.333 38.9455 402.946 41.3333 400 41.3333C397.054 41.3333 394.667 38.9455 394.667 36ZM229.447 36V37H229.274L229.111 36.942L229.447 36ZM145.249 6V5H145.422L145.585 5.05801L145.249 6ZM0.666667 6C0.666667 3.05448 3.05448 0.666664 6 0.666664C8.94552 0.666664 11.3333 3.05448 11.3333 6C11.3333 8.94552 8.94552 11.3333 6 11.3333C3.05448 11.3333 0.666667 8.94552 0.666667 6ZM400 37H229.447V35H400V37ZM229.111 36.942L144.914 6.94199L145.585 5.05801L229.782 35.058L229.111 36.942ZM145.249 7H6V5H145.249V7Z" fill="#73463B"/>
</svg>
