<svg width="27" height="26" viewBox="0 0 27 26" fill="none" xmlns="http://www.w3.org/2000/svg">
<g clip-path="url(#clip0_27_43)">
<path d="M8.4911 15.8174H21.3966L24.3298 6.10999H6.24683L8.4911 15.8174Z" fill="#461913"/>
<path d="M15.2642 1.87319C15.1291 1.87303 14.9953 1.89951 14.8704 1.95111C14.7455 2.00272 14.632 2.07843 14.5364 2.17392C14.4408 2.26941 14.365 2.38281 14.3132 2.50763C14.2615 2.63245 14.2349 2.76625 14.2349 2.90137V5.1291H7.06595L6.09331 0.906461C6.04116 0.679719 5.91365 0.477367 5.73162 0.33247C5.54959 0.187573 5.32379 0.108698 5.09113 0.108734H1.69576C1.42292 0.108734 1.16125 0.217122 0.968313 0.410055C0.77538 0.602987 0.666992 0.864659 0.666992 1.13751C0.666992 1.41035 0.77538 1.67203 0.968313 1.86496C1.16125 2.05789 1.42292 2.16628 1.69576 2.16628H4.27213L5.24595 6.38892L7.19713 14.8377H6.11104C5.38854 14.838 4.69565 15.1249 4.18432 15.6353C3.67299 16.1458 3.38497 16.8381 3.3834 17.5606C3.38465 18.2832 3.67258 18.9758 4.18398 19.4863C4.69537 19.9968 5.38844 20.2836 6.11104 20.2836H7.58831C7.4289 20.6737 7.34662 21.0911 7.34604 21.5126C7.36903 22.3706 7.726 23.1857 8.34097 23.7844C8.95593 24.3831 9.78031 24.7181 10.6386 24.7181C11.4969 24.7181 12.3212 24.3831 12.9362 23.7844C13.5512 23.1857 13.9081 22.3706 13.9311 21.5126C13.9311 21.0777 13.8449 20.6641 13.69 20.2836H16.6446C16.4856 20.6738 16.4037 21.0912 16.4035 21.5126C16.4265 22.3706 16.7835 23.1857 17.3984 23.7844C18.0134 24.3831 18.8378 24.7181 19.696 24.7181C20.5543 24.7181 21.3787 24.3831 21.9937 23.7844C22.6086 23.1857 22.9656 22.3706 22.9886 21.5126C22.987 20.6405 22.6396 19.8046 22.0226 19.1883C21.4056 18.5719 20.5693 18.2255 19.6972 18.2248H6.11104C5.93415 18.2255 5.76424 18.1559 5.63861 18.0313C5.51297 17.9068 5.44188 17.7375 5.44095 17.5606C5.44095 17.1943 5.74231 16.8953 6.11104 16.8953H21.3943C21.5007 16.8953 21.5999 16.874 21.6957 16.8456L21.7429 16.8303C21.8326 16.7987 21.9174 16.7545 21.9947 16.6991L22.0349 16.666C22.1018 16.6126 22.1617 16.5511 22.2133 16.4828C22.2228 16.471 22.2334 16.4616 22.2417 16.4486C22.2937 16.3713 22.335 16.2875 22.3646 16.1992C22.3681 16.1862 22.3776 16.1756 22.3823 16.1626L25.3132 6.4551C25.3592 6.30157 25.3687 6.13944 25.341 5.98159C25.3133 5.82374 25.2492 5.67453 25.1537 5.5458C25.0583 5.41708 24.9341 5.31239 24.7911 5.24005C24.6481 5.16771 24.4902 5.12972 24.3299 5.1291H16.2924V2.90255C16.2926 2.76743 16.2661 2.6336 16.2145 2.50872C16.1629 2.38384 16.0872 2.27035 15.9917 2.17475C15.8962 2.07915 15.7828 2.00331 15.658 1.95157C15.5331 1.89982 15.3993 1.87319 15.2642 1.87319ZM11.8736 21.5126C11.8736 22.191 11.3205 22.7429 10.6386 22.7429C10.312 22.7432 9.99855 22.614 9.76705 22.3836C9.53554 22.1532 9.40483 21.8404 9.40358 21.5138C9.40358 21.1863 9.5337 20.8722 9.76531 20.6405C9.99691 20.4089 10.311 20.2788 10.6386 20.2788C10.9661 20.2788 11.2803 20.4089 11.5119 20.6405C11.7435 20.8722 11.8736 21.1863 11.8736 21.5138V21.5126ZM19.6972 22.7429C19.3704 22.7435 19.0567 22.6145 18.8249 22.384C18.5932 22.1536 18.4623 21.8406 18.461 21.5138C18.461 21.1863 18.5912 20.8722 18.8228 20.6405C19.0544 20.4089 19.3685 20.2788 19.696 20.2788C20.0236 20.2788 20.3377 20.4089 20.5693 20.6405C20.8009 20.8722 20.931 21.1863 20.931 21.5138C20.931 22.191 20.3779 22.7429 19.6972 22.7429ZM22.9437 7.18664L20.632 14.8366H9.30904L7.54222 7.18546H14.2349V9.38601L13.8779 9.09055C13.6667 8.92889 13.401 8.85531 13.1367 8.88524C12.8723 8.91516 12.6298 9.04627 12.46 9.25107C12.2902 9.45586 12.2063 9.71845 12.2259 9.98376C12.2454 10.2491 12.3669 10.4965 12.5649 10.6742L14.6071 12.3689C14.6225 12.3807 14.6379 12.389 14.6544 12.4008C14.7058 12.4399 14.7612 12.4732 14.8199 12.5001C14.8435 12.5119 14.8659 12.5237 14.8908 12.5332C14.9286 12.5473 14.9673 12.5591 15.0066 12.5686L15.0728 12.5864C15.1993 12.61 15.3291 12.61 15.4557 12.5864C15.4793 12.5816 15.5006 12.5746 15.5219 12.5686C15.5611 12.5591 15.5998 12.5473 15.6377 12.5332L15.7086 12.5001C15.7674 12.4728 15.8232 12.4395 15.8752 12.4008C15.8906 12.389 15.9071 12.3807 15.9225 12.3689L17.9635 10.6742C18.1735 10.5001 18.3057 10.2497 18.3311 9.97806C18.3565 9.70644 18.2729 9.43587 18.0988 9.22587C17.9247 9.01587 17.6743 8.88363 17.4027 8.85825C17.1311 8.83288 16.8605 8.91644 16.6505 9.09055L16.2936 9.38601V7.18664H22.946H22.9437Z" fill="#E3E3E3"/>
</g>
<defs>
<clipPath id="clip0_27_43">
<rect width="26" height="26" fill="white" transform="translate(0.255127)"/>
</clipPath>
</defs>
</svg>
