<svg width="26" height="26" viewBox="0 0 26 26" fill="none" xmlns="http://www.w3.org/2000/svg">
<path d="M8.23609 15.8174H21.1415L24.0748 6.10999H5.99182L8.23609 15.8174Z" fill="#E3E3E3"/>
<path d="M15.0091 1.87319C14.874 1.87303 14.7401 1.89951 14.6153 1.95111C14.4904 2.00272 14.3769 2.07843 14.2813 2.17392C14.1857 2.26941 14.1099 2.38281 14.0581 2.50763C14.0064 2.63245 13.9797 2.76625 13.9797 2.90137V5.1291H6.81082L5.83818 0.906461C5.78603 0.679719 5.65853 0.477367 5.47649 0.33247C5.29446 0.187573 5.06866 0.108698 4.836 0.108734H1.44064C1.16779 0.108734 0.906118 0.217122 0.713186 0.410055C0.520254 0.602987 0.411865 0.864659 0.411865 1.13751C0.411865 1.41035 0.520254 1.67203 0.713186 1.86496C0.906118 2.05789 1.16779 2.16628 1.44064 2.16628H4.017L4.99082 6.38892L6.942 14.8377H5.85591C5.13341 14.838 4.44052 15.1249 3.92919 15.6353C3.41787 16.1458 3.12984 16.8381 3.12827 17.5606C3.12953 18.2832 3.41745 18.9758 3.92885 19.4863C4.44025 19.9968 5.13331 20.2836 5.85591 20.2836H7.33318C7.17377 20.6737 7.0915 21.0911 7.09091 21.5126C7.1139 22.3706 7.47088 23.1857 8.08584 23.7844C8.70081 24.3831 9.52518 24.7181 10.3835 24.7181C11.2417 24.7181 12.0661 24.3831 12.6811 23.7844C13.296 23.1857 13.653 22.3706 13.676 21.5126C13.676 21.0777 13.5897 20.6641 13.4349 20.2836H16.3895C16.2304 20.6738 16.1486 21.0912 16.1484 21.5126C16.1714 22.3706 16.5283 23.1857 17.1433 23.7844C17.7583 24.3831 18.5826 24.7181 19.4409 24.7181C20.2992 24.7181 21.1236 24.3831 21.7385 23.7844C22.3535 23.1857 22.7105 22.3706 22.7335 21.5126C22.7319 20.6405 22.3845 19.8046 21.7675 19.1883C21.1505 18.5719 20.3142 18.2255 19.4421 18.2248H5.85591C5.67902 18.2255 5.50911 18.1559 5.38348 18.0313C5.25785 17.9068 5.18676 17.7375 5.18582 17.5606C5.18582 17.1943 5.48718 16.8953 5.85591 16.8953H21.1392C21.2455 16.8953 21.3448 16.874 21.4405 16.8456L21.4878 16.8303C21.5775 16.7987 21.6623 16.7545 21.7395 16.6991L21.7797 16.666C21.8466 16.6126 21.9066 16.5511 21.9582 16.4828C21.9676 16.471 21.9783 16.4616 21.9865 16.4486C22.0385 16.3713 22.0799 16.2875 22.1095 16.1992C22.113 16.1862 22.1225 16.1756 22.1272 16.1626L25.0581 6.4551C25.104 6.30157 25.1135 6.13944 25.0859 5.98159C25.0582 5.82374 24.9941 5.67453 24.8986 5.5458C24.8031 5.41708 24.679 5.31239 24.536 5.24005C24.393 5.16771 24.2351 5.12972 24.0748 5.1291H16.0373V2.90255C16.0374 2.76743 16.0109 2.6336 15.9593 2.50872C15.9077 2.38384 15.832 2.27035 15.7365 2.17475C15.6411 2.07915 15.5277 2.00331 15.4028 1.95157C15.278 1.89982 15.1442 1.87319 15.0091 1.87319ZM11.6185 21.5126C11.6185 22.191 11.0654 22.7429 10.3835 22.7429C10.0568 22.7432 9.74342 22.614 9.51192 22.3836C9.28041 22.1532 9.14971 21.8404 9.14845 21.5138C9.14845 21.1863 9.27857 20.8722 9.51018 20.6405C9.74179 20.4089 10.0559 20.2788 10.3835 20.2788C10.711 20.2788 11.0251 20.4089 11.2567 20.6405C11.4883 20.8722 11.6185 21.1863 11.6185 21.5138V21.5126ZM19.4421 22.7429C19.1153 22.7435 18.8016 22.6145 18.5698 22.384C18.338 22.1536 18.2072 21.8406 18.2059 21.5138C18.2059 21.1863 18.336 20.8722 18.5676 20.6405C18.7992 20.4089 19.1134 20.2788 19.4409 20.2788C19.7685 20.2788 20.0826 20.4089 20.3142 20.6405C20.5458 20.8722 20.6759 21.1863 20.6759 21.5138C20.6759 22.191 20.1228 22.7429 19.4421 22.7429ZM22.6885 7.18664L20.3769 14.8366H9.05391L7.28709 7.18546H13.9797V9.38601L13.6228 9.09055C13.4115 8.92889 13.1459 8.85531 12.8815 8.88524C12.6172 8.91516 12.3747 9.04627 12.2049 9.25107C12.0351 9.45586 11.9512 9.71845 11.9707 9.98376C11.9903 10.2491 12.1118 10.4965 12.3098 10.6742L14.352 12.3689C14.3674 12.3807 14.3827 12.389 14.3993 12.4008C14.4506 12.4399 14.5061 12.4732 14.5647 12.5001C14.5884 12.5119 14.6108 12.5237 14.6356 12.5332C14.6735 12.5473 14.7122 12.5591 14.7515 12.5686L14.8176 12.5864C14.9442 12.61 15.074 12.61 15.2005 12.5864C15.2242 12.5816 15.2455 12.5746 15.2667 12.5686C15.306 12.5591 15.3447 12.5473 15.3825 12.5332L15.4535 12.5001C15.5122 12.4728 15.5681 12.4395 15.6201 12.4008C15.6355 12.389 15.652 12.3807 15.6674 12.3689L17.7084 10.6742C17.9184 10.5001 18.0506 10.2497 18.076 9.97806C18.1014 9.70644 18.0178 9.43587 17.8437 9.22587C17.6696 9.01587 17.4192 8.88363 17.1475 8.85825C16.8759 8.83288 16.6054 8.91644 16.3954 9.09055L16.0385 9.38601V7.18664H22.6909H22.6885Z" fill="#461913"/>
</svg>
