<svg width="113" height="40" viewBox="0 0 113 40" fill="none" xmlns="http://www.w3.org/2000/svg">
<g clip-path="url(#clip0_25_234)">
<path d="M80.7835 14.1617V33.4528H33.3568V5.57547H67.0122C67.7466 6.32916 68.6497 6.93214 69.6614 7.34418C70.6731 7.75623 71.77 7.96786 72.8791 7.96496C73.4708 7.96371 74.0604 7.89955 74.6356 7.7738C74.7726 9.29474 75.4436 10.7358 76.5501 11.8855C77.6566 13.0352 79.1403 13.8329 80.7835 14.1617Z" stroke="#F8F8F8" stroke-miterlimit="10"/>
<path d="M82.5401 14.3369C83.7594 14.3387 84.9624 14.0823 86.0532 13.5882V39.0761H28.0872V0.796509H64.9746C64.9644 2.56562 65.6923 4.27278 67.0122 5.57548C67.7466 6.32917 68.6497 6.93215 69.6614 7.3442C70.6731 7.75624 71.7701 7.96787 72.8791 7.96497C73.4708 7.96372 74.0604 7.89957 74.6356 7.77381C74.7741 9.28763 75.4416 10.7219 76.541 11.8679C77.6405 13.0139 79.1144 13.8119 80.7484 14.1458C81.3362 14.2685 81.937 14.3326 82.5401 14.3369Z" stroke="#F8F8F8" stroke-miterlimit="10"/>
<path d="M54.2949 28.6738C41.6477 28.6738 39.5048 10.8005 39.5048 10.8005V28.6738H54.2949Z" fill="#E3E3E3"/>
<path d="M0 34.8387C0.974061 34.8689 1.93355 34.6179 2.74022 34.1219C3.52799 33.5379 4.09837 32.7481 4.37381 31.8598C4.77273 30.6624 4.95659 29.4145 4.91834 28.1641V11.9793H9.83667V28.3871C9.90546 30.4209 9.54782 32.448 8.78274 34.3608C8.19746 35.8276 7.09948 37.0807 5.65609 37.9291C4.06056 38.7737 2.23253 39.1882 0.386441 39.1239H0V34.8387ZM7.74638 11.9793H21.7988V16.2485H7.74638V11.9793ZM19.5504 11.9793H24.4687V39.0602H19.5504V11.9793Z" fill="#E3E3E3"/>
<path d="M89.2502 12.8554H94.1686V39.9363H89.2502V12.8554ZM91.4986 24.3887H101.476V28.6738H91.4986V24.3887ZM97.2601 28.0526L101.669 26.0932L112.595 40H106.148L97.2601 28.0526ZM97.2601 25.1055L105.446 12.8554H111.33L100.422 28.4508L97.2601 25.1055Z" fill="#F8F8F8"/>
</g>
<defs>
<clipPath id="clip0_25_234">
<rect width="112.595" height="40" fill="white"/>
</clipPath>
</defs>
</svg>
