<svg width="100" height="40" viewBox="0 0 100 40" fill="none" xmlns="http://www.w3.org/2000/svg">
<g clip-path="url(#clip0_25_226)">
<path d="M71.7472 14.1617V33.4528H29.6256V5.57547H59.5163C60.1685 6.32916 60.9707 6.93214 61.8692 7.34418C62.7677 7.75623 63.742 7.96786 64.7269 7.96496C65.2525 7.96371 65.7761 7.89955 66.287 7.7738C66.4087 9.29474 67.0046 10.7358 67.9874 11.8855C68.9701 13.0352 70.2878 13.8329 71.7472 14.1617Z" stroke="#340D08" stroke-miterlimit="10"/>
<path d="M73.3073 14.3369C74.3903 14.3387 75.4587 14.0823 76.4275 13.5882V39.0761H24.9454V0.796509H57.7067C57.6977 2.56562 58.3441 4.27278 59.5164 5.57548C60.1686 6.32917 60.9707 6.93215 61.8693 7.3442C62.7678 7.75624 63.742 7.96787 64.727 7.96497C65.2525 7.96372 65.7761 7.89957 66.2871 7.77381C66.4101 9.28763 67.0029 10.7219 67.9793 11.8679C68.9558 13.0139 70.2648 13.8119 71.7161 14.1458C72.2381 14.2685 72.7717 14.3326 73.3073 14.3369Z" stroke="#340D08" stroke-miterlimit="10"/>
<path d="M48.2215 28.6738C36.9891 28.6738 35.0858 10.8005 35.0858 10.8005V28.6738H48.2215Z" fill="#894E2E"/>
<path d="M0 34.8387C0.865104 34.8689 1.71727 34.6179 2.4337 34.1219C3.13336 33.5379 3.63993 32.7481 3.88456 31.8598C4.23886 30.6624 4.40215 29.4145 4.36818 28.1641V11.9793H8.73636V28.3871C8.79745 30.4209 8.47982 32.448 7.80032 34.3608C7.28051 35.8276 6.30534 37.0807 5.02341 37.9291C3.60635 38.7737 1.9828 39.1882 0.343214 39.1239H0V34.8387ZM6.87988 11.9793H19.3604V16.2485H6.87988V11.9793ZM17.3635 11.9793H21.7317V39.0602H17.3635V11.9793Z" fill="#461913"/>
<path d="M79.2668 12.8554H83.635V39.9363H79.2668V12.8554ZM81.2637 24.3887H90.1249V28.6738H81.2637V24.3887ZM86.3807 28.0526L90.2965 26.0932L100 40H94.2746L86.3807 28.0526ZM86.3807 25.1055L93.6506 12.8554H98.8768L89.1888 28.4508L86.3807 25.1055Z" fill="#73463B"/>
</g>
<defs>
<clipPath id="clip0_25_226">
<rect width="100" height="40" fill="white"/>
</clipPath>
</defs>
</svg>
