<svg width="26" height="26" viewBox="0 0 26 26" fill="none" xmlns="http://www.w3.org/2000/svg">
<g clip-path="url(#clip0_81_244)">
<path d="M23.236 8.05122L20.8908 7.5979L19.7347 5.50739L18.5787 7.5979L16.2334 8.05122L17.8641 9.79678L17.5705 12.1675L19.7347 11.1557L21.8989 12.1675L21.6052 9.79678L23.236 8.05122Z" fill="#3F444A"/>
<path d="M20.3959 16.8301L18.7835 16.5185L17.9888 15.0813L17.194 16.5185L15.5817 16.8301L16.7029 18.0303L16.5009 19.6601L17.9888 18.9644L19.4766 19.6601L19.2748 18.0303L20.3959 16.8301Z" fill="#3F444A"/>
<path d="M10.4058 12.9999C10.4058 7.67883 13.7342 3.13589 18.4225 1.33742C16.7486 0.541776 14.8774 0.0960693 12.9039 0.0960693C5.78861 0.0960693 0 5.88467 0 13C0 20.1153 5.78861 25.9039 12.9039 25.9039C14.8775 25.9039 16.7486 25.4582 18.4226 24.6625C13.7344 22.8641 10.4058 18.3211 10.4058 12.9999ZM2.49752 13C2.49752 7.53994 6.7245 3.04854 12.0778 2.62604C11.547 3.18042 11.0563 3.77812 10.6101 4.41532C8.84254 6.94006 7.90832 9.90858 7.90832 12.9999C7.90832 16.0913 8.84264 19.0599 10.6102 21.5846C11.0564 22.2219 11.5472 22.8196 12.078 23.3739C6.72461 22.9514 2.49752 18.46 2.49752 13Z" fill="#3F444A"/>
<path d="M26 14.4308L24.6808 14.1759L24.0305 13L23.3804 14.1759L22.061 14.4308L22.9784 15.4128L22.8131 16.7463L24.0305 16.1771L25.2478 16.7463L25.0828 15.4128L26 14.4308Z" fill="#3F444A"/>
</g>
<defs>
<clipPath id="clip0_81_244">
<rect width="26" height="26" fill="white"/>
</clipPath>
</defs>
</svg>
