<svg width="27" height="26" viewBox="0 0 27 26" fill="none" xmlns="http://www.w3.org/2000/svg">
<path fill-rule="evenodd" clip-rule="evenodd" d="M13.2552 1.35416C13.7039 1.35416 14.0677 1.71793 14.0677 2.16666V4.33332C14.0677 4.78205 13.7039 5.14582 13.2552 5.14582C12.8065 5.14582 12.4427 4.78205 12.4427 4.33332V2.16666C12.4427 1.71793 12.8065 1.35416 13.2552 1.35416ZM4.22958 4.02575C4.53237 3.69458 5.0463 3.67157 5.37748 3.97436L7.78466 6.17525C8.11583 6.47804 8.13884 6.99196 7.83605 7.32314C7.53326 7.65431 7.01932 7.67732 6.68815 7.37453L4.28097 5.17365C3.9498 4.87086 3.92679 4.35693 4.22958 4.02575ZM22.2809 4.02575C22.5837 4.35693 22.5606 4.87086 22.2294 5.17365L19.8223 7.37453C19.4911 7.67732 18.9772 7.65431 18.6744 7.32314C18.3716 6.99196 18.3945 6.47804 18.7257 6.17525L21.133 3.97436C21.4642 3.67157 21.978 3.69458 22.2809 4.02575ZM13.2552 8.39582C10.7124 8.39582 8.65104 10.4572 8.65104 13C8.65104 15.5428 10.7124 17.6042 13.2552 17.6042C15.798 17.6042 17.8594 15.5428 17.8594 13C17.8594 10.4572 15.798 8.39582 13.2552 8.39582ZM7.02604 13C7.02604 9.55971 9.81493 6.77082 13.2552 6.77082C16.6954 6.77082 19.4844 9.55971 19.4844 13C19.4844 16.4402 16.6954 19.2292 13.2552 19.2292C9.81493 19.2292 7.02604 16.4402 7.02604 13ZM1.60938 13C1.60938 12.5513 1.97315 12.1875 2.42187 12.1875H4.58854C5.03727 12.1875 5.40104 12.5513 5.40104 13C5.40104 13.4487 5.03727 13.8125 4.58854 13.8125H2.42187C1.97315 13.8125 1.60938 13.4487 1.60938 13ZM21.1094 13C21.1094 12.5513 21.4732 12.1875 21.9219 12.1875H24.0885C24.5373 12.1875 24.901 12.5513 24.901 13C24.901 13.4487 24.5373 13.8125 24.0885 13.8125H21.9219C21.4732 13.8125 21.1094 13.4487 21.1094 13ZM18.6995 18.444C19.0168 18.1266 19.5313 18.1266 19.8486 18.444L22.2558 20.8514C22.5731 21.1688 22.573 21.6832 22.2556 22.0005C21.9383 22.3178 21.4239 22.3177 21.1067 22.0004L18.6995 19.5929C18.3822 19.2756 18.3822 18.7613 18.6995 18.444ZM7.8111 18.4441C8.1284 18.7614 8.1284 19.2758 7.8111 19.5932L5.40368 22.0005C5.08639 22.3178 4.57194 22.3178 4.25464 22.0005C3.93734 21.6832 3.93734 21.1688 4.25464 20.8516L6.66205 18.4441C6.97935 18.1268 7.49379 18.1268 7.8111 18.4441ZM13.2552 20.8542C13.7039 20.8542 14.0677 21.2179 14.0677 21.6667V23.8333C14.0677 24.282 13.7039 24.6458 13.2552 24.6458C12.8065 24.6458 12.4427 24.282 12.4427 23.8333V21.6667C12.4427 21.2179 12.8065 20.8542 13.2552 20.8542Z" fill="#D9C937"/>
</svg>
