<svg width="27" height="26" viewBox="0 0 27 26" fill="none" xmlns="http://www.w3.org/2000/svg">
<g clip-path="url(#clip0_81_261)">
<path d="M0.543701 14.9244C0.807402 16.665 1.42156 18.29 2.31027 19.7275H24.1709C25.0596 18.29 25.6738 16.665 25.9375 14.9244H0.543701Z" fill="#F3F4F5"/>
<path d="M20.2719 23.7301H6.20898C8.22926 25.0549 10.644 25.828 13.2404 25.828C15.8369 25.828 18.2516 25.0549 20.2719 23.7301Z" fill="#F3F4F5"/>
<path d="M2.3103 19.7275C3.30118 21.3305 4.63509 22.6979 6.20902 23.7301H20.2719C21.8461 22.6979 23.1798 21.3305 24.1707 19.7275H2.3103Z" fill="#DC3027"/>
<path d="M14.5616 0.210205C14.1272 0.165684 13.6866 0.142853 13.2405 0.142853C6.14771 0.142853 0.397949 5.89262 0.397949 12.9854C0.397949 13.6444 0.447893 14.2919 0.543784 14.9244H14.5616V0.210205Z" fill="#283991"/>
<path d="M4.30445 6.73368L3.90718 5.51392L4.94172 4.76191H3.66232L3.58441 4.52304C3.17858 4.98566 2.80586 5.47739 2.4691 5.99509L2.22852 6.73368L3.2662 5.97939L4.30445 6.73368Z" fill="#F3F4F5"/>
<path d="M6.88853 2.89917L7.92165 3.65003L7.52552 2.43369L8.55892 1.67855H7.27952L7.26068 1.62033C6.85714 1.83323 6.4653 2.06497 6.08858 2.31783L6.25068 2.43569L5.86084 3.65003L6.88853 2.89917Z" fill="#F3F4F5"/>
<path d="M2.62679 11.6812L2.2301 12.8998L3.26606 12.1464L4.30489 12.8998L3.90819 11.6812L4.94131 10.9278H3.66276L3.26606 9.71201L2.86937 10.9278H1.59082L2.62679 11.6812Z" fill="#F3F4F5"/>
<path d="M9.87581 11.6812L9.47912 12.8998L10.5151 12.1464L11.5539 12.8998L11.1572 11.6812L12.1903 10.9278H10.9118L10.5151 9.71201L10.1212 10.9278H8.83984L9.87581 11.6812Z" fill="#F3F4F5"/>
<path d="M9.87581 5.51392L9.47912 6.73254L10.5151 5.97911L11.5539 6.73254L11.1572 5.51392L12.1903 4.76049H10.9118L10.5151 3.54758L10.1212 4.76049H8.83984L9.87581 5.51392Z" fill="#F3F4F5"/>
<path d="M6.24283 8.59613L5.84614 9.81761L6.88496 9.06417L7.92093 9.81761L7.52423 8.59613L8.5602 7.84556H7.2788L6.88496 6.62979L6.48827 7.84556H5.20972L6.24283 8.59613Z" fill="#F3F4F5"/>
<path d="M25.9158 10.9215H14.5615V14.9241H25.9372C26.0331 14.2919 26.083 13.6444 26.083 12.9854C26.083 12.2825 26.0242 11.5939 25.9158 10.9215Z" fill="#DC3027"/>
<path d="M14.5615 10.9215H25.9158C25.6338 9.17745 25 7.55215 24.0907 6.11835H14.5615V10.9215Z" fill="#F3F4F5"/>
<path d="M14.5615 6.11836H24.0904C23.0667 4.50419 21.694 3.13488 20.0767 2.11575H14.5615V6.11836Z" fill="#DC3027"/>
<path d="M14.5615 0.211334V2.11575H20.077C18.4483 1.0892 16.5741 0.417672 14.5615 0.211334Z" fill="#F3F4F5"/>
</g>
<defs>
<clipPath id="clip0_81_261">
<rect width="26" height="26" fill="white" transform="translate(0.255127)"/>
</clipPath>
</defs>
</svg>
