<svg width="26" height="26" viewBox="0 0 26 26" fill="none" xmlns="http://www.w3.org/2000/svg">
<g clip-path="url(#clip0_27_17)">
<path d="M13 25.1333C19.7011 25.1333 25.1334 19.7011 25.1334 13C25.1334 6.29895 19.7011 0.866669 13 0.866669C6.29898 0.866669 0.866699 6.29895 0.866699 13C0.866699 19.7011 6.29898 25.1333 13 25.1333Z" fill="#461913"/>
<path d="M13 14.3C15.3932 14.3 17.3333 12.3599 17.3333 9.96666C17.3333 7.57343 15.3932 5.63333 13 5.63333C10.6067 5.63333 8.66663 7.57343 8.66663 9.96666C8.66663 12.3599 10.6067 14.3 13 14.3Z" fill="#E3E3E3"/>
<mask id="mask0_27_17" style="mask-type:luminance" maskUnits="userSpaceOnUse" x="2" y="2" width="22" height="22">
<path d="M13 23.8333C18.983 23.8333 23.8333 18.9831 23.8333 13C23.8333 7.01691 18.983 2.16666 13 2.16666C7.01687 2.16666 2.16663 7.01691 2.16663 13C2.16663 18.9831 7.01687 23.8333 13 23.8333Z" fill="white"/>
</mask>
<g mask="url(#mask0_27_17)">
<path d="M12.9999 32.0666C17.5471 32.0666 21.2333 28.3805 21.2333 23.8333C21.2333 19.2862 17.5471 15.6 12.9999 15.6C8.45279 15.6 4.7666 19.2862 4.7666 23.8333C4.7666 28.3805 8.45279 32.0666 12.9999 32.0666Z" fill="#E3E3E3"/>
</g>
</g>
<defs>
<clipPath id="clip0_27_17">
<rect width="26" height="26" fill="white"/>
</clipPath>
</defs>
</svg>
