<svg width="27" height="26" viewBox="0 0 27 26" fill="none" xmlns="http://www.w3.org/2000/svg">
<path d="M13.2552 25.1333C19.9562 25.1333 25.3885 19.7011 25.3885 13C25.3885 6.29895 19.9562 0.866669 13.2552 0.866669C6.5541 0.866669 1.12183 6.29895 1.12183 13C1.12183 19.7011 6.5541 25.1333 13.2552 25.1333Z" fill="#E3E3E3"/>
<path d="M13.2552 14.3C15.6484 14.3 17.5885 12.3599 17.5885 9.96666C17.5885 7.57343 15.6484 5.63333 13.2552 5.63333C10.862 5.63333 8.92188 7.57343 8.92188 9.96666C8.92188 12.3599 10.862 14.3 13.2552 14.3Z" fill="#461913"/>
<mask id="mask0_27_46" style="mask-type:luminance" maskUnits="userSpaceOnUse" x="2" y="2" width="23" height="22">
<path d="M13.2552 23.8333C19.2383 23.8333 24.0885 18.9831 24.0885 13C24.0885 7.0169 19.2383 2.16666 13.2552 2.16666C7.27212 2.16666 2.42188 7.0169 2.42188 13C2.42188 18.9831 7.27212 23.8333 13.2552 23.8333Z" fill="white"/>
</mask>
<g mask="url(#mask0_27_46)">
<path d="M13.2553 32.0666C17.8025 32.0666 21.4886 28.3805 21.4886 23.8333C21.4886 19.2862 17.8025 15.6 13.2553 15.6C8.70816 15.6 5.02197 19.2862 5.02197 23.8333C5.02197 28.3805 8.70816 32.0666 13.2553 32.0666Z" fill="#461913"/>
</g>
</svg>
